<?xml version='1.0' encoding='iso-8859-1'?>
<svg version="1.1" xmlns="http://www.w3.org/2000/svg" viewBox="0 0 137.144 137.144" xmlns:xlink="http://www.w3.org/1999/xlink" enable-background="new 0 0 137.144 137.144">
  <g>
    <g>
      <path d="m109.715,0h-82.286c-15.149,0-27.429,12.28-27.429,27.429v82.286c0,15.148 12.28,27.429 27.429,27.429h82.286c15.148,0 27.429-12.281 27.429-27.429v-82.286c0-15.149-12.28-27.429-27.429-27.429zm13.715,102.858c0,11.361-9.21,20.572-20.572,20.572h-68.572c-11.361,0-20.572-9.211-20.572-20.572v-68.572c0-11.361 9.21-20.572 20.572-20.572h68.572c11.362,0 20.572,9.211 20.572,20.572v68.572zm-27.429-20.572h4.884c-2.753,5.28-9.378,11.913-25.456,13.39v-40.818h13.714l-6.857-6.857h-6.857v-1.902c4.082-2.376 6.857-6.749 6.857-11.812 0-7.574-6.14-13.714-13.714-13.714-7.574,0-13.714,6.14-13.714,13.714 0,5.063 2.775,9.437 6.857,11.812v1.902h-6.857l-6.858,6.857h13.714v40.817c-16.186-1.483-22.792-8.111-25.512-13.389h4.941l-10.286-20.571-10.286,20.571h8.614c2.966,7.442 10.951,18.509 32.529,20.315v0.257l6.857,13.714 6.857-13.714v-0.349c21.339-2.068 29.392-12.9 32.437-20.223h8.706l-10.072-20.571-10.498,20.571zm-27.429-41.143c-3.787,0-6.857-3.07-6.857-6.857s3.07-6.858 6.857-6.858c3.787,0 6.857,3.071 6.857,6.858s-3.07,6.857-6.857,6.857z"/>
    </g>
  </g>
</svg>
