<?xml version='1.0' encoding='iso-8859-1'?>
<svg version="1.1" xmlns="http://www.w3.org/2000/svg" viewBox="0 0 137.144 137.144" xmlns:xlink="http://www.w3.org/1999/xlink" enable-background="new 0 0 137.144 137.144">
  <g>
    <g>
      <path d="m27.429,61.715c-3.787,0-6.857,3.07-6.857,6.857v13.714c0,3.787 3.071,6.857 6.857,6.857 3.787,0 6.857-3.07 6.857-6.857v-13.714c0-3.787-3.07-6.857-6.857-6.857zm13.715,34.286h6.856v13.714c0,3.787 3.071,6.857 6.857,6.857 3.787,0 6.857-3.07 6.857-6.857v-13.714h13.714v13.714c0,3.787 3.071,6.857 6.857,6.857 3.787,0 6.857-3.07 6.857-6.857v-13.714h6.857v-34.286h-54.855v34.286zm6.856-72.001c0-1.894-1.535-3.428-3.428-3.428-1.894,0-3.429,1.535-3.429,3.428 0,1.894 1.535,3.428 3.429,3.428 1.894,0 3.428-1.534 3.428-3.428zm36.022,13.671c-3.819-2.017-8.828-3.386-15.45-3.386-6.594,0-11.543,1.459-15.365,3.556l-5.207-10.413h-3.428-3.429l6.857,13.715h0.559c-6.474,5.985-7.416,13.715-7.416,13.715h54.858c0,0-0.647-7.731-7.073-13.715h0.216l6.857-13.715h-3.429-3.429l-5.121,10.243zm-25.736,10.329c-1.894,0-3.429-1.534-3.429-3.428 0-1.893 1.535-3.428 3.429-3.428 1.894,0 3.429,1.535 3.429,3.428 0,1.894-1.535,3.428-3.429,3.428zm20.572,0c-1.893,0-3.429-1.534-3.429-3.428 0-1.893 1.535-3.428 3.429-3.428 1.894,0 3.429,1.535 3.429,3.428 0,1.894-1.535,3.428-3.429,3.428zm30.857-48h-82.286c-15.149,0-27.429,12.28-27.429,27.429v82.286c0,15.149 12.28,27.429 27.429,27.429h82.286c15.149,0 27.429-12.28 27.429-27.429v-82.286c0-15.149-12.28-27.429-27.429-27.429zm13.715,102.858c0,11.362-9.21,20.572-20.571,20.572h-68.573c-11.362,0-20.572-9.21-20.572-20.572v-68.572c0-11.362 9.21-20.572 20.572-20.572h68.572c11.361,0 20.571,9.21 20.571,20.572v68.572zm-27.428-78.858c0-1.894-1.535-3.428-3.429-3.428-1.894,0-3.429,1.535-3.429,3.428 0,1.894 1.535,3.428 3.429,3.428 1.894,0 3.429-1.534 3.429-3.428zm13.714,37.715c-3.787,0-6.857,3.07-6.857,6.857v13.714c0,3.787 3.07,6.857 6.857,6.857 3.787,0 6.858-3.07 6.858-6.857v-13.714c-1.42109e-14-3.787-3.071-6.857-6.858-6.857z"/>
    </g>
  </g>
</svg>
