<?xml version='1.0' encoding='iso-8859-1'?>
<svg version="1.1" xmlns="http://www.w3.org/2000/svg" viewBox="0 0 137.145 137.145" xmlns:xlink="http://www.w3.org/1999/xlink" enable-background="new 0 0 137.145 137.145">
  <g>
    <g>
      <path d="m108.164,60.344c0.114-2.937-6.709-12.03-16.857-12.342-13.24-0.178-17.556,6.509-19.899,6.509-2.337,0-3.856-7.971-16.549-6.509-39.341,4.432-14.348,62.422 6.857,61.715 3.757-0.13 5.712-3.73 10.252-3.73 4.542,0 6.385,4.253 10.32,3.73 7.833-1.035 18.469-9.266 21.072-12.344 0.643-0.76 3.501-5.264 3.571-5.443-0.091-0.037-11.183-4.328-10.891-15.407 0.337-13.44 9.627-15.249 12.124-16.179zm-25.534-17.239c2.74-2.924 6.879-11.302 6.374-15.347-3.952,0.14-12.044-0.308-16.145,5.23-4.447,5.949-4.764,11.036-4.17,15.006 4.41,0.302 11.195-1.971 13.941-4.889zm27.086-43.105h-82.287c-15.148,0-27.429,12.281-27.429,27.429v82.287c0,15.148 12.28,27.429 27.429,27.429h82.286c15.149,0 27.429-12.281 27.429-27.429v-82.287c0-15.148-12.28-27.429-27.428-27.429zm13.714,102.859c0,11.361-9.21,20.571-20.571,20.571h-68.572c-11.361,0-20.572-9.21-20.572-20.571v-68.573c0-11.362 9.21-20.572 20.572-20.572h68.572c11.361,0 20.571,9.21 20.571,20.572v68.573z"/>
    </g>
  </g>
</svg>
