<?xml version='1.0' encoding='iso-8859-1'?>
<svg version="1.1" xmlns="http://www.w3.org/2000/svg" viewBox="0 0 137.145 137.145" xmlns:xlink="http://www.w3.org/1999/xlink" enable-background="new 0 0 137.145 137.145">
  <g>
    <g>
      <path d="m109.715,0h-82.286c-15.148,0-27.429,12.281-27.429,27.429v82.287c0,15.148 12.28,27.428 27.429,27.428h82.286c15.149,0 27.429-12.28 27.429-27.428v-82.287c0-15.148-12.28-27.429-27.429-27.429zm13.715,102.859c0,11.361-9.21,20.572-20.572,20.572h-68.572c-11.361,0-20.572-9.21-20.572-20.572v-68.572c0-11.362 9.21-20.572 20.572-20.572h68.572c11.362,0 20.572,9.21 20.572,20.572v68.572zm-48.529-36.907c-0.348-0.838-0.848-1.596-1.479-2.228-0.632-0.632-1.39-1.132-2.228-1.479-0.838-0.347-1.728-0.529-2.621-0.529s-1.783,0.182-2.621,0.529c-0.838,0.348-1.596,0.848-2.228,1.479-0.632,0.632-1.132,1.39-1.479,2.228-0.01,0.023-0.005,0.05-0.015,0.073-1.05,2.498-0.571,5.483 1.468,7.517 2.692,2.685 7.057,2.685 9.749,0 2.039-2.034 2.519-5.019 1.468-7.517-0.009-0.023-0.005-0.049-0.014-0.073zm31.341-35.276c-4.804-4.818-14.065-4.088-24.794,0.74-3.534-6.677-7.974-10.843-12.875-10.843-4.924,0-9.402,4.11-12.923,10.862-10.793-4.848-20.11-5.584-24.943-0.751-6.725,6.727-2.948,22.047 8.191,38.114-10.813,15.811-14.605,30.804-7.994,37.434 4.79,4.804 14.008,4.095 24.694-0.692 3.549,6.791 8.027,11.033 12.975,11.033 4.93,0 9.416-4.114 12.94-10.878 10.786,4.842 20.096,5.574 24.926,0.743 6.74-6.741 2.924-22.113-8.271-38.217 10.873-15.851 14.7-30.9 8.074-37.545zm-27.593,10.182c0.689,2.255 1.264,4.795 1.778,7.457-1.885-1.713-3.762-3.358-5.667-4.882 1.311-0.901 2.621-1.795 3.889-2.575zm-10.076-13.428c2.742,0 5.283,2.474 7.425,6.632-2.388,1.331-4.842,3.038-7.292,4.749-2.541-1.758-5.06-3.314-7.532-4.69 2.13-4.188 4.656-6.691 7.399-6.691zm-10.057,13.504c1.29,0.793 2.616,1.709 3.951,2.631-1.926,1.562-3.857,3.025-5.767,4.769 0.509-2.68 1.13-5.132 1.816-7.4zm-22.231,59.902c-4.031-4.043-0.777-14.261 7.244-25.984 1.639,2.044 3.418,4.059 5.274,6.08 0.803,6.773 2.166,13.005 4.051,18.264-7.55,3.687-13.664,4.553-16.569,1.64zm12.485-44.571c-1.865,2.042-3.552,4.109-5.197,6.173-8.183-11.869-11.542-22.256-7.457-26.342 2.942-2.943 9.15-2.054 16.816,1.712-1.907,5.324-3.374,11.546-4.162,18.457zm9.67,39.818c-0.667-2.209-1.227-4.686-1.727-7.28 1.837,1.67 3.665,3.281 5.521,4.772-1.278,0.874-2.557,1.748-3.794,2.508zm10.133,13.634c-2.785,0-5.368-2.526-7.531-6.804 2.371-1.316 4.809-3.016 7.241-4.709 2.598,1.804 5.172,3.399 7.699,4.805-2.132,4.199-4.662,6.708-7.409,6.708zm10.063-13.525c-1.338-0.822-2.714-1.773-4.1-2.734 1.991-1.61 3.987-3.129 5.96-4.932-0.517,2.78-1.152,5.325-1.86,7.666zm3.389-19.829c-0.905,0.962-1.736,1.929-2.69,2.885-3.595,3.606-7.24,6.848-10.824,9.707-3.571-2.86-7.185-5.998-10.758-9.571-0.929-0.929-1.737-1.869-2.621-2.804-0.175-2.588-0.275-5.258-0.275-8.006 0-2.753 0.098-5.435 0.27-8.036 0.903-0.959 1.731-1.924 2.682-2.877 3.55-3.56 7.148-6.771 10.688-9.604 3.614,2.887 7.276,6.063 10.894,9.682 0.929,0.929 1.737,1.869 2.621,2.804 0.176,2.595 0.274,5.274 0.274,8.03 0.001,2.668-0.099,5.263-0.261,7.79zm18.835-40.29c4.045,4.056 0.76,14.327-7.319,26.099-1.619-2.014-3.378-4-5.208-5.991-0.811-6.85-2.196-13.144-4.114-18.438 7.584-3.718 13.727-4.594 16.641-1.67zm.169,64.954c-2.94,2.94-9.142,2.054-16.802-1.706 1.929-5.392 3.405-11.707 4.185-18.719 1.822-1.997 3.465-4.018 5.078-6.036 8.244,11.919 11.638,22.361 7.539,26.461z"/>
    </g>
  </g>
</svg>
