<?xml version='1.0' encoding='iso-8859-1'?>
<svg version="1.1" xmlns="http://www.w3.org/2000/svg" viewBox="0 0 137.144 137.144" xmlns:xlink="http://www.w3.org/1999/xlink" enable-background="new 0 0 137.144 137.144">
  <g>
    <g>
      <path d="m109.715,0h-82.286c-15.149,0-27.429,12.28-27.429,27.429v82.287c0,15.148 12.28,27.428 27.429,27.428h82.286c15.148,0 27.429-12.28 27.429-27.428v-82.287c0-15.149-12.281-27.429-27.429-27.429zm13.714,102.858c0,11.362-9.21,20.572-20.571,20.572h-68.572c-11.361,0-20.572-9.21-20.572-20.572v-68.572c0-11.361 9.21-20.571 20.572-20.571h68.572c11.361,0 20.571,9.21 20.571,20.571v68.572zm-27.428-54.857c-9.116-13.982-27.429-13.714-27.429-13.714s-24.185-2.607-34.285,13.714c-7.022,11.346-6.857,20.572-6.857,20.572s-1.356,14.525 10.714,22.5c9.481,6.265 16.714,4.928 16.714,4.928s8.544,0.802 13.714-6.857c7.069-10.47 13.714-20.572 13.714-20.572h27.429v-6.857h-7.53c-0.827-3.484-2.531-8.111-6.184-13.714zm-41.143,41.143c-3.787,0-6.857-3.07-6.857-6.857 0-3.788 3.07-6.857 6.857-6.857 3.787,0 6.857,3.07 6.857,6.857 7.10543e-15,3.787-3.07,6.857-6.857,6.857z"/>
    </g>
  </g>
</svg>
