<?xml version='1.0' encoding='iso-8859-1'?>
<svg version="1.1" xmlns="http://www.w3.org/2000/svg" viewBox="0 0 137.144 137.144" xmlns:xlink="http://www.w3.org/1999/xlink" enable-background="new 0 0 137.144 137.144">
  <g>
    <g>
      <path d="M109.715,0H27.429C12.28,0,0,12.28,0,27.428v82.287c0,15.149,12.28,27.429,27.429,27.429h82.286    c15.148,0,27.429-12.28,27.429-27.429V27.428C137.144,12.28,124.864,0,109.715,0z M123.43,102.858    c0,11.362-9.21,20.571-20.572,20.571H34.286c-11.361,0-20.572-9.21-20.572-20.571V34.286c0-11.362,9.21-20.572,20.572-20.572    h68.572c11.361,0,20.572,9.21,20.572,20.572V102.858z M54.858,54.857h-6.857v27.429h6.857V54.857z M102.858,34.286H27.429v68.572    h75.429V82.286h6.857V54.857h-6.857V34.286z M89.144,89.143h-48V48h48V89.143z"/>
    </g>
  </g>
</svg>
