<?xml version='1.0' encoding='iso-8859-1'?>
<svg version="1.1" xmlns="http://www.w3.org/2000/svg" viewBox="0 0 137.145 137.145" xmlns:xlink="http://www.w3.org/1999/xlink" enable-background="new 0 0 137.145 137.145">
  <g>
    <g>
      <path d="m109.716,0h-82.287c-15.148,0-27.429,12.281-27.429,27.429v82.287c0,15.148 12.28,27.429 27.429,27.429h82.286c15.148,0 27.429-12.281 27.429-27.429v-82.287c0-15.148-12.28-27.429-27.428-27.429zm13.714,102.859c0,11.361-9.21,20.571-20.571,20.571h-68.572c-11.362,0-20.572-9.21-20.572-20.571v-68.573c0-11.362 9.21-20.572 20.572-20.572h68.572c11.361,0 20.571,9.21 20.571,20.572v68.573zm-34.286-61.715c0,0-2.76-6.857-10.286-6.857-9.521,0-10.286,6.857-10.286,6.857s-0.765-6.857-10.286-6.857c-6.884,0-10.286,6.857-10.286,6.857l-20.571,34.286c0,0 0.642-0.371 1.527-0.86-0.968,2.387-1.527,4.984-1.527,7.717 0,11.362 9.21,20.572 20.572,20.572 9.755,0 17.882-6.809 19.997-15.921 0.367,1.298 0.574,2.207 0.574,2.207s0.206-0.911 0.572-2.214c2.112,9.116 10.241,15.929 20,15.929 11.362,0 20.571-9.21 20.571-20.572 0-2.732-0.558-5.328-1.525-7.713 0.884,0.487 1.525,0.857 1.525,0.857l-20.571-34.288zm-41.143,54.857c-7.574,0-13.714-6.141-13.714-13.715 0-7.574 6.14-13.714 13.714-13.714 7.574,0 13.714,6.14 13.714,13.714 7.10543e-15,7.575-6.14,13.715-13.714,13.715zm41.143,0c-7.574,0-13.714-6.141-13.714-13.715 0-7.574 6.14-13.714 13.714-13.714 7.574,0 13.714,6.14 13.714,13.714 0.001,7.575-6.14,13.715-13.714,13.715z"/>
    </g>
  </g>
</svg>
