<?xml version='1.0' encoding='iso-8859-1'?>
<svg version="1.1" xmlns="http://www.w3.org/2000/svg" viewBox="0 0 137.144 137.144" xmlns:xlink="http://www.w3.org/1999/xlink" enable-background="new 0 0 137.144 137.144">
  <g>
    <g>
      <path d="m104.573,58.286h-6c-1.207,0-2.223-0.507-3.048-1.524-0.826-1.014-1.238-2.221-1.238-3.618 0-7.111-2.509-13.175-7.524-18.191-5.016-5.015-11.081-7.524-18.191-7.524h-15.429c-7.112,0-13.176,2.509-18.191,7.524-5.016,5.016-7.524,11.08-7.524,18.191v30.856c0,7.111 2.508,13.176 7.524,18.191 5.015,5.016 11.079,7.524 18.191,7.524h30.857c7.11,0 13.174-2.507 18.19-7.524 5.015-5.015 7.524-11.08 7.524-18.191v-20.571c0-1.396-0.509-2.603-1.524-3.619-1.015-1.015-2.221-1.524-3.617-1.524zm-54.947-8.254c1.083-1.353 2.37-2.031 3.86-2.031h16.458c1.489,0 2.776,0.679 3.86,2.031 1.083,1.356 1.626,2.964 1.626,4.825 0,1.864-0.543,3.473-1.626,4.825-1.084,1.356-2.371,2.032-3.86,2.032h-16.458c-1.49,0-2.777-0.677-3.86-2.032-1.085-1.353-1.625-2.961-1.625-4.825 0-1.861 0.54-3.47 1.625-4.825zm37.994,37.08c-1.017,1.355-2.223,2.032-3.619,2.032h-30.858c-1.398,0-2.604-0.676-3.619-2.032-1.016-1.353-1.523-2.963-1.523-4.825 0-1.861 0.507-3.471 1.523-4.826 1.015-1.353 2.222-2.031 3.619-2.031h30.857c1.396,0 2.602,0.678 3.619,2.031 1.015,1.355 1.524,2.965 1.524,4.826 0.001,1.862-0.509,3.472-1.523,4.825zm22.095-87.112h-82.286c-15.149,0-27.429,12.28-27.429,27.429v82.287c0,15.148 12.28,27.429 27.429,27.429h82.286c15.148,0 27.429-12.28 27.429-27.429v-82.287c0-15.149-12.28-27.429-27.429-27.429zm13.715,102.858c0,11.361-9.21,20.572-20.571,20.572h-68.573c-11.362,0-20.572-9.211-20.572-20.572v-68.572c0-11.362 9.21-20.572 20.572-20.572h68.572c11.361,0 20.571,9.21 20.571,20.572v68.572z"/>
    </g>
  </g>
</svg>
