<?xml version='1.0' encoding='iso-8859-1'?>
<svg version="1.1" xmlns="http://www.w3.org/2000/svg" viewBox="0 0 137.145 137.145" xmlns:xlink="http://www.w3.org/1999/xlink" enable-background="new 0 0 137.145 137.145">
  <g>
    <g>
      <path d="m68.572,46.286v15.428l13.715-6.857-13.715-8.571zm0,29.143v15.215l13.715-8.357-13.715-6.858zm0-47.999c-15.148,0-27.429,12.28-27.429,27.428v27.429c0,15.149 12.281,27.429 27.429,27.429 15.148,0 27.429-12.28 27.429-27.429v-27.429c0.001-15.149-12.28-27.428-27.429-27.428zm20.572,31.714l-19.072,9.429 19.072,9.214v9l-27.429,16.072v-27.43l-13.714,6.857v-6.857l13.714-6.857-13.714-6.858v-6.857l13.714,6.857v-27.428l27.429,16.071v8.787zm20.571-59.144h-82.286c-15.148,0-27.429,12.281-27.429,27.429v82.286c0,15.149 12.28,27.429 27.429,27.429h82.286c15.149,0 27.429-12.28 27.429-27.429v-82.286c0-15.148-12.28-27.429-27.429-27.429zm13.715,102.859c0,11.361-9.21,20.572-20.571,20.572h-68.572c-11.361,0-20.572-9.21-20.572-20.572v-68.573c0-11.361 9.21-20.572 20.572-20.572h68.572c11.361,0 20.571,9.21 20.571,20.572v68.573z"/>
    </g>
  </g>
</svg>
