<?xml version='1.0' encoding='iso-8859-1'?>
<svg version="1.1" xmlns="http://www.w3.org/2000/svg" viewBox="0 0 137.145 137.145" xmlns:xlink="http://www.w3.org/1999/xlink" enable-background="new 0 0 137.145 137.145">
  <g>
    <g>
      <path d="m92.681,33.793l-6.259-6.259-10.888,10.888 16.333,16.333 10.85-10.85c0.258,0.232 0.544,0.402 0.785,0.668 7.488,8.273 6.214,30.857 6.214,30.857h6.857c0,0-0.1-24.15-6.857-34.286-4.752-7.128-12.531-7.694-17.035-7.351zm-37.823,7.352c-18.936,0-34.286,15.35-34.286,34.286 0,18.936 15.35,34.286 34.286,34.286 18.936,0 34.286-15.35 34.286-34.286 0-18.936-15.35-34.286-34.286-34.286zm-20.571,34.285c0.428,13.636 6.857,20.572 6.857,20.572s-13.856-5.644-13.715-20.572c0.147-15.5 13.714-20.572 13.714-20.572s-7.397,3.374-6.856,20.572zm75.428-75.43h-82.286c-15.148,0-27.429,12.281-27.429,27.429v82.287c0,15.148 12.28,27.428 27.429,27.428h82.286c15.149,0 27.429-12.28 27.429-27.428v-82.287c0-15.148-12.28-27.429-27.429-27.429zm13.715,102.859c0,11.361-9.21,20.572-20.572,20.572h-68.572c-11.361,0-20.572-9.21-20.572-20.572v-68.572c0-11.362 9.21-20.572 20.572-20.572h68.572c11.361,0 20.572,9.21 20.572,20.572v68.572z"/>
    </g>
  </g>
</svg>
