<?xml version='1.0' encoding='iso-8859-1'?>
<svg version="1.1" xmlns="http://www.w3.org/2000/svg" viewBox="0 0 137.144 137.144" xmlns:xlink="http://www.w3.org/1999/xlink" enable-background="new 0 0 137.144 137.144">
  <g>
    <g>
      <path d="m96.001,41.143c0-7.574-6.14-13.714-13.714-13.714-7.574,0-13.714,6.14-13.714,13.714 0,2.62 0.773,5.044 2.048,7.126l-22.352,22.351c-2.082-1.275-4.506-2.048-7.126-2.048-7.574,0-13.714,6.14-13.714,13.714 0,7.575 6.14,13.714 13.714,13.714 0,7.575 6.14,13.714 13.714,13.714 7.574,0 13.715-6.14 13.715-13.714 0-2.62-0.774-5.044-2.049-7.126l22.351-22.351c2.082,1.275 4.506,2.048 7.126,2.048 7.574,0 13.714-6.14 13.714-13.714s-6.139-13.714-13.713-13.714zm13.714-41.143h-82.286c-15.149,0-27.429,12.28-27.429,27.429v82.286c0,15.148 12.28,27.429 27.429,27.429h82.286c15.149,0 27.429-12.28 27.429-27.429v-82.286c0-15.149-12.28-27.429-27.429-27.429zm13.715,102.858c0,11.362-9.211,20.572-20.572,20.572h-68.572c-11.361,0-20.571-9.21-20.571-20.572v-68.572c0-11.361 9.211-20.571 20.571-20.571h68.572c11.361,0 20.572,9.21 20.572,20.571v68.572z"/>
    </g>
  </g>
</svg>
