<?xml version='1.0' encoding='iso-8859-1'?>
<svg version="1.1" xmlns="http://www.w3.org/2000/svg" viewBox="0 0 137.145 137.145" xmlns:xlink="http://www.w3.org/1999/xlink" enable-background="new 0 0 137.145 137.145">
  <g>
    <g>
      <path d="M75.43,109.716l34.286-20.572V50.358L75.43,75.43V109.716z M27.429,89.144l41.143,20.572V75.43l-41.143-19.5V89.144z     M109.715,0H27.429C12.281,0,0,12.281,0,27.429v82.287c0,15.148,12.28,27.429,27.429,27.429h82.286    c15.149,0,27.429-12.28,27.429-27.429V27.429C137.144,12.281,124.864,0,109.715,0z M123.43,102.858    c0,11.361-9.21,20.572-20.572,20.572H34.286c-11.361,0-20.572-9.211-20.572-20.572V34.286c0-11.361,9.21-20.572,20.572-20.572    h68.572c11.361,0,20.572,9.211,20.572,20.572V102.858z M27.429,48.001l44.572,20.572l37.715-27.429L65.144,27.215L27.429,48.001z"/>
    </g>
  </g>
</svg>
