<?xml version='1.0' encoding='iso-8859-1'?>
<svg version="1.1" xmlns="http://www.w3.org/2000/svg" viewBox="0 0 137.145 137.145" xmlns:xlink="http://www.w3.org/1999/xlink" enable-background="new 0 0 137.145 137.145">
  <g>
    <g>
      <path d="M89.144,41.144H61.716v13.715h27.429V41.144z M54.858,41.144H27.429v13.715h27.429V41.144z M41.144,61.716H27.429V75.43    h13.714V61.716z M48.001,75.43H75.43V61.716H48.001V75.43z M27.429,96.002h27.429V82.288H27.429V96.002z M82.287,75.43h27.429    V61.716H82.287V75.43z M96.001,54.858h13.714V41.144H96.001V54.858z M109.715,0H27.429C12.281,0,0,12.281,0,27.429v82.287    c0,15.148,12.28,27.429,27.429,27.429h82.286c15.149,0,27.429-12.28,27.429-27.429V27.429C137.144,12.281,124.864,0,109.715,0z     M123.43,102.858c0,11.361-9.21,20.572-20.571,20.572H34.286c-11.361,0-20.572-9.211-20.572-20.572V34.286    c0-11.361,9.21-20.572,20.572-20.572h68.572c11.361,0,20.571,9.211,20.571,20.572V102.858z M96.001,96.002h13.714V82.288H96.001    V96.002z M61.716,96.002h27.429V82.288H61.716V96.002z"/>
    </g>
  </g>
</svg>
