<?xml version='1.0' encoding='iso-8859-1'?>
<svg version="1.1" xmlns="http://www.w3.org/2000/svg" viewBox="0 0 137.145 137.145" xmlns:xlink="http://www.w3.org/1999/xlink" enable-background="new 0 0 137.145 137.145">
  <g>
    <g>
      <path d="m34.286,75.429c0.015,0.193 0.008,0.21 0.011,0.312 0.181,0.036 0.309,0.004-0.011-0.312zm-13.676-12.736c0,0 7.327,3.813 13.676,5.88-0.006-1.232 1.098,0.357 0,0 0.025,4.784-0.229,3.819 0,6.857 4.131,0.257 0.413,0.262 6.857,0 0.447-0.018-0.386,3.338 0,6.858 4.115,0.149 1.599,0.128 6.857,0-0.397-0.222-0.188-0.238 0.041-0.199 0.085-0.462 0.167-0.211 0.129,0.033 0.185,0.057 0.303,0.137-0.065,0.16 0.034-0.03 0.054-0.089 0.065-0.16-0.053-0.017-0.072-0.024-0.129-0.033-0.014,0.075-0.028,0.074-0.041,0.199-0.187,1.781-0.352,6.447 0,6.857 0.086,0.005 1.32,0.197 6.857,0 0.483-0.017-0.732,3.601 0,6.857 1.297-0.104 5.046-0.24 6.857,0 0.301,0.04-0.542,6.872 0,6.857 3.122-0.083 5.258-0.036 6.857,0 2.168,5.447 5.879,13.676 5.879,13.676l14.684-24.473-44.051-44.053-24.473,14.684zm13.687,13.049c-0.022-0.004-0.037-0.003-0.06-0.01 0.025,0.276 0.074,0.444 0.06,0.01zm20.561,20.259c-1.107,0.089 0.086,0.386 0,0zm-13.715-13.714c-1.139-0.042 0.128,1.163 0,0zm49.449-49.936l-12.078,12.078-9.467-9.467-14.201,4.734 42.604,42.604 4.734-14.202-9.467-9.467 12.078-12.078c0,0 9.269-9.665 2.367-16.568-6.856-6.854-16.57,2.366-16.57,2.366zm11.228,7.607c-1.339,1.339-3.51,1.339-4.849,0-1.339-1.339-1.339-3.51 0-4.849 1.339-1.339 3.51-1.339 4.849,0 1.339,1.339 1.339,3.51 0,4.849zm-67.575,35.471c-0.659-0.031-0.301,0.216-0.008,0.303-0.013-0.137-0.017-0.266 0.008-0.303zm75.471-75.429h-82.287c-15.148,0-27.429,12.281-27.429,27.429v82.288c0,15.148 12.28,27.428 27.429,27.428h82.286c15.149,0 27.429-12.28 27.429-27.428v-82.288c0-15.148-12.28-27.429-27.428-27.429zm13.714,102.859c0,11.361-9.21,20.571-20.572,20.571h-68.572c-11.361,0-20.571-9.21-20.571-20.571v-68.573c0-11.361 9.21-20.572 20.571-20.572h68.572c11.362,0 20.572,9.211 20.572,20.572v68.573z"/>
    </g>
  </g>
</svg>
