<?xml version='1.0' encoding='iso-8859-1'?>
<svg version="1.1" xmlns="http://www.w3.org/2000/svg" viewBox="0 0 137.144 137.144" xmlns:xlink="http://www.w3.org/1999/xlink" enable-background="new 0 0 137.144 137.144">
  <g>
    <g>
      <path d="m109.715,0h-82.286c-15.149,0-27.429,12.28-27.429,27.429v82.286c0,15.148 12.28,27.429 27.429,27.429h82.286c15.149,0 27.429-12.28 27.429-27.429v-82.286c0-15.149-12.28-27.429-27.429-27.429zm13.714,102.858c0,11.362-9.21,20.572-20.572,20.572h-68.571c-11.361,0-20.571-9.21-20.571-20.572v-68.572c0-11.361 9.21-20.571 20.571-20.571h68.572c11.361,0 20.572,9.21 20.572,20.571v68.572zm-13.715-41.144c-0.215-10.052-9.298-13.589-13.715-13.714-8.722-0.247-15.628,3.122-20.571,6.857-0.499,0.032-1.175,0.021-1.742,0.037l11.413-15.217c1.146,0.861 2.5,1.466 4.044,1.466 3.787,0 6.857-3.07 6.857-6.857 0-3.787-3.07-6.857-6.857-6.857s-6.857,3.07-6.857,6.857l-13.716,18.286-13.714-18.286c0-3.787-3.07-6.857-6.857-6.857-3.787,0-6.857,3.07-6.857,6.857 0,3.787 3.07,6.857 6.857,6.857 1.544,0 2.897-0.605 4.044-1.466l11.408,15.212c-0.595-0.014-1.135-0.016-1.738-0.032-4.943-3.735-15.486-6.857-20.571-6.857-2.913,0-13.714,3.876-13.714,13.714 0,9.005 5.931,16.846 13.714,20.572-4.412,3.116-6.857,8.007-6.857,13.714 0,9.468 6.915,13.714 16.653,13.714 9.738,0 17.633-7.675 17.633-17.143 0,9.468 7.895,17.143 17.633,17.143 9.738,0 16.653-4.246 16.653-13.714 0-5.707-2.446-10.598-6.857-13.714 7.783-3.726 13.906-11.569 13.714-20.572zm-75.429,0c0-3.787 3.07-6.857 6.857-6.857s6.857,3.07 6.857,6.857-3.07,6.857-6.857,6.857-6.857-3.069-6.857-6.857zm13.714,41.144c-3.787,0-6.857-3.071-6.857-6.857 0-3.787 3.07-6.857 6.857-6.857 3.787,0 6.857,3.07 6.857,6.857 0,3.786-3.07,6.857-6.857,6.857zm41.143,0c-3.787,0-6.857-3.071-6.857-6.857 0-3.787 3.07-6.857 6.857-6.857s6.857,3.069 6.857,6.856c0,3.787-3.07,6.858-6.857,6.858zm6.857-34.286c-3.787,0-6.857-3.07-6.857-6.857s3.07-6.857 6.857-6.857c3.787,0 6.857,3.07 6.857,6.857s-3.069,6.857-6.857,6.857z"/>
    </g>
  </g>
</svg>
