<?xml version='1.0' encoding='iso-8859-1'?>
<svg version="1.1" xmlns="http://www.w3.org/2000/svg" viewBox="0 0 137.145 137.145" xmlns:xlink="http://www.w3.org/1999/xlink" enable-background="new 0 0 137.145 137.145">
  <g>
    <g>
      <path d="m34.286,109.715h68.572v-82.286h-68.572v82.286zm34.286-13.714c-3.787,0-6.857-3.07-6.857-6.857 0-3.787 3.07-6.857 6.857-6.857s6.857,3.07 6.857,6.857c0,3.787-3.07,6.857-6.857,6.857zm0-20.572c-3.787,0-6.857-3.07-6.857-6.857 0-3.786 3.07-6.857 6.857-6.857s6.857,3.071 6.857,6.857c0,3.787-3.07,6.857-6.857,6.857zm20.572,20.572c-3.787,0-6.857-3.07-6.857-6.857 0-3.787 3.07-6.857 6.857-6.857 3.787,0 6.857,3.07 6.857,6.857 0,3.787-3.07,6.857-6.857,6.857zm0-20.572c-3.787,0-6.857-3.07-6.857-6.857 0-3.786 3.07-6.857 6.857-6.857 3.787,0 6.857,3.071 6.857,6.857 0,3.787-3.07,6.857-6.857,6.857zm-48.001-34.286h54.858v13.714h-54.858v-13.714zm6.857,20.571c3.787,0 6.857,3.071 6.857,6.857 0,3.788-3.07,6.857-6.857,6.857-3.787,0-6.857-3.07-6.857-6.857 0-3.786 3.07-6.857 6.857-6.857zm0,20.572c3.787,0 6.857,3.07 6.857,6.857 0,3.787-3.07,6.857-6.857,6.857-3.787,0-6.857-3.07-6.857-6.857 0-3.787 3.07-6.857 6.857-6.857zm61.715-82.286h-82.286c-15.148,0-27.429,12.28-27.429,27.429v82.286c0,15.149 12.28,27.429 27.429,27.429h82.286c15.149,0 27.429-12.28 27.429-27.429v-82.286c0-15.149-12.28-27.429-27.429-27.429zm13.715,102.858c0,11.361-9.21,20.571-20.571,20.571h-68.573c-11.361,0-20.572-9.21-20.572-20.571v-68.572c0-11.361 9.21-20.571 20.572-20.571h68.572c11.361,0 20.571,9.21 20.571,20.571v68.572z"/>
    </g>
  </g>
</svg>
