<?xml version='1.0' encoding='iso-8859-1'?>
<svg version="1.1" xmlns="http://www.w3.org/2000/svg" viewBox="0 0 137.144 137.144" xmlns:xlink="http://www.w3.org/1999/xlink" enable-background="new 0 0 137.144 137.144">
  <g>
    <g>
      <path d="m58.341,95.889l10.231-10.23 10.23,10.23 10.23-10.23-10.23-10.23 10.23-10.231-10.23-10.231-10.23,10.231-10.231-10.23-10.23,10.231 10.23,10.231-10.23,10.23 10.23,10.229zm44.517-68.461h-6.857v6.857h-6.857v-6.857h-6.858v6.857h-6.857v-6.857h-6.857v6.857h-6.857v-6.857h-6.858v6.857h-6.857v-6.857h-6.857v6.857h-13.714v75.429h82.286v-75.429h-6.857v-6.857zm0,75.429h-68.572v-54.857h68.572v54.857zm6.857-102.857h-82.286c-15.149,0-27.429,12.28-27.429,27.429v82.286c0,15.149 12.28,27.429 27.429,27.429h82.286c15.149,0 27.429-12.28 27.429-27.429v-82.286c0-15.149-12.28-27.429-27.429-27.429zm13.715,102.858c0,11.361-9.21,20.572-20.571,20.572h-68.573c-11.361,0-20.572-9.21-20.572-20.572v-68.572c0-11.362 9.21-20.572 20.572-20.572h68.572c11.361,0 20.571,9.21 20.571,20.572v68.572z"/>
    </g>
  </g>
</svg>
