<?xml version='1.0' encoding='iso-8859-1'?>
<svg version="1.1" xmlns="http://www.w3.org/2000/svg" viewBox="0 0 137.144 137.144" xmlns:xlink="http://www.w3.org/1999/xlink" enable-background="new 0 0 137.144 137.144">
  <g>
    <g>
      <path d="M89.144,68.572H48v13.714h41.144V68.572z M109.715,0H27.429C12.28,0,0,12.28,0,27.429v82.286    c0,15.149,12.28,27.429,27.429,27.429h82.286c15.149,0,27.429-12.28,27.429-27.429V27.429C137.144,12.28,124.864,0,109.715,0z     M123.43,102.858c0,11.361-9.21,20.572-20.571,20.572H34.286c-11.361,0-20.572-9.21-20.572-20.572V34.286    c0-11.362,9.21-20.572,20.572-20.572h68.572c11.361,0,20.571,9.21,20.571,20.572V102.858z M102.858,27.428h-6.857v6.857h-6.857    v-6.857h-6.857v6.857h-6.857v-6.857h-6.857v6.857h-6.857v-6.857h-6.857v6.857H48v-6.857h-6.857v6.857H27.429v75.429h82.286V34.285    h-6.857V27.428z M102.858,102.857H34.286V48h68.572V102.857z"/>
    </g>
  </g>
</svg>
