<?xml version='1.0' encoding='iso-8859-1'?>
<svg version="1.1" xmlns="http://www.w3.org/2000/svg" viewBox="0 0 137.144 137.144" xmlns:xlink="http://www.w3.org/1999/xlink" enable-background="new 0 0 137.144 137.144">
  <g>
    <g>
      <path d="M61.714,96.001h13.715V82.286h13.714V68.572H75.429V54.857H61.714v13.714H48v13.714h13.714V96.001z M109.715,0H27.429    C12.28,0,0,12.28,0,27.429v82.286c0,15.149,12.28,27.429,27.429,27.429h82.286c15.148,0,27.429-12.28,27.429-27.429V27.429    C137.144,12.28,124.864,0,109.715,0z M123.43,102.858c0,11.361-9.21,20.572-20.571,20.572H34.286    c-11.362,0-20.572-9.21-20.572-20.572V34.286c0-11.362,9.21-20.572,20.572-20.572h68.572c11.361,0,20.571,9.21,20.571,20.572    V102.858z M102.858,27.428h-6.857v6.857h-6.857v-6.857h-6.857v6.857h-6.857v-6.857h-6.857v6.857h-6.857v-6.857h-6.857v6.857H48    v-6.857h-6.858v6.857H27.429v75.429h82.286l0-75.429h-6.857V27.428z M102.858,102.857H34.286V48h68.572V102.857z"/>
    </g>
  </g>
</svg>
