<?xml version='1.0' encoding='iso-8859-1'?>
<svg version="1.1" xmlns="http://www.w3.org/2000/svg" viewBox="0 0 137.144 137.144" xmlns:xlink="http://www.w3.org/1999/xlink" enable-background="new 0 0 137.144 137.144">
  <g>
    <g>
      <path d="m48.001,27.429c-11.361,0-20.572,9.21-20.572,20.571 0,6.069 2.677,11.467 6.857,15.233v46.482h20.572v-20.571l6.857-6.858h13.714v-48h-12.195c-3.766-4.18-9.164-6.857-15.233-6.857zm0,34.286c-7.574,0-13.714-6.14-13.714-13.715 0-7.574 6.14-13.714 13.714-13.714 7.574,0 13.714,6.14 13.714,13.714 7.10543e-15,7.575-6.14,13.715-13.714,13.715zm13.714,48.001h13.714v-20.572h-13.714v20.572zm20.572-34.287h27.429v-27.429h-27.429v27.429zm27.428-75.429h-82.286c-15.149,0-27.429,12.28-27.429,27.429v82.286c0,15.149 12.28,27.429 27.429,27.429h82.286c15.149,0 27.429-12.28 27.429-27.429v-82.286c0-15.149-12.28-27.429-27.429-27.429zm13.715,102.858c0,11.362-9.21,20.571-20.571,20.571h-68.573c-11.362,0-20.572-9.209-20.572-20.571v-68.572c0-11.362 9.21-20.572 20.572-20.572h68.572c11.361,0 20.571,9.21 20.571,20.572v68.572z"/>
    </g>
  </g>
</svg>
