<?xml version='1.0' encoding='iso-8859-1'?>
<svg version="1.1" xmlns="http://www.w3.org/2000/svg" viewBox="0 0 137.144 137.144" xmlns:xlink="http://www.w3.org/1999/xlink" enable-background="new 0 0 137.144 137.144">
  <g>
    <g>
      <path d="M41.143,48h-6.857v13.714h6.857V48z M48,61.714h41.143V34.285c0,0,0.998-13.714-20.572-13.714    C46.002,20.571,48,34.285,48,34.285V61.714z M102.858,48h-6.857v13.714h6.857V48z M75.429,109.715V96H61.714v13.714h-6.857    L48,116.572h41.143l-6.857-6.858H75.429z M102.843,82.323c0.009,0.351,0.017,0.447,0.014-0.037    C102.858,82.3,102.843,82.309,102.843,82.323z M109.715,0H27.429C12.28,0,0,12.28,0,27.429v82.286    c0,15.149,12.28,27.429,27.429,27.429h82.286c15.148,0,27.429-12.28,27.429-27.429V27.429C137.144,12.28,124.863,0,109.715,0z     M123.429,102.858c0,11.362-9.21,20.572-20.572,20.572H34.286c-11.361,0-20.571-9.21-20.571-20.572V34.285    c0-11.361,9.21-20.571,20.571-20.571h68.572c11.361,0,20.572,9.21,20.572,20.571V102.858z M102.858,75.428    c0.095-4.28-13.714-6.857-13.714-6.857H48c0,0-13.795,1.479-13.714,6.857c0.075,4.966,0,6.858,0,6.858s-1.353,6.973,34.286,6.857    c18.886-0.061,34.222-1.566,34.272-6.82C102.821,81.467,102.787,78.606,102.858,75.428z"/>
    </g>
  </g>
</svg>
