<?xml version='1.0' encoding='iso-8859-1'?>
<svg version="1.1" xmlns="http://www.w3.org/2000/svg" viewBox="0 0 137.144 137.144" xmlns:xlink="http://www.w3.org/1999/xlink" enable-background="new 0 0 137.144 137.144">
  <g>
    <g>
      <path d="M109.715,0H27.429C12.28,0,0,12.28,0,27.429v82.286c0,15.149,12.28,27.429,27.429,27.429h82.286    c15.148,0,27.429-12.28,27.429-27.429V27.429C137.144,12.28,124.864,0,109.715,0z M123.43,102.858    c0,11.361-9.21,20.572-20.571,20.572H34.286c-11.361,0-20.572-9.21-20.572-20.572V34.286c0-11.362,9.21-20.572,20.572-20.572    h68.572c11.361,0,20.571,9.21,20.571,20.572V102.858z M82.287,27.428H54.858v6.857H34.287v75.429h68.571V34.285H82.287V27.428z     M96.001,41.143v61.714H41.143V41.143h13.715V48h27.429v-6.857H96.001z"/>
    </g>
  </g>
</svg>
