<?xml version='1.0' encoding='iso-8859-1'?>
<svg version="1.1" xmlns="http://www.w3.org/2000/svg" viewBox="0 0 137.144 137.144" xmlns:xlink="http://www.w3.org/1999/xlink" enable-background="new 0 0 137.144 137.144">
  <g>
    <g>
      <path d="m89.144,48c-2.571,0-5.744,0.726-8.825,1.966 1.221-3.088 1.968-6.263 1.968-8.824 0-7.574-6.14-13.714-13.714-13.714-7.574,0-13.714,6.14-13.714,13.714 0,2.561 0.747,5.736 1.968,8.824-3.082-1.24-6.255-1.966-8.826-1.966-7.574,0-13.715,6.14-13.715,13.714s6.14,13.715 13.715,13.715c4.034,0 9.562-1.774 13.89-4.546 0.031,6.452 0.009,13.453-0.176,18.26-0.48,12.471-6.857,20.571-6.857,20.571h27.429c0,0-6.988-9.26-6.857-20.571 0.064-5.551 0.076-12.145 0.068-18.092 4.29,2.679 9.692,4.377 13.647,4.377 7.574,0 13.714-6.141 13.714-13.715s-6.141-13.713-13.715-13.713zm20.571-48h-82.286c-15.149,0-27.429,12.28-27.429,27.429v82.287c0,15.148 12.28,27.429 27.429,27.429h82.286c15.148,0 27.429-12.28 27.429-27.429v-82.287c0-15.149-12.28-27.429-27.429-27.429zm13.715,102.858c0,11.361-9.21,20.572-20.572,20.572h-68.572c-11.361,0-20.572-9.211-20.572-20.572v-68.572c0-11.361 9.21-20.572 20.572-20.572h68.572c11.361,0 20.572,9.21 20.572,20.572v68.572z"/>
    </g>
  </g>
</svg>
