<?xml version='1.0' encoding='iso-8859-1'?>
<svg version="1.1" xmlns="http://www.w3.org/2000/svg" viewBox="0 0 137.144 137.144" xmlns:xlink="http://www.w3.org/1999/xlink" enable-background="new 0 0 137.144 137.144">
  <g>
    <g>
      <path d="M89.144,34.285H27.429v6.857h61.715V34.285z M89.144,48H27.429v34.286c0,0,0.541,20.909,34.286,20.572    c25.532-0.255,27.429-20.572,27.429-20.572V54.857c0,0,13.714,1.36,13.714,13.714c0,10.569-13.714,13.714-13.714,13.714v6.857    c0,0,20.465-0.909,20.572-20.572C109.816,50.188,89.144,48,89.144,48z M109.715,0H27.429C12.28,0,0,12.28,0,27.428v82.286    c0,15.149,12.28,27.429,27.429,27.429h82.286c15.149,0,27.429-12.281,27.429-27.429V27.428C137.144,12.28,124.864,0,109.715,0z     M123.43,102.858c0,11.361-9.21,20.571-20.571,20.571H34.286c-11.361,0-20.572-9.211-20.572-20.571V34.285    c0-11.361,9.21-20.572,20.572-20.572h68.572c11.361,0,20.571,9.21,20.571,20.572V102.858z"/>
    </g>
  </g>
</svg>
