<?xml version='1.0' encoding='iso-8859-1'?>
<svg version="1.1" xmlns="http://www.w3.org/2000/svg" viewBox="0 0 137.145 137.145" xmlns:xlink="http://www.w3.org/1999/xlink" enable-background="new 0 0 137.145 137.145">
  <g>
    <g>
      <path d="m96.001,54.858c7.574,0 13.714-6.14 13.714-13.715 0-7.574-6.14-13.714-13.714-13.714-7.574,0-13.715,6.141-13.715,13.714v6.857h-27.43v-6.857c0-7.574-6.14-13.714-13.714-13.714-7.574,0-13.715,6.141-13.715,13.714 0,7.575 6.14,13.715 13.715,13.715 2.511,0 0.976-0.107 6.857,0v27.429h-6.857c-7.574,0-13.715,6.14-13.715,13.714 0,7.574 6.14,13.714 13.715,13.714 7.574,0 13.714-6.14 13.714-13.714v-6.857h27.43v6.856c0,0 0,0.001 0,0.001 0,7.574 6.14,13.714 13.715,13.714 7.574,0 13.714-6.14 13.714-13.714 0-7.575-6.14-13.714-13.714-13.714-2.511,0 0.953,0.107-6.857,0v-27.429c5.239,0.107 4.346,0 6.857,0zm0-20.572c3.787,0 6.857,3.07 6.857,6.856 0,3.787-3.07,6.857-6.857,6.857-3.788,0-6.857-3.07-6.857-6.857 0-3.786 3.07-6.856 6.857-6.856zm-54.858,13.714c-3.787,0-6.857-3.07-6.857-6.857 0-3.787 3.07-6.856 6.857-6.856s6.857,3.069 6.857,6.856c0,3.787-3.069,6.857-6.857,6.857zm0,54.858c-3.787,0-6.857-3.07-6.857-6.857 0-3.787 3.07-6.857 6.857-6.857s6.857,3.07 6.857,6.857c0,3.787-3.069,6.857-6.857,6.857zm41.144-20.571h-27.43v-27.429h27.43v27.429zm13.714,6.857c3.787,0 6.857,3.07 6.857,6.857 0,3.787-3.07,6.857-6.857,6.857-3.788,0-6.857-3.07-6.857-6.857 0-3.787 3.07-6.857 6.857-6.857zm13.714-89.144h-82.286c-15.148,0-27.429,12.281-27.429,27.428v82.287c0,15.148 12.28,27.429 27.429,27.429h82.286c15.149,0 27.429-12.281 27.429-27.429v-82.287c0-15.147-12.28-27.428-27.429-27.428zm13.715,102.858c0,11.361-9.21,20.572-20.572,20.572h-68.572c-11.361,0-20.572-9.211-20.572-20.572v-68.572c0-11.361 9.21-20.572 20.572-20.572h68.572c11.361,0 20.572,9.211 20.572,20.572v68.572z"/>
    </g>
  </g>
</svg>
