<?xml version='1.0' encoding='iso-8859-1'?>
<svg version="1.1" xmlns="http://www.w3.org/2000/svg" viewBox="0 0 137.144 137.144" xmlns:xlink="http://www.w3.org/1999/xlink" enable-background="new 0 0 137.144 137.144">
  <g>
    <g>
      <path d="m109.715,0h-82.286c-15.149,0-27.429,12.28-27.429,27.429v82.287c0,15.148 12.28,27.429 27.429,27.429h82.286c15.149,0 27.429-12.28 27.429-27.429v-82.287c0-15.149-12.28-27.429-27.429-27.429zm13.715,102.858c0,11.362-9.21,20.571-20.572,20.571h-68.572c-11.361,0-20.572-9.21-20.572-20.571v-68.572c0-11.361 9.21-20.572 20.572-20.572h68.572c11.361,0 20.572,9.21 20.572,20.572v68.572zm-44.572-75.429h-21l-5.786,13.5h32.786l-6-13.5zm19.072,54.859h-58.715l-4.929,13.714h-6.857v6.857h82.286v-6.857h-6.857l-4.928-13.714zm-9-27.429h-40.929l-4.928,13.714h50.786l-4.929-13.714z"/>
    </g>
  </g>
</svg>
