<?xml version='1.0' encoding='iso-8859-1'?>
<svg version="1.1" xmlns="http://www.w3.org/2000/svg" viewBox="0 0 137.144 137.144" xmlns:xlink="http://www.w3.org/1999/xlink" enable-background="new 0 0 137.144 137.144">
  <g>
    <g>
      <path d="M109.715,0H27.429C12.28,0,0,12.281,0,27.429v82.286c0,15.149,12.28,27.429,27.429,27.429h82.286    c15.148,0,27.429-12.28,27.429-27.429V27.429C137.144,12.281,124.864,0,109.715,0z M123.43,102.858    c0,11.361-9.21,20.572-20.572,20.572H34.286c-11.361,0-20.571-9.21-20.571-20.572V34.286c0-11.361,9.21-20.572,20.571-20.572    h68.572c11.362,0,20.572,9.21,20.572,20.572V102.858z"/>
    </g>
  </g>
  <g>
    <g>
      <path d="m102.858,89.837v-42.528c3.975-1.422 6.857-5.129 6.857-9.594 0-5.681-4.605-10.286-10.286-10.286-5.681,0-10.286,4.605-10.286,10.286 0,2.565 1.021,4.813 2.585,6.589l-50.585,45.526v-42.521c3.976-1.422 6.857-5.13 6.857-9.594 0-5.681-4.605-10.286-10.286-10.286-5.68,0-10.286,4.605-10.286,10.286 0,4.464 2.882,8.171 6.857,9.594v42.528c-3.975,1.422-6.857,5.129-6.857,9.594 0,5.68 4.605,10.285 10.286,10.285 5.681,0 10.286-4.605 10.286-10.285 0-2.565-1.021-4.814-2.584-6.589l50.585-45.526v42.521c-3.975,1.422-6.857,5.129-6.857,9.594 0,5.68 4.605,10.285 10.286,10.285 5.681,0 10.286-4.605 10.286-10.285-0.001-4.465-2.882-8.172-6.858-9.594z"/>
    </g>
  </g>
</svg>
