<?xml version='1.0' encoding='iso-8859-1'?>
<svg version="1.1" xmlns="http://www.w3.org/2000/svg" viewBox="0 0 137.144 137.144" xmlns:xlink="http://www.w3.org/1999/xlink" enable-background="new 0 0 137.144 137.144">
  <g>
    <g>
      <path d="m109.715,0h-82.286c-15.149,0-27.429,12.28-27.429,27.429v82.286c0,15.149 12.28,27.429 27.429,27.429h82.286c15.148,0 27.429-12.28 27.429-27.429v-82.286c0-15.149-12.28-27.429-27.429-27.429zm13.715,102.858c0,11.362-9.21,20.572-20.572,20.572h-68.572c-11.361,0-20.572-9.21-20.572-20.572v-68.572c0-11.362 9.21-20.572 20.572-20.572h68.572c11.361,0 20.572,9.21 20.572,20.572v68.572zm-54.858-75.43c-22.723,3.55271e-15-41.144,18.421-41.144,41.144 0,22.723 18.421,41.143 41.144,41.143 22.723,0 41.143-18.42 41.143-41.143 0-22.723-18.42-41.144-41.143-41.144zm0,75.43c-18.936,0-34.286-15.35-34.286-34.285 0-18.936 15.35-34.287 34.286-34.287-0.009-0.975 1.306,0 0,0 0.159,16.92 0,16.657 0,34.287 0,17.439-0.174,2.975 0,34.285 1.497,0 0.006,1.068 0,0z"/>
    </g>
  </g>
</svg>
