<?xml version='1.0' encoding='iso-8859-1'?>
<svg version="1.1" xmlns="http://www.w3.org/2000/svg" viewBox="0 0 137.145 137.145" xmlns:xlink="http://www.w3.org/1999/xlink" enable-background="new 0 0 137.145 137.145">
  <g>
    <g>
      <path d="m109.715,61.714h-41.142v6.857h41.143v-6.857zm-.001,20.572h-41.142v6.857h41.143v-6.857zm-54.858-20.572h-27.429v27.429h27.429v-27.429zm54.857-61.714h-82.286c-15.148,0-27.429,12.28-27.429,27.429v82.287c0,15.148 12.28,27.429 27.429,27.429h82.286c15.149,0 27.429-12.281 27.429-27.429v-82.287c0-15.149-12.28-27.429-27.429-27.429zm13.715,34.287c0-2.408-0.435-4.71-1.196-6.858h-107.324c-0.76,2.145-1.194,4.444-1.195,6.849v13.722h109.715v6.857 48c0,11.362-9.21,20.572-20.571,20.572h-68.573c-11.361,0-20.572-9.21-20.572-20.572v-68.571c0-0.002 0-0.005 0-0.007v-6.849h1.195c2.827-7.985 10.423-13.715 19.376-13.715h68.572c8.953,0 16.549,5.73 19.376,13.715h1.196v6.857zm-13.714,68.571h-82.286v6.857h82.286v-6.857z"/>
    </g>
  </g>
</svg>
