<?xml version='1.0' encoding='iso-8859-1'?>
<svg version="1.1" xmlns="http://www.w3.org/2000/svg" viewBox="0 0 137.145 137.145" xmlns:xlink="http://www.w3.org/1999/xlink" enable-background="new 0 0 137.145 137.145">
  <g>
    <g>
      <path d="M109.715,0H27.429C12.281,0,0,12.281,0,27.428v82.287c0,15.148,12.28,27.429,27.429,27.429h82.286    c15.149,0,27.429-12.281,27.429-27.429V27.428C137.144,12.281,124.864,0,109.715,0z M123.43,102.858    c0,11.361-9.21,20.572-20.571,20.572H34.286c-11.361,0-20.572-9.211-20.572-20.572V34.286c0-11.361,9.21-20.572,20.572-20.572    h68.572c11.361,0,20.571,9.211,20.571,20.572V102.858z M109.716,34.286l-6.857-6.858L89.144,41.143H54.858V27.429H41.144v13.715    H27.429v13.714h13.714v41.144h41.143v13.714h13.714V96.001h13.714V82.287H96.001V48L109.716,34.286z M54.858,54.858H75.43    L54.858,75.43V54.858z M82.287,82.287H61.715l20.572-20.572V82.287z"/>
    </g>
  </g>
</svg>
