<?xml version='1.0' encoding='iso-8859-1'?>
<svg version="1.1" xmlns="http://www.w3.org/2000/svg" viewBox="0 0 137.145 137.145" xmlns:xlink="http://www.w3.org/1999/xlink" enable-background="new 0 0 137.145 137.145">
  <g>
    <g>
      <path d="m109.715,0h-82.286c-15.148,0-27.429,12.281-27.429,27.429v82.286c0,15.149 12.28,27.429 27.429,27.429h82.286c15.149,0 27.429-12.28 27.429-27.429v-82.286c0-15.148-12.28-27.429-27.429-27.429zm13.715,102.859c0,11.361-9.21,20.572-20.572,20.572h-68.572c-11.361,0-20.572-9.21-20.572-20.572v-68.573c0-11.361 9.21-20.572 20.572-20.572h68.572c11.361,0 20.572,9.21 20.572,20.572v68.573zm-13.714-68.573c-3.787,0-6.857,3.07-6.857,6.857l-20.572,20.572-11.176-27.941c2.526-1.012 4.319-3.458 4.319-6.344 0-3.788-3.07-6.858-6.857-6.858-3.787,0-6.857,3.07-6.857,6.858 0,2.886 1.794,5.333 4.319,6.344l-11.177,27.941-20.572-20.571c0-3.788-3.07-6.857-6.857-6.857s-6.857,3.07-6.857,6.857c0,3.787 3.07,6.857 6.857,6.857 0.848,0 1.656-0.161 2.406-0.442l18.166,48.442h-6.857l-6.857,13.714h68.572l-6.857-13.714h-6.857l18.166-48.442c0.749,0.281 1.558,0.442 2.406,0.442 3.787,0 6.857-3.07 6.857-6.857-0.001-3.788-3.071-6.858-6.858-6.858zm-41.144,54.858c-3.787,0-6.857-3.07-6.857-6.857 0-3.787 3.07-6.857 6.857-6.857 3.787,0 6.857,3.07 6.857,6.857 0.001,3.787-3.069,6.857-6.857,6.857z"/>
    </g>
  </g>
</svg>
