<?xml version='1.0' encoding='iso-8859-1'?>
<svg version="1.1" xmlns="http://www.w3.org/2000/svg" viewBox="0 0 137.145 137.145" xmlns:xlink="http://www.w3.org/1999/xlink" enable-background="new 0 0 137.145 137.145">
  <g>
    <g>
      <path d="m108.059,63.833l-38.237,8.652 10.417-43.423c1.865-7.708 2.017-8.337 2.017-8.337-4.158-1.234-16.996,5.212-20.1,16.374l-5.04,38.261-12.648,2.862c-3.147-2.43-7.985-3.49-13.025-2.24-7.386,1.832-12.114,7.674-10.559,13.047 1.555,5.375 8.804,8.245 16.19,6.412 4.422-1.098 7.855-3.643 9.593-6.653l8.8-.916-.358,2.717c-2.943,1.767-5.426,5.152-6.504,9.505-1.831,7.392 1.037,14.645 6.407,16.202 5.37,1.556 11.207-3.175 13.039-10.566 1.366-5.516 0.107-10.944-2.847-13.996l1.199-5.001 33.622-3.502c11.154-3.33 17.596-17.102 16.363-21.562 0.002,0-0.626,0.164-8.329,2.164zm-72.52,26.301c-4.221,1.047-8.216-0.084-8.922-2.527-0.707-2.443 2.142-5.271 6.363-6.318 4.221-1.048 8.216,0.083 8.922,2.526 0.707,2.442-2.142,5.271-6.363,6.319zm27.21,14.057c-1.047,4.224-3.873,7.075-6.314,6.367-2.441-0.707-3.571-4.705-2.525-8.929 1.047-4.223 3.873-7.074 6.314-6.366 2.441,0.707 3.571,4.705 2.525,8.928zm46.967-104.191h-82.287c-15.148,0-27.429,12.281-27.429,27.429v82.287c0,15.148 12.28,27.429 27.429,27.429h82.286c15.148,0 27.429-12.281 27.429-27.429v-82.287c0-15.148-12.28-27.429-27.428-27.429zm13.714,102.859c0,11.361-9.21,20.571-20.571,20.571h-68.572c-11.362,0-20.572-9.21-20.572-20.571v-68.573c0-11.362 9.21-20.572 20.572-20.572h68.572c11.361,0 20.571,9.21 20.571,20.572v68.573z"/>
    </g>
  </g>
</svg>
