<?xml version='1.0' encoding='iso-8859-1'?>
<svg version="1.1" xmlns="http://www.w3.org/2000/svg" viewBox="0 0 137.145 137.145" xmlns:xlink="http://www.w3.org/1999/xlink" enable-background="new 0 0 137.145 137.145">
  <g>
    <g>
      <path d="M37.711,47.947l-10.287,9.612l30.861,28.835l10.287-9.612L37.711,47.947z M109.715,0H27.429C12.28,0,0,12.281,0,27.429    v82.288c0,15.148,12.28,27.428,27.429,27.428h82.286c15.149,0,27.429-12.28,27.429-27.428V27.429    C137.144,12.281,124.864,0,109.715,0z M123.43,102.859c0,11.361-9.21,20.571-20.572,20.571H34.286    c-11.361,0-20.571-9.21-20.571-20.571V34.286c0-11.361,9.21-20.572,20.571-20.572h68.572c11.361,0,20.572,9.211,20.572,20.572    V102.859z M58.285,86.393l10.287,9.612l41.148-38.447l-10.287-9.612L58.285,86.393z"/>
    </g>
  </g>
</svg>
