<?xml version='1.0' encoding='iso-8859-1'?>
<svg version="1.1" xmlns="http://www.w3.org/2000/svg" viewBox="0 0 137.144 137.144" xmlns:xlink="http://www.w3.org/1999/xlink" enable-background="new 0 0 137.144 137.144">
  <g>
    <g>
      <path d="m109.715,0h-82.286c-15.149,0-27.429,12.28-27.429,27.429v82.287c0,15.148 12.28,27.429 27.429,27.429h82.286c15.149,0 27.429-12.28 27.429-27.429v-82.287c0-15.149-12.28-27.429-27.429-27.429zm13.715,102.858c0,11.361-9.21,20.572-20.571,20.572h-68.573c-11.362,0-20.572-9.211-20.572-20.572v-68.572c0-11.362 9.21-20.572 20.572-20.572h68.572c11.361,0 20.571,9.21 20.571,20.572v68.572zm-54.857-75.429c-11.366-3.55271e-15-21.064,4.016-29.095,12.048-8.033,8.032-12.048,17.731-12.048,29.095 0,11.366 4.015,21.064 12.048,29.095 8.031,8.033 17.729,12.048 29.095,12.048 11.365,0 21.062-4.015 29.095-12.048 8.031-8.031 12.048-17.729 12.048-29.095 0-11.365-4.016-21.063-12.048-29.095-8.032-8.032-17.73-12.048-29.095-12.048zm0,6.857c8.571,0 16.063,2.795 22.476,8.381-4.445,5.206-10.255,9.271-17.429,12.19-4-7.365-8.318-13.905-12.953-19.619 2.478-0.633 5.112-0.952 7.906-0.952zm-26.905,13.001c3.27-4.158 7.253-7.349 11.952-9.572 5.079,6.159 9.491,12.636 13.238,19.428-8.571,2.477-19.176,3.843-31.81,4.096 1.144-5.143 3.349-9.793 6.62-13.952zm-7.381,21.285v-1.048c13.714-0.19 25.555-1.745 35.524-4.667 0.888,1.905 1.714,3.747 2.476,5.524-0.89,0.255-1.556,0.476-2,0.667-10.856,3.81-19.937,11.272-27.238,22.382-5.842-6.539-8.762-14.158-8.762-22.858zm34.286,34.286c-7.747,0-14.7-2.348-20.857-7.048 7.174-11.301 16.157-18.476 26.952-21.524 3.11,8.572 5.365,17.271 6.762,26.095-3.999,1.653-8.285,2.477-12.857,2.477zm28.905-15.857c-2.509,3.905-5.667,7.191-9.476,9.857-1.652-8.825-3.778-16.857-6.381-24.096 6.603-0.762 13.524-0.286 20.762,1.429-0.762,4.636-2.397,8.905-4.905,12.81zm-18.238-20.238c-0.128-0.317-1.048-2.444-2.762-6.381 7.682-3.11 14-7.491 18.953-13.143 4.762,6.095 7.238,12.985 7.429,20.667-8.319-1.906-16.191-2.286-23.62-1.143z"/>
    </g>
  </g>
</svg>
