<?xml version='1.0' encoding='iso-8859-1'?>
<svg version="1.1" xmlns="http://www.w3.org/2000/svg" viewBox="0 0 137.145 137.145" xmlns:xlink="http://www.w3.org/1999/xlink" enable-background="new 0 0 137.145 137.145">
  <g>
    <g>
      <path d="M109.715,0H27.429C12.281,0,0,12.28,0,27.429v82.286c0,15.149,12.28,27.429,27.429,27.429h82.286    c15.149,0,27.429-12.28,27.429-27.429V27.429C137.144,12.28,124.864,0,109.715,0z M123.43,102.859    c0,11.361-9.21,20.571-20.571,20.571H34.286c-11.361,0-20.572-9.21-20.572-20.571V34.286c0-11.361,9.21-20.571,20.572-20.571    h68.572c11.361,0,20.571,9.21,20.571,20.571V102.859z M68.572,27.429L48,61.715c0,0-25.144,48.749,20.571,48    c45.348-0.743,20.572-48,20.572-48L68.572,27.429z"/>
    </g>
  </g>
</svg>
