<?xml version='1.0' encoding='iso-8859-1'?>
<svg version="1.1" xmlns="http://www.w3.org/2000/svg" viewBox="0 0 137.145 137.145" xmlns:xlink="http://www.w3.org/1999/xlink" enable-background="new 0 0 137.145 137.145">
  <g>
    <g>
      <path d="M96.001,41.143H82.286v20.572H54.858V41.143H41.143v6.857H27.429v41.143h13.714v6.858h13.714V75.429h27.429v20.572h13.714    v-6.858h13.714V48.001H96.001V41.143z M109.715,0H27.429C12.281,0,0,12.28,0,27.429v82.286c0,15.149,12.28,27.429,27.429,27.429    h82.286c15.149,0,27.429-12.28,27.429-27.429V27.429C137.144,12.28,124.864,0,109.715,0z M123.43,102.859    c0,11.361-9.21,20.571-20.571,20.571H34.286c-11.361,0-20.572-9.21-20.572-20.571V34.286c0-11.361,9.21-20.571,20.572-20.571    h68.572c11.361,0,20.571,9.21,20.571,20.571V102.859z"/>
    </g>
  </g>
</svg>
