<?xml version='1.0' encoding='iso-8859-1'?>
<svg version="1.1" xmlns="http://www.w3.org/2000/svg" viewBox="0 0 137.144 137.144" xmlns:xlink="http://www.w3.org/1999/xlink" enable-background="new 0 0 137.144 137.144">
  <g>
    <g>
      <path d="m68.478,27.467c-22.734,0-41.163,18.429-41.163,41.163 0,22.733 18.429,41.163 41.163,41.163 22.734,0 41.164-18.43 41.164-41.163-0.001-22.734-18.43-41.163-41.164-41.163zm.087,75.294c-19.001,0-34.403-15.402-34.403-34.402 0-4.109 0.841-7.996 2.162-11.649 1.969,1.697 10.923,8.907 17.592,5.811 7.529-3.496 5.916-4.034 7.798-2.151 1.883,1.882 6.185,2.151 6.723,5.646 0.538,3.497-4.84,4.572-5.916,9.143-1.075,4.571 4.034,16.135 13.984,22.589 1.97,1.279 3.795,1.908 5.518,2.273-4.134,1.76-8.681,2.74-13.458,2.74zm23.567-9.451c-2.2-5.194-5.825-14.482-4.871-17.345 1.345-4.033 6.992-5.915-2.689-6.722-9.68-0.807-6.454,0.807-9.68-4.303-3.227-5.109-5.378-4.84-5.378-7.26 0-2.42 0.538-3.765 3.226-1.882 2.689,1.882 4.571,4.034 2.152-2.42-2.42-6.454-2.958-5.379-4.302-10.488-1.345-5.109 0-5.378 0.538-6.992 0.255-0.766 0.434-1.276 0.396-1.644 17.592,1.524 31.445,16.118 31.445,34.105-0.002,9.854-4.198,18.68-10.837,24.951zm17.583-93.31h-82.286c-15.149,0-27.429,12.28-27.429,27.428v82.287c0,15.149 12.28,27.429 27.429,27.429h82.286c15.149,0 27.429-12.28 27.429-27.429v-82.287c0-15.148-12.28-27.428-27.429-27.428zm13.715,102.858c0,11.361-9.21,20.571-20.571,20.571h-68.573c-11.361,0-20.572-9.211-20.572-20.571v-68.572c0-11.361 9.21-20.572 20.572-20.572h68.572c11.361,0 20.571,9.21 20.571,20.572v68.572z"/>
    </g>
  </g>
</svg>
