<?xml version='1.0' encoding='iso-8859-1'?>
<svg version="1.1" xmlns="http://www.w3.org/2000/svg" viewBox="0 0 137.144 137.144" xmlns:xlink="http://www.w3.org/1999/xlink" enable-background="new 0 0 137.144 137.144">
  <g>
    <g>
      <path d="m109.716,109.716v-54.858l-27.429,27.429 27.429,27.429zm-.001-109.716h-82.286c-15.149,0-27.429,12.281-27.429,27.429v82.286c0,15.149 12.28,27.429 27.429,27.429h82.286c15.149,0 27.429-12.28 27.429-27.429v-82.286c0-15.148-12.28-27.429-27.429-27.429zm13.715,102.858c0,11.361-9.211,20.572-20.571,20.572h-68.573c-11.361,0-20.572-9.21-20.572-20.572v-68.572c0-11.361 9.211-20.572 20.572-20.572h68.573c11.361,0 20.571,9.21 20.571,20.572v68.572zm-68.572-20.571l6.857,6.857-6.857-6.857zm6.857-27.429h13.715v-13.714h13.714l-20.572-20.572-20.571,20.572h13.714v13.714zm-34.286,54.858l27.429-27.429-27.429-27.429v54.858zm54.858-48h-27.429v-13.715h-27.429l41.143,34.286 41.143-34.286h-27.428v13.715zm-20.572,27.428l-27.429,20.572h68.572l-27.428-20.572-6.857,6.857-6.858-6.857zm13.715,0l6.857-6.857-6.857,6.857z"/>
    </g>
  </g>
</svg>
