<?xml version='1.0' encoding='iso-8859-1'?>
<svg version="1.1" xmlns="http://www.w3.org/2000/svg" viewBox="0 0 137.144 137.144" xmlns:xlink="http://www.w3.org/1999/xlink" enable-background="new 0 0 137.144 137.144">
  <g>
    <g>
      <path d="m109.716,109.716v-54.858l-27.429,27.429 27.429,27.429zm-82.287,0l27.429-27.429-27.429-27.429v54.858zm27.429-27.429l6.857,6.857-6.857-6.857zm13.714-20.571l13.714-13.715 6.857-6.857h-13.713v-13.714h-13.715v13.714h-13.714l6.857,6.857 13.714,13.715zm0,13.714l-27.429-27.429h-13.714l41.143,34.286 41.143-34.286h-13.714l-27.429,27.429zm41.143-75.43h-82.286c-15.149,0-27.429,12.281-27.429,27.429v82.286c0,15.149 12.28,27.429 27.429,27.429h82.286c15.149,0 27.429-12.28 27.429-27.429v-82.286c0-15.148-12.28-27.429-27.429-27.429zm13.715,102.858c0,11.361-9.21,20.572-20.571,20.572h-68.573c-11.361,0-20.572-9.21-20.572-20.572v-68.572c0-11.361 9.21-20.572 20.572-20.572h68.572c11.361,0 20.571,9.21 20.571,20.572v68.572zm-61.714-13.714l-27.429,20.572h68.572l-27.428-20.572-6.857,6.857-6.858-6.857zm13.715,0l6.857-6.857-6.857,6.857z"/>
    </g>
  </g>
</svg>
