<?xml version='1.0' encoding='iso-8859-1'?>
<svg version="1.1" xmlns="http://www.w3.org/2000/svg" viewBox="0 0 137.144 137.144" xmlns:xlink="http://www.w3.org/1999/xlink" enable-background="new 0 0 137.144 137.144">
  <g>
    <g>
      <path d="m82.287,75.43l27.429,27.429v-54.858l-30.316,30.316 2.887-2.887zm-54.858-27.429v54.858l27.429-27.429 6.857,6.857-27.429,20.572h68.572l-27.428-20.572-6.857,6.857-41.144-41.143zm82.286-48.001h-82.286c-15.149,0-27.429,12.281-27.429,27.429v82.286c0,15.149 12.28,27.429 27.429,27.429h82.286c15.149,0 27.429-12.28 27.429-27.429v-82.286c0-15.148-12.28-27.429-27.429-27.429zm13.715,102.858c0,11.361-9.21,20.572-20.571,20.572h-68.573c-11.361,0-20.572-9.21-20.572-20.572v-68.572c0-11.361 9.21-20.572 20.572-20.572h68.572c11.361,0 20.571,9.21 20.571,20.572v68.572zm-54.856-27.428l41.143-34.286h-82.287l41.144,34.286zm6.857,6.857l3.97-3.97-3.97,3.97z"/>
    </g>
  </g>
</svg>
