<?xml version='1.0' encoding='iso-8859-1'?>
<svg version="1.1" xmlns="http://www.w3.org/2000/svg" viewBox="0 0 137.145 137.145" xmlns:xlink="http://www.w3.org/1999/xlink" enable-background="new 0 0 137.145 137.145">
  <g>
    <g>
      <path d="m41.144,75.43c0,3.787 3.07,6.857 6.857,6.857s6.857-3.07 6.857-6.857c0-3.787-3.07-6.857-6.857-6.857s-6.857,3.07-6.857,6.857zm27.428-27.428l20.571-13.715v-6.857h-54.857l34.286,20.786v-0.214zm27.429-6.858l-27.429,20.572 27.429,20.572v-13.715h13.714v-13.714h-13.714v-13.715zm13.715-41.144h-82.287c-15.149,0-27.429,12.281-27.429,27.429v82.286c0,15.149 12.28,27.429 27.429,27.429h82.287c15.148,0 27.429-12.28 27.429-27.429v-82.286c-0.001-15.148-12.281-27.429-27.429-27.429zm13.714,102.859c0,11.362-9.21,20.572-20.572,20.572h-68.572c-11.361,0-20.572-9.21-20.572-20.572v-68.572c0-11.361 9.21-20.572 20.572-20.572h68.572c11.361,0 20.572,9.211 20.572,20.572v68.572zm-54.858,3.6l-41.143-17.314v6.857l48,21v-21h13.714v-6.857l-20.571-13.715v31.029z"/>
    </g>
  </g>
</svg>
