<?xml version='1.0' encoding='iso-8859-1'?>
<svg version="1.1" xmlns="http://www.w3.org/2000/svg" viewBox="0 0 137.144 137.144" xmlns:xlink="http://www.w3.org/1999/xlink" enable-background="new 0 0 137.144 137.144">
  <g>
    <g>
      <path d="M109.715,0H27.429C12.28,0,0,12.28,0,27.429v82.286c0,15.149,12.28,27.429,27.429,27.429h82.286    c15.149,0,27.429-12.28,27.429-27.429V27.429C137.144,12.28,124.864,0,109.715,0z M123.43,102.858    c0,8.953-5.73,16.549-13.714,19.376V75.43h-6.857v48h-6.857V96.001h-6.857v27.429h-6.857V82.286H75.43v41.143h-6.857V54.858    h-6.857v68.572h-6.857V48h-6.857v75.43h-6.857V61.715h-6.857v61.715c-2.408,0-4.709-0.435-6.857-1.195V75.43h-6.857v42.731    c-4.2-3.766-6.857-9.217-6.857-15.303V34.286c0-11.362,9.21-20.572,20.572-20.572h68.572c11.361,0,20.571,9.21,20.571,20.572    V102.858z"/>
    </g>
  </g>
</svg>
