<?xml version='1.0' encoding='iso-8859-1'?>
<svg version="1.1" xmlns="http://www.w3.org/2000/svg" viewBox="0 0 137.144 137.144" xmlns:xlink="http://www.w3.org/1999/xlink" enable-background="new 0 0 137.144 137.144">
  <g>
    <g>
      <path d="m96.001,48c0-15.148-12.28-27.428-27.429-27.428-15.149,0-27.429,12.28-27.429,27.428 0,12.767 8.762,23.4 20.571,26.459v14.685h-13.714v13.714h13.715v13.714h13.714v-13.714h13.715v-13.714h-13.715v-14.685c11.81-3.059 20.572-13.692 20.572-26.459zm-27.429,13.715c-7.574,0-13.715-6.141-13.715-13.715 0-7.574 6.14-13.714 13.715-13.714 7.574,0 13.714,6.14 13.714,13.714 0,7.574-6.14,13.715-13.714,13.715zm41.143-61.715h-82.286c-15.149,0-27.429,12.28-27.429,27.429v82.286c0,15.149 12.28,27.429 27.429,27.429h82.286c15.149,0 27.429-12.28 27.429-27.429v-82.286c0-15.149-12.28-27.429-27.429-27.429zm13.715,102.858c0,11.362-9.21,20.572-20.572,20.572h-68.572c-11.361,0-20.572-9.21-20.572-20.572v-68.572c0-11.362 9.21-20.572 20.572-20.572h68.572c11.361,0 20.572,9.21 20.572,20.572v68.572z"/>
    </g>
  </g>
</svg>
