<?xml version='1.0' encoding='iso-8859-1'?>
<svg version="1.1" xmlns="http://www.w3.org/2000/svg" viewBox="0 0 137.144 137.144" xmlns:xlink="http://www.w3.org/1999/xlink" enable-background="new 0 0 137.144 137.144">
  <g>
    <g>
      <path d="m109.715,0h-82.286c-15.149,0-27.429,12.28-27.429,27.429v82.286c0,15.149 12.28,27.429 27.429,27.429h82.286c15.148,0 27.429-12.28 27.429-27.429v-82.286c0-15.149-12.28-27.429-27.429-27.429zm13.715,102.858c0,11.361-9.21,20.571-20.572,20.571h-68.572c-11.361,0-20.572-9.21-20.572-20.571v-68.572c0-11.362 9.21-20.572 20.572-20.572h68.572c11.361,0 20.572,9.21 20.572,20.572v68.572zm-96.002,6.857h82.286v-82.287h-82.286v82.287zm61.715-68.573h13.715v13.715h-13.715v-13.715zm0,20.572h13.715v13.714h-13.715v-13.714zm0,20.572h13.715v13.714h-13.715v-13.714zm-34.286-41.144h27.429v20.572h-27.429v-20.572zm0,34.287h27.429v20.571h-27.429v-20.571zm-20.571-34.287h13.714v13.715h-13.714v-13.715zm0,20.572h13.714v13.714h-13.714v-13.714zm0,20.572h13.714v13.714h-13.714v-13.714z"/>
    </g>
  </g>
</svg>
