<?xml version='1.0' encoding='iso-8859-1'?>
<svg version="1.1" xmlns="http://www.w3.org/2000/svg" viewBox="0 0 137.144 137.144" xmlns:xlink="http://www.w3.org/1999/xlink" enable-background="new 0 0 137.144 137.144">
  <g>
    <g>
      <path d="m109.715,0h-82.286c-15.149,0-27.429,12.28-27.429,27.429v82.286c0,15.148 12.28,27.429 27.429,27.429h82.286c15.148,0 27.429-12.281 27.429-27.429v-82.286c0-15.149-12.28-27.429-27.429-27.429zm13.715,102.858c0,11.361-9.21,20.572-20.572,20.572h-68.572c-11.361,0-20.571-9.211-20.571-20.572v-68.572c0-11.361 9.21-20.572 20.571-20.572h68.572c11.361,0 20.572,9.211 20.572,20.572v68.572zm-27.429-54.857h-54.858v6.857h54.858v-6.857zm-27.429-27.429c-18.998,0-20.572,20.571-20.572,20.571h41.143c0.001,0-1.43-20.571-20.571-20.571zm20.572,41.143h-41.144v48h-6.857v6.857h54.858v-6.857h-6.857v-48zm-27.429,41.143h-6.857v-34.286h6.857v34.286zm20.571,0h-6.857v-34.286h6.857v34.286zm13.715-20.572h6.857v-13.714h-6.857v13.714zm-54.858-13.714h-6.857v13.714h6.857v-13.714z"/>
    </g>
  </g>
</svg>
