<?xml version='1.0' encoding='iso-8859-1'?>
<svg version="1.1" xmlns="http://www.w3.org/2000/svg" viewBox="0 0 137.145 137.145" xmlns:xlink="http://www.w3.org/1999/xlink" enable-background="new 0 0 137.145 137.145">
  <g>
    <g>
      <path d="M75.43,48.001H61.715v13.714H48.001v13.714h13.714v13.715H75.43V75.429h13.714V61.715H75.43V48.001z M27.429,109.716    h82.287V27.429H27.429V109.716z M41.144,41.143h54.858v54.858H41.144V41.143z M109.716,0H27.429C12.28,0,0,12.28,0,27.429v82.286    c0,15.149,12.28,27.429,27.429,27.429h82.286c15.148,0,27.429-12.28,27.429-27.429V27.429C137.144,12.28,124.864,0,109.716,0z     M123.43,102.859c0,11.361-9.21,20.571-20.571,20.571H34.286c-11.361,0-20.572-9.21-20.572-20.571V34.286    c0-11.361,9.21-20.571,20.572-20.571h68.572c11.361,0,20.571,9.21,20.571,20.571V102.859z"/>
    </g>
  </g>
</svg>
