<?xml version='1.0' encoding='iso-8859-1'?>
<svg version="1.1" xmlns="http://www.w3.org/2000/svg" viewBox="0 0 137.144 137.144" xmlns:xlink="http://www.w3.org/1999/xlink" enable-background="new 0 0 137.144 137.144">
  <g>
    <g>
      <path d="M109.715,0H27.429C12.28,0,0,12.28,0,27.428v82.287c0,15.149,12.28,27.429,27.429,27.429h82.286    c15.148,0,27.429-12.28,27.429-27.429V27.428C137.144,12.28,124.864,0,109.715,0z M123.43,102.858    c0,11.361-9.21,20.571-20.571,20.571H34.286c-11.362,0-20.572-9.211-20.572-20.571V34.286c0-11.361,9.21-20.572,20.572-20.572    h68.572c11.361,0,20.571,9.21,20.571,20.572V102.858z M82.286,68.572V41.143h6.857V27.428H48v13.715h6.857v27.428    c0,0-10.841,11.116-27.429,27.429c-0.378,0.371,6.857,13.715,6.857,13.715h68.572c0,0,6.976-13.591,6.857-13.715    C101.135,87.059,82.286,68.572,82.286,68.572z M48,89.143l13.714-13.714V41.143h13.715v34.286l13.714,13.714H48z"/>
    </g>
  </g>
</svg>
