<?xml version='1.0' encoding='iso-8859-1'?>
<svg version="1.1" xmlns="http://www.w3.org/2000/svg" viewBox="0 0 137.145 137.145" xmlns:xlink="http://www.w3.org/1999/xlink" enable-background="new 0 0 137.145 137.145">
  <g>
    <g>
      <path d="m95.331,57.259c6.781-10.206 9.551-18.603 6.355-21.8-3.196-3.196-11.593-0.425-21.799,6.355-2.448-12.787-6.582-21.242-11.314-21.242s-8.866,8.455-11.314,21.242c-10.206-6.781-18.603-9.551-21.799-6.355-3.196,3.196-0.425,11.593 6.355,21.8-12.787,2.448-21.242,6.582-21.242,11.314 0,4.732 8.455,8.866 21.242,11.314-6.781,10.206-9.551,18.603-6.355,21.799 3.196,3.196 11.593,0.426 21.799-6.355 2.449,12.787 6.582,21.242 11.314,21.242s8.866-8.455 11.314-21.242c10.206,6.781 18.603,9.551 21.799,6.355 3.196-3.196 0.425-11.593-6.355-21.799 12.787-2.448 21.242-6.582 21.242-11.314-1.42109e-14-4.732-8.455-8.865-21.242-11.314zm-26.758,25.029c-7.574,0-13.714-6.14-13.714-13.715 0-7.574 6.14-13.714 13.714-13.714 7.574,0 13.714,6.14 13.714,13.714 1.42109e-14,7.575-6.14,13.715-13.714,13.715zm41.142-82.288h-82.286c-15.148,0-27.429,12.281-27.429,27.429v82.287c0,15.148 12.28,27.428 27.429,27.428h82.286c15.149,0 27.429-12.28 27.429-27.428v-82.287c0-15.148-12.28-27.429-27.429-27.429zm13.715,102.859c0,11.361-9.21,20.572-20.572,20.572h-68.572c-11.361,0-20.572-9.21-20.572-20.572v-68.572c0-11.362 9.21-20.572 20.572-20.572h68.572c11.362,0 20.572,9.21 20.572,20.572v68.572z"/>
    </g>
  </g>
</svg>
