<?xml version='1.0' encoding='iso-8859-1'?>
<svg version="1.1" xmlns="http://www.w3.org/2000/svg" viewBox="0 0 137.144 137.144" xmlns:xlink="http://www.w3.org/1999/xlink" enable-background="new 0 0 137.144 137.144">
  <g>
    <g>
      <path d="M109.715,0H27.429C12.28,0,0,12.28,0,27.428v82.287c0,15.149,12.28,27.429,27.429,27.429h82.286    c15.148,0,27.429-12.28,27.429-27.429V27.428C137.144,12.28,124.864,0,109.715,0z M123.43,102.858    c0,11.362-9.21,20.571-20.571,20.571H34.286c-11.362,0-20.572-9.21-20.572-20.571V34.286c0-11.362,9.21-20.572,20.572-20.572    h68.572c11.361,0,20.571,9.21,20.571,20.572V102.858z M61.715,34.286H27.429v68.572h41.143L48.001,75.429h13.714V61.714h13.715    v13.714h13.714l-20.571,27.429h41.143V48H68.572L61.715,34.286z"/>
    </g>
  </g>
</svg>
