<?xml version='1.0' encoding='iso-8859-1'?>
<svg version="1.1" xmlns="http://www.w3.org/2000/svg" viewBox="0 0 137.145 137.145" xmlns:xlink="http://www.w3.org/1999/xlink" enable-background="new 0 0 137.145 137.145">
  <g>
    <g>
      <path d="m27.445,53.437c0.002-0.287 0.003-0.529 0.004-0.7-0.001,0.151-0.002,0.372-0.004,0.7zm6.841,42.564c0,0 0.317,13.841 10.286,13.715 11.569-0.148 10.286-13.715 10.286-13.715h-20.572zm10.197-61.715c-17.521,0.343-17.054,21.943-17.054,21.943-0.102,17.497 5.685,32.915 5.685,32.915h21.744c0.129,0.395-0.038,0.694 0-6.857 0.056-10.919 6.813-16.053 6.68-26.058 0,0 1.573-8.05-5.685-16.457-4.29-4.969-6.849-5.574-11.37-5.486zm65.211,18.333c0.001,0.135 0.002,0.36 0.004,0.655-0.002-0.325-0.003-0.532-0.004-0.655zc-0.001-0.183-0.001-0.161 0,0zm-17.122,57.097c9.969,0.127 10.286-13.715 10.286-13.715h-20.572c0,1.42109e-14-1.283,13.567 10.286,13.715zm17.142-53.621c0,0.08 0.001,0.134 0.001,0.134s0.004-0.192-0.003-0.539c0.001,0.121 0.001,0.256 0.002,0.405zm.001-56.095h-82.286c-15.149,0-27.429,12.281-27.429,27.429v82.288c0,15.148 12.28,27.428 27.429,27.428h82.286c15.149,0 27.429-12.28 27.429-27.428v-82.288c0-15.148-12.28-27.429-27.429-27.429zm13.715,102.859c0,11.361-9.21,20.571-20.572,20.571h-68.572c-11.361,0-20.571-9.21-20.571-20.571v-68.573c0-11.361 9.21-20.572 20.571-20.572h68.572c11.362,0 20.572,9.211 20.572,20.572v68.573zm-13.72-47.591c0.001,0.155 0.002,0.293 0.002,0.419 0,0.001 0,0.002 0,0.003-0.001-0.147-0.002-0.286-0.002-0.422zm.002,.419c-0.069-3.346-1.183-21.09-17.051-21.401-4.521-0.089-7.08,0.517-11.369,5.486-7.258,8.407-5.685,16.457-5.685,16.457-0.133,10.005 6.624,15.139 6.68,26.058 0.039,7.551-0.128,7.252 0,6.857h21.744c0,0 5.786-15.417 5.685-32.915 0-0.05 0-0.088-0.001-0.134-0.001-0.092-0.002-0.237-0.003-0.408z"/>
    </g>
  </g>
</svg>
