<?xml version='1.0' encoding='iso-8859-1'?>
<svg version="1.1" xmlns="http://www.w3.org/2000/svg" viewBox="0 0 137.144 137.144" xmlns:xlink="http://www.w3.org/1999/xlink" enable-background="new 0 0 137.144 137.144">
  <g>
    <g>
      <path d="m68.572,20.572c-26.51,0-48.001,21.49-48.001,48 0,26.51 21.491,48.001 48.001,48.001s48.001-21.491 48.001-48.001c-1.42109e-14-26.509-21.491-48-48.001-48zm0,82.287c-18.936,0-34.286-15.351-34.286-34.286 0-6.954 2.102-13.403 5.659-18.807l47.434,47.434c-5.404,3.558-11.853,5.659-18.807,5.659zm28.627-15.479l-47.434-47.435c5.404-3.557 11.854-5.659 18.807-5.659 18.936,0 34.286,15.351 34.286,34.286 0,6.954-2.101,13.404-5.659,18.808zm12.516-87.38h-82.286c-15.149,0-27.429,12.281-27.429,27.429v82.286c0,15.149 12.28,27.429 27.429,27.429h82.286c15.148,0 27.429-12.28 27.429-27.429v-82.286c0-15.148-12.28-27.429-27.429-27.429zm13.715,102.858c0,11.361-9.21,20.572-20.572,20.572h-68.572c-11.361,0-20.571-9.21-20.571-20.572v-68.572c0-11.361 9.21-20.572 20.571-20.572h68.572c11.362,0 20.572,9.21 20.572,20.572v68.572z"/>
    </g>
  </g>
</svg>
