<?xml version='1.0' encoding='iso-8859-1'?>
<svg version="1.1" xmlns="http://www.w3.org/2000/svg" viewBox="0 0 137.145 137.145" xmlns:xlink="http://www.w3.org/1999/xlink" enable-background="new 0 0 137.145 137.145">
  <g>
    <g>
      <path d="m109.715,0h-82.286c-15.148,0-27.429,12.28-27.429,27.429v82.286c0,15.149 12.28,27.429 27.429,27.429h82.286c15.149,0 27.429-12.28 27.429-27.429v-82.286c0-15.149-12.28-27.429-27.429-27.429zm13.715,102.859c0,11.361-9.21,20.571-20.571,20.571h-68.573c-11.361,0-20.572-9.21-20.572-20.571v-68.573c0-11.361 9.21-20.571 20.572-20.571h68.572c11.361,0 20.571,9.21 20.571,20.571v68.573zm-34.286-61.716h-41.143c-15.149,0-27.429,12.28-27.429,27.429 0,15.148 12.28,27.429 27.429,27.429h41.143c15.149,0 27.429-12.28 27.429-27.429 0.001-15.149-12.28-27.429-27.429-27.429zm-20.571,34.286h-13.714v13.714h-13.715v-13.714h-13.714v-13.714h13.714v-13.714h13.714v13.714h13.714v13.714zm13.715-13.714c-3.787,0-6.857-3.07-6.857-6.857 0-3.787 3.07-6.857 6.857-6.857s6.857,3.07 6.857,6.857c0,3.787-3.07,6.857-6.857,6.857zm13.715,20.572c-3.787,0-6.857-3.07-6.857-6.858 0-3.786 3.07-6.857 6.857-6.857s6.857,3.07 6.857,6.857c0,3.788-3.07,6.858-6.857,6.858z"/>
    </g>
  </g>
</svg>
