<?xml version='1.0' encoding='iso-8859-1'?>
<svg version="1.1" xmlns="http://www.w3.org/2000/svg" viewBox="0 0 137.144 137.144" xmlns:xlink="http://www.w3.org/1999/xlink" enable-background="new 0 0 137.144 137.144">
  <g>
    <g>
      <path d="M27.525,90.354l24.196,26.253l58.015-45.355L69.409,27.498L27.525,90.354z M100.792,70.01L82.287,82.286H41.143    l29.405-45.092L100.792,70.01z M109.716,0H27.429C12.28,0,0,12.28,0,27.429v82.286c0,15.149,12.28,27.429,27.429,27.429h82.287    c15.148,0,27.429-12.28,27.429-27.429V27.429C137.144,12.28,124.864,0,109.716,0z M123.43,102.858    c0,11.362-9.21,20.572-20.572,20.572H34.286c-11.362,0-20.572-9.21-20.572-20.572V34.286c0-11.361,9.21-20.571,20.572-20.571    h68.572c11.361,0,20.572,9.21,20.572,20.571V102.858z"/>
    </g>
  </g>
</svg>
