<?xml version='1.0' encoding='iso-8859-1'?>
<svg version="1.1" xmlns="http://www.w3.org/2000/svg" viewBox="0 0 137.145 137.145" xmlns:xlink="http://www.w3.org/1999/xlink" enable-background="new 0 0 137.145 137.145">
  <g>
    <g>
      <path d="m68.573,27.429v27.429l34.286-13.715-34.286-13.714zm6.857,51.429c0,5.681 4.605,10.286 10.286,10.286 5.681,0 10.286-4.605 10.286-10.286 0-5.68-4.605-10.285-10.286-10.285-5.681-1.42109e-14-10.286,4.605-10.286,10.285zm34.285-78.858h-82.286c-15.148,0-27.429,12.281-27.429,27.429v82.287c0,15.148 12.28,27.429 27.429,27.429h82.286c15.149,0 27.429-12.28 27.429-27.429v-82.287c0-15.148-12.28-27.429-27.429-27.429zm13.715,102.858c0,11.361-9.21,20.572-20.571,20.572h-68.572c-11.361,0-20.572-9.211-20.572-20.572v-68.572c0-11.361 9.21-20.572 20.572-20.572h68.572c11.361,0 20.571,9.211 20.571,20.572v68.572zm-61.715-75.429h-6.857v68.573h6.857v-68.573zm6.858,68.573c-22.723,0-41.143,3.07-41.143,6.857 0,3.787 18.42,6.857 41.143,6.857 22.723,0 41.143-3.07 41.143-6.857 0-3.788-18.421-6.857-41.143-6.857z"/>
    </g>
  </g>
</svg>
