<?xml version='1.0' encoding='iso-8859-1'?>
<svg version="1.1" xmlns="http://www.w3.org/2000/svg" viewBox="0 0 137.144 137.144" xmlns:xlink="http://www.w3.org/1999/xlink" enable-background="new 0 0 137.144 137.144">
  <g>
    <g>
      <path d="m109.715,0h-82.286c-15.149,0-27.429,12.28-27.429,27.429v82.287c0,15.148 12.28,27.429 27.429,27.429h82.286c15.149,0 27.429-12.28 27.429-27.429v-82.287c0-15.149-12.28-27.429-27.429-27.429zm13.715,102.858c0,11.361-9.21,20.572-20.571,20.572h-68.573c-11.361,0-20.572-9.211-20.572-20.572v-68.572c0-11.362 9.21-20.572 20.572-20.572h68.572c11.361,0 20.571,9.21 20.571,20.572v68.572zm-41.2-75.493h-26.239c-5.961,3.55271e-15-11.262,1.882-15.906,5.644-4.644,3.764-6.966,8.127-6.966,13.094 0,5.268 1.858,9.67 5.573,13.207 3.715,3.538 8.513,5.305 14.396,5.305 1.083,0 1.896-0.037 2.438-0.113-0.853,1.506-1.277,3.123-1.277,4.854 0,2.409 1.161,4.741 3.483,6.998h-4.528c-7.122,0-13.197,1.862-18.228,5.588-5.032,3.724-7.547,7.996-7.547,12.811 0,4.515 2.592,8.147 7.779,10.893 5.185,2.748 11.532,4.12 19.041,4.12 7.971,0 14.28-1.824 18.924-5.474 4.644-3.649 6.966-7.958 6.966-12.925 0-3.686-0.679-6.772-2.032-9.256-1.355-2.483-3.735-4.927-7.14-7.336-1.549-0.977-3.096-2.275-4.644-3.895-1.549-1.617-2.322-2.952-2.322-4.007 0-1.354 0.308-2.52 0.929-3.499 0.619-0.977 1.974-2.258 4.063-3.838 4.952-3.686 7.431-8.127 7.431-13.319 0-3.387-0.737-6.434-2.206-9.144-1.471-2.709-3.561-4.552-6.269-5.531h8.359l5.922-4.177zm-17.531,53.842c1.005,0.678 1.702,1.168 2.09,1.468 0.386,0.302 0.967,0.716 1.742,1.241 0.773,0.527 1.335,0.979 1.684,1.354 0.348,0.378 0.734,0.829 1.161,1.354 0.424,0.528 0.773,1.036 1.045,1.524 0.27,0.49 0.483,1.035 0.639,1.636 0.154,1.205 0.232,2.071 0.232,2.597 0,8.88-6.348,13.319-19.041,13.319-4.954,0-9.076-1.335-12.365-4.007-3.291-2.67-4.934-5.887-4.934-9.651 0-3.612 1.896-6.734 5.689-9.368 3.791-2.633 8.243-3.951 13.351-3.951 2.398,0.151 4.566,0.49 6.502,1.016 0.463,0.303 1.198,0.791 2.205,1.468zm.232-23.535c-2.014,2.974-4.684,4.421-8.011,4.346-3.407-0.15-6.522-1.767-9.346-4.854-2.826-3.084-4.51-6.809-5.05-11.175-0.542-4.289 0.154-7.902 2.09-10.836 1.934-2.935 4.604-4.326 8.011-4.177 3.405,0.152 6.52,1.732 9.346,4.741 2.825,3.011 4.508,6.698 5.05,11.062 0.618,4.291-0.079,7.922-2.09,10.893zm37.928-30.244h-6.857v13.715h-13.714v6.857h13.714v13.715h6.857v-13.715h13.715v-6.857h-13.715v-13.715z"/>
    </g>
  </g>
</svg>
