<?xml version='1.0' encoding='iso-8859-1'?>
<svg version="1.1" xmlns="http://www.w3.org/2000/svg" viewBox="0 0 137.145 137.145" xmlns:xlink="http://www.w3.org/1999/xlink" enable-background="new 0 0 137.145 137.145">
  <g>
    <g>
      <path d="m109.716,0h-82.287c-15.148,0-27.429,12.281-27.429,27.428v82.287c0,15.148 12.28,27.429 27.429,27.429h82.286c15.148,0 27.429-12.281 27.429-27.429v-82.287c0-15.147-12.28-27.428-27.428-27.428zm13.714,102.858c0,11.361-9.21,20.572-20.572,20.572h-68.572c-11.361,0-20.572-9.211-20.572-20.572v-68.572c0-11.361 9.21-20.572 20.572-20.572h68.572c11.361,0 20.572,9.211 20.572,20.572v68.572zm-48-41.143h34.286v-34.287h-34.286v34.287zm6.857-27.429h20.572v20.572h-20.572v-20.572zm-54.858,75.43h34.286v-34.287h-34.286v34.287zm6.857-27.43h20.572v20.572h-20.572v-20.572zm-6.857-20.571h34.286v-34.287h-34.286v34.287zm6.857-27.429h20.572v20.572h-20.572v-20.572zm41.144,75.43h34.286v-34.287h-34.286v34.287zm6.857-27.43h20.572v20.572h-20.572v-20.572z"/>
    </g>
  </g>
</svg>
