<?xml version='1.0' encoding='iso-8859-1'?>
<svg version="1.1" xmlns="http://www.w3.org/2000/svg" viewBox="0 0 137.144 137.144" xmlns:xlink="http://www.w3.org/1999/xlink" enable-background="new 0 0 137.144 137.144">
  <g>
    <g>
      <path d="m109.715,0h-82.286c-15.149,0-27.429,12.28-27.429,27.429v82.287c0,15.148 12.28,27.429 27.429,27.429h82.286c15.148,0 27.429-12.28 27.429-27.429v-82.287c0-15.149-12.28-27.429-27.429-27.429zm13.715,102.858c0,11.361-9.21,20.572-20.572,20.572h-68.572c-11.361,0-20.572-9.211-20.572-20.572v-68.572c0-11.362 9.21-20.572 20.572-20.572h68.572c11.361,0 20.572,9.21 20.572,20.572v68.572zm-54.871-75.414c-22.714-3.55271e-15-41.129,18.414-41.129,41.128 0,22.715 18.415,41.129 41.129,41.129 22.713,0 41.128-18.414 41.128-41.129 0-22.714-18.415-41.128-41.128-41.128zm20.324,53.862c-2.134-0.028-5.563-6.763-5.709-6.75 0,0-5.396-15.439-24.492-18.327 1.681,26.029-6.423,25.125-10.067,25.077-5.516-0.075-7.55-5.978-7.55-12.539 0-14.338 9.05-27.574 27.685-27.585 18.421-0.011 26.969,13.082 27.225,27.43 0.051,2.895-0.812,12.78-7.092,12.694z"/>
    </g>
  </g>
</svg>
