<?xml version='1.0' encoding='iso-8859-1'?>
<svg version="1.1" xmlns="http://www.w3.org/2000/svg" viewBox="0 0 137.145 137.145" xmlns:xlink="http://www.w3.org/1999/xlink" enable-background="new 0 0 137.145 137.145">
  <g>
    <g>
      <path d="m89.144,34.286l2.92,2.935-12.616,12.586c-6.389-3.111-14.289-2.089-19.598,3.208-2.528,2.522-4.094,5.637-4.711,8.896-7.374-1.194-15.189,0.996-20.874,6.689-9.399,9.411-9.399,24.671 0,34.083 9.399,9.411 24.639,9.411 34.038,0 5.656-5.663 7.842-13.438 6.691-20.788 3.325-0.594 6.51-2.151 9.079-4.715 5.308-5.295 6.333-13.174 3.218-19.547l12.617-12.587 2.951,2.954 6.857-13.715-6.857-6.858-13.715,6.859zm-37.714,61.715c-5.68,0-10.286-4.605-10.286-10.286 0-5.681 4.605-10.285 10.286-10.285 5.681,0 10.286,4.605 10.286,10.285-0.001,5.681-4.606,10.286-10.286,10.286zm58.286-96.001h-82.287c-15.148,0-27.429,12.281-27.429,27.429v82.287c0,15.148 12.28,27.429 27.429,27.429h82.286c15.148,0 27.429-12.281 27.429-27.429v-82.287c0-15.148-12.28-27.429-27.428-27.429zm13.714,102.859c0,11.361-9.21,20.571-20.572,20.571h-68.571c-11.361,0-20.572-9.21-20.572-20.571v-68.573c0-11.362 9.21-20.572 20.572-20.572h68.572c11.361,0 20.572,9.21 20.572,20.572v68.573z"/>
    </g>
  </g>
</svg>
