<?xml version='1.0' encoding='iso-8859-1'?>
<svg version="1.1" xmlns="http://www.w3.org/2000/svg" viewBox="0 0 137.145 137.145" xmlns:xlink="http://www.w3.org/1999/xlink" enable-background="new 0 0 137.145 137.145">
  <g>
    <g>
      <path d="m112.175,69.973l-6.269-1.774v-6.206c0-19.089-16.672-34.565-37.237-34.565s-37.237,15.476-37.237,34.565v5.843c-0.041,0.01-0.082,0.002-0.123,0.013l-6.308,1.698c-3.279,0.882-5.153,3.678-4.186,6.245l8.866,23.527c0.967,2.567 4.409,3.932 7.688,3.05l6.308-1.697c3.279-0.882 5.153-3.678 4.186-6.245l-4.018-10.663-2.701-8.333v-13.716c0-12.776 13.665-20.572 27.429-20.572s27.429,7.796 27.429,20.572v13.715l-7.057,19.127c-1.005,2.554 0.827,5.374 4.092,6.298l6.282,1.777c3.266,0.924 6.728-0.397 7.733-2.951l9.215-23.411c1.006-2.554-0.827-5.373-4.092-6.297zm-2.459-69.973h-82.287c-15.148,0-27.429,12.281-27.429,27.428v82.287c0,15.148 12.28,27.429 27.429,27.429h82.286c15.148,0 27.429-12.281 27.429-27.429v-82.287c0-15.147-12.28-27.428-27.428-27.428zm13.714,102.858c0,11.361-9.21,20.572-20.571,20.572h-68.573c-11.362,0-20.572-9.211-20.572-20.572v-68.572c0-11.361 9.21-20.572 20.572-20.572h68.572c11.361,0 20.571,9.211 20.571,20.572v68.572z"/>
    </g>
  </g>
</svg>
