<?xml version='1.0' encoding='iso-8859-1'?>
<svg version="1.1" xmlns="http://www.w3.org/2000/svg" viewBox="0 0 137.144 137.144" xmlns:xlink="http://www.w3.org/1999/xlink" enable-background="new 0 0 137.144 137.144">
  <g>
    <g>
      <path d="m109.715,0h-82.286c-15.149,0-27.429,12.28-27.429,27.429v82.287c0,15.148 12.28,27.428 27.429,27.428h82.286c15.149,0 27.429-12.28 27.429-27.428v-82.287c0-15.149-12.281-27.429-27.429-27.429zm13.714,68.573h-20.571l-3.63,10.891-16.941-45.178h-6.857l-16.68,44.479-10.75-37.622h-6.857l-16.457,27.43h-10.971v6.857h13.714l15.926-26.544 11.502,40.259h6.857l17.143-45.715 17.143,45.715h6.857l4.572-13.715h15.999v27.428c0,11.362-9.21,20.572-20.571,20.572h-68.571c-11.361,0-20.572-9.21-20.572-20.572v-68.572c0-11.361 9.21-20.571 20.572-20.571h68.572c11.361,0 20.571,9.21 20.571,20.571v34.287z"/>
    </g>
  </g>
</svg>
