<?xml version='1.0' encoding='iso-8859-1'?>
<svg version="1.1" xmlns="http://www.w3.org/2000/svg" viewBox="0 0 137.144 137.144" xmlns:xlink="http://www.w3.org/1999/xlink" enable-background="new 0 0 137.144 137.144">
  <g>
    <g>
      <path d="m41.143,48c-0.111-13.792 20.572-27.429 20.572-27.429s-27.165,4.288-27.429,27.429c-0.326,28.635 27.429,41.143 27.429,41.143s-20.358-14.513-20.572-41.143zm20.572,61.715l-6.857-13.715v20.572h27.429v-20.571l-6.857,13.715h-13.715zm13.714-89.145c0,3.55271e-15 20.682,13.637 20.572,27.429-0.214,26.629-20.569,41.142-20.571,41.142 0.005-0.001 27.755-12.511 27.428-41.142-0.264-23.141-27.429-27.429-27.429-27.429zm-20.572,20.572c-0.214,20.321 6.857,48 6.857,48h13.715c0-0.001 7.268-27.452 6.857-48-0.214-10.719-6.857-20.572-6.857-20.572h-13.714c0,0-6.738,9.249-6.858,20.572zm54.858-41.143h-82.286c-15.149,0-27.429,12.28-27.429,27.429v82.286c0,15.148 12.28,27.429 27.429,27.429h82.286c15.149,0 27.429-12.28 27.429-27.429v-82.286c0-15.149-12.28-27.429-27.429-27.429zm13.715,102.858c0,11.362-9.211,20.572-20.572,20.572h-68.572c-11.361,0-20.572-9.21-20.572-20.572v-68.572c0-11.361 9.211-20.571 20.572-20.571h68.572c11.361,0 20.572,9.21 20.572,20.571v68.572z"/>
    </g>
  </g>
</svg>
