<?xml version='1.0' encoding='iso-8859-1'?>
<svg version="1.1" xmlns="http://www.w3.org/2000/svg" viewBox="0 0 137.144 137.144" xmlns:xlink="http://www.w3.org/1999/xlink" enable-background="new 0 0 137.144 137.144">
  <g>
    <g>
      <path d="m68.573,109.716l20.571-41.143h-41.143l20.572,41.143zm41.142-109.716h-82.286c-15.149,0-27.429,12.281-27.429,27.429v82.286c0,15.149 12.28,27.429 27.429,27.429h82.286c15.148,0 27.429-12.28 27.429-27.429v-82.286c0-15.148-12.28-27.429-27.429-27.429zm13.715,102.859c0,11.361-9.21,20.571-20.571,20.571h-68.573c-11.361,0-20.572-9.21-20.572-20.571v-68.573c0-11.361 9.21-20.572 20.572-20.572h68.572c11.361,0 20.571,9.21 20.571,20.572v68.573zm-41.142-61.715c0.182,0.832-1.066,0.089 0,0-1.659-7.583-6.457-13.765-13.714-13.714-14.386,0.102-13.714,13.714-13.714,13.714s-12.422-1.15-13.714,6.858c-1.694,10.493 6.857,13.714 6.857,13.714h41.143c0,0 6.824-1.751 6.857-6.857 0.069-10.911-6.501-14.317-13.715-13.715z"/>
    </g>
  </g>
</svg>
