<?xml version='1.0' encoding='iso-8859-1'?>
<svg version="1.1" xmlns="http://www.w3.org/2000/svg" viewBox="0 0 137.144 137.144" xmlns:xlink="http://www.w3.org/1999/xlink" enable-background="new 0 0 137.144 137.144">
  <g>
    <g>
      <path d="M109.715,0H27.429C12.28,0,0,12.281,0,27.429v82.286c0,15.149,12.28,27.429,27.429,27.429h82.286    c15.148,0,27.429-12.28,27.429-27.429V27.429C137.144,12.281,124.864,0,109.715,0z M123.429,82.286h-20.571v20.572H34.286V82.286    H13.715V32c0-10.099,8.187-18.285,18.286-18.285h73.144c10.099,0,18.286,8.187,18.286,18.285L123.429,82.286z M75.429,27.429    H61.714v34.286H48l20.571,27.429l20.572-27.429H75.429V27.429z"/>
    </g>
  </g>
</svg>
