<?xml version='1.0' encoding='iso-8859-1'?>
<svg version="1.1" xmlns="http://www.w3.org/2000/svg" viewBox="0 0 137.144 137.144" xmlns:xlink="http://www.w3.org/1999/xlink" enable-background="new 0 0 137.144 137.144">
  <g>
    <g>
      <path d="m92.572,48.001c-13.255,0-24,10.745-24,24 0,13.255 10.745,24 24,24 13.255,0 24-10.745 24-24 0.001-13.255-10.745-24-24-24zm0,41.143c-9.468,0-17.143-7.675-17.143-17.143 0-9.468 7.675-17.143 17.143-17.143 9.468,0 17.143,7.675 17.143,17.143 0,9.468-7.675,17.143-17.143,17.143zm17.143-89.144h-82.286c-15.149,0-27.429,12.28-27.429,27.429v82.286c0,15.148 12.28,27.429 27.429,27.429h82.286c15.148,0 27.429-12.281 27.429-27.429v-82.286c0-15.149-12.28-27.429-27.429-27.429zm13.715,102.858c0,11.361-9.21,20.572-20.572,20.572h-68.572c-11.361,0-20.571-9.211-20.571-20.572v-68.572c0-11.361 9.21-20.572 20.571-20.572h68.572c11.362,0 20.572,9.211 20.572,20.572v68.572zm-78.858-54.857c-13.255,0-24,10.745-24,24 0,13.255 10.745,24 24,24 13.255,0 24-10.745 24-24 0-13.255-10.745-24-24-24zm0,41.143c-9.468,0-17.143-7.675-17.143-17.143 0-9.468 7.675-17.143 17.143-17.143 9.468,0 17.143,7.675 17.143,17.143 0,9.468-7.676,17.143-17.143,17.143z"/>
    </g>
  </g>
</svg>
