<?xml version='1.0' encoding='iso-8859-1'?>
<svg version="1.1" xmlns="http://www.w3.org/2000/svg" viewBox="0 0 137.145 137.145" xmlns:xlink="http://www.w3.org/1999/xlink" enable-background="new 0 0 137.145 137.145">
  <g>
    <g>
      <path d="m109.716,0h-82.287c-15.149,0-27.429,12.281-27.429,27.429v82.287c0,15.149 12.28,27.429 27.429,27.429h82.287c15.148,0 27.429-12.28 27.429-27.429v-82.287c-0.001-15.148-12.281-27.429-27.429-27.429zm13.714,102.858c0,11.361-9.21,20.572-20.572,20.572h-68.572c-11.361,0-20.572-9.211-20.572-20.572v-68.572c0-11.361 9.21-20.572 20.572-20.572h68.572c11.361,0 20.572,9.211 20.572,20.572v68.572zm-41.143-75.429c-11.361-3.55271e-15-20.572,9.21-20.572,20.572 0,3.918 1.155,7.542 3.056,10.658l-37.342,37.342 6.858,6.856 3.428-3.429 10.285,10.287 13.714-13.714-10.285-10.286 20.199-20.199c3.117,1.901 6.741,3.056 10.659,3.056 11.361,0 20.571-9.21 20.571-20.571 0-11.362-9.21-20.572-20.571-20.572zm0,27.429c-3.787,0-6.857-3.07-6.857-6.857 0-3.787 3.07-6.857 6.857-6.857 3.787,0 6.857,3.07 6.857,6.857 0,3.787-3.07,6.857-6.857,6.857z"/>
    </g>
  </g>
</svg>
