<?xml version='1.0' encoding='iso-8859-1'?>
<svg version="1.1" xmlns="http://www.w3.org/2000/svg" viewBox="0 0 137.144 137.144" xmlns:xlink="http://www.w3.org/1999/xlink" enable-background="new 0 0 137.144 137.144">
  <g>
    <g>
      <path d="M109.715,0H27.429C12.28,0,0,12.28,0,27.429v82.287c0,15.148,12.28,27.428,27.429,27.428h82.286    c15.148,0,27.429-12.28,27.429-27.428V27.429C137.144,12.28,124.863,0,109.715,0z M123.429,102.858    c0,11.362-9.21,20.572-20.572,20.572H34.286c-11.362,0-20.572-9.21-20.572-20.572V34.286c0-11.361,9.21-20.571,20.572-20.571    h68.572c11.361,0,20.572,9.21,20.572,20.571V102.858z"/>
    </g>
  </g>
  <g>
    <g>
      <path d="m54.858,68.573l13.714,13.714c0,0 20.111-16.828 27.429-27.429 7.93-11.487 13.714-27.429 13.714-27.429l-54.857,41.144zm-27.429,20.571c0,0 0.097-0.07 0.2-0.146-0.059,0.044-0.113,0.083-0.2,0.146zc-4.039,2.932-7.813,4.926-6.857,6.857 10.295,20.811 34.286-13.714 34.286-13.714l-6.857-6.857-20.572,13.714z"/>
    </g>
  </g>
</svg>
