<?xml version='1.0' encoding='iso-8859-1'?>
<svg version="1.1" xmlns="http://www.w3.org/2000/svg" viewBox="0 0 137.145 137.145" xmlns:xlink="http://www.w3.org/1999/xlink" enable-background="new 0 0 137.145 137.145">
  <g>
    <g>
      <path d="m27.43,82.287h82.286v-6.857h-82.286v6.857zm-0,13.714h82.286v-6.857h-82.286v6.857zm-0,13.714h41.143v-6.857h-41.143v6.857zm0-41.142h82.286v-6.858h-82.286v6.858zm82.285-68.573h-82.286c-15.148,0-27.429,12.28-27.429,27.429v82.286c0,15.149 12.28,27.429 27.429,27.429h82.286c15.148,0 27.429-12.28 27.429-27.429v-82.286c0-15.149-12.28-27.429-27.429-27.429zm13.715,102.859c0,11.361-9.21,20.572-20.571,20.572h-68.573c-11.362,0-20.571-9.211-20.571-20.572v-68.573c0-11.361 9.21-20.572 20.571-20.572h68.572c11.361,0 20.571,9.211 20.571,20.572v68.573zm-95.999-48.001h82.286v-6.857h-82.286v6.857zm-0-13.714h82.286v-6.857h-82.286v6.857z"/>
    </g>
  </g>
</svg>
