<?xml version='1.0' encoding='iso-8859-1'?>
<svg version="1.1" xmlns="http://www.w3.org/2000/svg" viewBox="0 0 137.145 137.145" xmlns:xlink="http://www.w3.org/1999/xlink" enable-background="new 0 0 137.145 137.145">
  <g>
    <g>
      <path d="M109.715,0H27.429C12.281,0,0,12.281,0,27.429v82.287c0,15.148,12.28,27.428,27.429,27.428h82.286    c15.149,0,27.429-12.28,27.429-27.428V27.429C137.144,12.281,124.864,0,109.715,0z M123.43,102.859    c0,11.361-9.21,20.572-20.572,20.572H34.287c-11.362,0-20.572-9.21-20.572-20.572V34.287c0-11.362,9.21-20.572,20.572-20.572    h68.572c11.362,0,20.572,9.21,20.572,20.572V102.859z M27.429,109.717h6.857V27.43h-6.857V109.717z M92.573,27.43    c-5.681,0-10.286,4.605-10.286,10.286c0,0.528,0.224,0.982,0.3,1.489l-18.172,13.63c-7.667-11.72-23.272-11.689-23.272-11.689    v54.857c0,0,27.321,0.139,27.429-27.429c0.007-1.749-0.102-3.381-0.305-4.914l20.877-15.657V47.31    c1.083,0.388,2.212,0.692,3.429,0.692c5.681,0,10.286-4.605,10.286-10.286C102.859,32.035,98.253,27.43,92.573,27.43z"/>
    </g>
  </g>
</svg>
