<?xml version='1.0' encoding='iso-8859-1'?>
<svg version="1.1" xmlns="http://www.w3.org/2000/svg" viewBox="0 0 137.144 137.144" xmlns:xlink="http://www.w3.org/1999/xlink" enable-background="new 0 0 137.144 137.144">
  <g>
    <g>
      <path d="m68.572,20.572c-26.51,0-48.001,21.491-48.001,48.001 0,26.51 21.491,48 48.001,48 26.51,0 48.001-21.49 48.001-48-1.42109e-14-26.51-21.491-48.001-48.001-48.001zm27.43,48.001c0,0-0.001,0 0,0v6.857h13.023c-2.903,17.209-16.403,30.808-33.595,33.706v-13.135h-6.857-6.857v13.134c-17.193-2.897-30.693-16.496-33.596-33.705h13.023v-6.857-6.857h-13.092c2.902-17.187 16.459-30.693 33.664-33.596v13.023h13.715v-13.023c17.205,2.902 30.762,16.408 33.664,33.595h-13.093l.001,6.858c-0.001-0.001 0,0 0,0zm13.713-68.573h-82.286c-15.149,0-27.429,12.28-27.429,27.429v82.287c0,15.148 12.28,27.428 27.429,27.428h82.286c15.149,0 27.429-12.28 27.429-27.428v-82.287c0-15.149-12.28-27.429-27.429-27.429zm13.715,102.858c0,11.362-9.211,20.572-20.571,20.572h-68.573c-11.361,0-20.572-9.21-20.572-20.572v-68.572c0-11.361 9.211-20.571 20.572-20.571h68.572c11.361,0 20.571,9.21 20.571,20.571v68.572zm-54.856-41.143c-3.787,0-6.857,3.07-6.857,6.857 0,3.787 3.07,6.857 6.857,6.857 3.787,0 6.857-3.07 6.857-6.857 1.42109e-14-3.787-3.07-6.857-6.857-6.857zm0-20.571c-15.148,0-27.429,12.28-27.429,27.429 0,15.148 12.28,27.429 27.429,27.429 15.148,0 27.428-12.28 27.428-27.428v-0.001c1.42109e-14-15.149-12.28-27.429-27.428-27.429zm0,48c-11.361,0-20.572-9.21-20.572-20.572 0-11.362 9.21-20.572 20.572-20.572 11.361,0 20.571,9.21 20.571,20.572 1.42109e-14,11.362-9.21,20.572-20.571,20.572z"/>
    </g>
  </g>
</svg>
