<?xml version='1.0' encoding='iso-8859-1'?>
<svg version="1.1" xmlns="http://www.w3.org/2000/svg" viewBox="0 0 137.144 137.144" xmlns:xlink="http://www.w3.org/1999/xlink" enable-background="new 0 0 137.144 137.144">
  <g>
    <g>
      <path d="m109.715,0h-82.286c-15.149,0-27.429,12.28-27.429,27.429v82.286c0,15.149 12.28,27.429 27.429,27.429h82.286c15.149,0 27.429-12.28 27.429-27.429v-82.286c0-15.149-12.28-27.429-27.429-27.429zm13.715,102.858c0,11.361-9.21,20.572-20.572,20.572h-68.572c-11.361,0-20.571-9.211-20.571-20.572v-68.572c0-11.361 9.21-20.572 20.571-20.572h68.572c11.362,0 20.572,9.211 20.572,20.572v68.572zm-48.065-12.492c-0.008,0.153-0.015,0.274-0.018,0.338 0.004-0.075 0.01-0.193 0.018-0.338zm3.493,5.635h-20.572c-1.894,0-3.429,1.535-3.429,3.428 0,1.894 1.535,3.429 3.429,3.429h20.572c1.893,0 3.429-1.535 3.429-3.429 0-1.893-1.535-3.428-3.429-3.428zm-6.857,13.714h-6.857c-1.894,0-3.429,1.535-3.429,3.429 0,1.894 1.535,3.429 3.429,3.429h6.857c1.894,0 3.429-1.535 3.429-3.429-0.001-1.893-1.536-3.429-3.429-3.429zm-3.429-82.286c-15.148-3.55271e-15-27.429,12.281-27.429,27.429 0,9.968 5.763,15.769 13.714,20.572 0,0 6.62,4.16 6.857,13.715h13.714c0.484-9.111 6.857-13.715 6.857-13.715 7.951-4.803 13.714-10.604 13.714-20.572 0.002-15.148-12.278-27.429-27.427-27.429zm-6.813,63.502c-0.004-0.144-0.009-0.358-0.017-0.678 0.007,0.263 0.013,0.507 0.017,0.678zm-.044-1.787c0,0 0.006,0.244 0.014,0.555-0.004-0.167-0.009-0.346-0.014-0.555zm13.714,0c0,0-0.003,0.051-0.007,0.128 0.003-0.046 0.005-0.079 0.007-0.128z"/>
    </g>
  </g>
</svg>
