<?xml version='1.0' encoding='iso-8859-1'?>
<svg version="1.1" xmlns="http://www.w3.org/2000/svg" viewBox="0 0 137.144 137.144" xmlns:xlink="http://www.w3.org/1999/xlink" enable-background="new 0 0 137.144 137.144">
  <g>
    <g>
      <path d="M109.715,0H27.429C12.28,0,0,12.28,0,27.428v82.287c0,15.149,12.28,27.429,27.429,27.429h82.286    c15.149,0,27.429-12.28,27.429-27.429V27.428C137.144,12.28,124.864,0,109.715,0z M123.43,102.858    c0,11.362-9.21,20.571-20.572,20.571H34.286c-11.361,0-20.572-9.21-20.572-20.571V89.143l27.429-27.429L68.572,96l41.144-41.143    L96.001,48L68.572,75.429L41.143,41.142L13.714,68.572V34.286c0-11.362,9.21-20.572,20.572-20.572h68.572    c11.361,0,20.572,9.21,20.572,20.572V102.858z"/>
    </g>
  </g>
</svg>
