<?xml version='1.0' encoding='iso-8859-1'?>
<svg version="1.1" xmlns="http://www.w3.org/2000/svg" viewBox="0 0 137.145 137.145" xmlns:xlink="http://www.w3.org/1999/xlink" enable-background="new 0 0 137.145 137.145">
  <g>
    <g>
      <path d="m99.168,22.681c-2.816-2.816-7.382-2.816-10.198,0l-25.497,25.495c-2.816,2.816-2.816,7.382 0,10.198l5.013,5.013-5.099,5.099-5.012-5.013c-2.816-2.816-7.382-2.816-10.198,0l-25.497,25.497c-2.816,2.816-2.816,7.382 0,10.198l15.298,15.297c2.816,2.816 7.382,2.816 10.198,0l25.496-25.495c2.816-2.816 2.816-7.382 0-10.199l-5.225-5.225 5.099-5.099 5.225,5.225c2.816,2.816 7.382,2.816 10.198,0l25.496-25.496c2.816-2.816 2.816-7.382 0-10.198l-15.297-15.297zm-35.695,66.289l-15.298,15.298c-2.816,2.816-7.382,2.816-10.198,0l-5.099-5.1c-2.816-2.816-2.816-7.382 0-10.198l15.298-15.298c2.786-2.785 7.272-2.794 10.094-0.069l-2.453,2.453c-1.397,1.397-1.397,3.662 0,5.059 1.397,1.397 3.662,1.397 5.06,0l2.47-2.471 .126,.126c2.817,2.818 2.817,7.384 0,10.2zm40.794-40.794l-15.298,15.298c-2.816,2.816-7.382,2.816-10.198,0l-.126-.126 2.471-2.47c1.397-1.397 1.397-3.662 0-5.06s-3.662-1.397-5.06,0l-2.453,2.453c-2.725-2.823-2.716-7.309 0.069-10.094l15.297-15.298c2.816-2.816 7.382-2.816 10.198,0l5.099,5.1c2.817,2.815 2.817,7.381 0.001,10.197zm5.449-48.176h-82.286c-15.149,0-27.429,12.281-27.429,27.429v82.287c-1.22211e-15,15.148 12.28,27.429 27.429,27.429h82.286c15.148,0 27.429-12.281 27.429-27.429v-82.287c-0.001-15.148-12.281-27.429-27.429-27.429zm13.714,102.859c0,11.361-9.21,20.572-20.572,20.572h-68.572c-11.362,0-20.571-9.211-20.571-20.572v-68.572c0-11.361 9.21-20.572 20.571-20.572h68.572c11.362,0 20.572,9.211 20.572,20.572v68.572z"/>
    </g>
  </g>
</svg>
