<?xml version='1.0' encoding='iso-8859-1'?>
<svg version="1.1" xmlns="http://www.w3.org/2000/svg" viewBox="0 0 137.145 137.145" xmlns:xlink="http://www.w3.org/1999/xlink" enable-background="new 0 0 137.145 137.145">
  <g>
    <g>
      <path d="M109.716,27.43H89.144v13.715h20.572V27.43z M109.716,0H27.429C12.281,0,0,12.281,0,27.429v82.287    c0,15.148,12.28,27.428,27.429,27.428h82.286c15.148,0,27.429-12.28,27.429-27.428V27.429C137.144,12.281,124.864,0,109.716,0z     M123.43,102.859c0,11.361-9.21,20.572-20.572,20.572H34.286c-11.361,0-20.572-9.21-20.572-20.572V34.287    c0-11.362,9.21-20.572,20.572-20.572h68.572c11.362,0,20.572,9.21,20.572,20.572V102.859z M48.001,27.43H27.429v13.715h20.571    V27.43z M109.716,48.002H89.144V75.43c0,0-0.151,13.715-20.571,13.715c-19.421,0-20.572-13.715-20.572-13.715V48.002H27.429V75.43    c0,0,0.868,34.67,41.143,34.286c44.991-0.428,41.143-34.286,41.143-34.286V48.002z"/>
    </g>
  </g>
</svg>
