<?xml version='1.0' encoding='iso-8859-1'?>
<svg version="1.1" xmlns="http://www.w3.org/2000/svg" viewBox="0 0 137.144 137.144" xmlns:xlink="http://www.w3.org/1999/xlink" enable-background="new 0 0 137.144 137.144">
  <g>
    <g>
      <path d="m68.572,41.143h16.78l-24.116,24.116c-3.94-2.189-8.409-3.545-13.236-3.545-15.149,0-27.429,12.28-27.429,27.429 0,15.148 12.28,27.429 27.429,27.429 15.149,0 27.429-12.281 27.429-27.429 0-4.827-1.355-9.296-3.545-13.236l24.117-24.117v16.781l13.714-6.857v-34.286h-34.286l-6.857,13.715zm-20.571,61.715c-7.574,0-13.715-6.14-13.715-13.714s6.14-13.714 13.715-13.714c7.574,0 13.714,6.139 13.714,13.714s-6.14,13.714-13.714,13.714zm61.714-102.858h-82.286c-15.149,0-27.429,12.28-27.429,27.429v82.286c0,15.149 12.28,27.429 27.429,27.429h82.286c15.149,0 27.429-12.28 27.429-27.429v-82.286c0-15.149-12.28-27.429-27.429-27.429zm13.715,102.858c0,11.362-9.21,20.572-20.571,20.572h-68.573c-11.361,0-20.572-9.21-20.572-20.572v-68.572c0-11.362 9.21-20.572 20.572-20.572h68.572c11.361,0 20.571,9.21 20.571,20.572v68.572z"/>
    </g>
  </g>
</svg>
