<?xml version='1.0' encoding='iso-8859-1'?>
<svg version="1.1" xmlns="http://www.w3.org/2000/svg" viewBox="0 0 137.144 137.144" xmlns:xlink="http://www.w3.org/1999/xlink" enable-background="new 0 0 137.144 137.144">
  <g>
    <g>
      <path d="m109.715,0h-82.286c-15.148,0-27.429,12.281-27.429,27.429v82.286c0,15.149 12.28,27.429 27.429,27.429h82.286c15.149,0 27.429-12.28 27.429-27.429v-82.286c0-15.148-12.28-27.429-27.429-27.429zm13.715,102.858c0,11.361-9.21,20.572-20.572,20.572h-68.572c-11.361,0-20.571-9.21-20.571-20.572v-68.572c0-11.361 9.21-20.572 20.571-20.572h68.572c11.362,0 20.572,9.21 20.572,20.572v68.572zm-41.143-13.714l6.857,27.429c0,0 3.924-11.62 6.857-20.572-0.73-0.515 0.271-0.827 0,0 9.241,6.523 20.571,13.714 20.571,13.714l-13.714-27.429-20.571,6.858zm-61.715,20.572c-3.55271e-15,0 11.331-7.192 20.572-13.714-0.271-0.827 0.73-0.515 0,0 2.932,8.952 6.856,20.571 6.856,20.571l6.857-27.429-20.572-6.857-13.713,27.429zm62.275-31.585c1.049,2.442 3.47,4.156 6.297,4.156 3.787,0 6.857-3.07 6.857-6.857 0-2.816-1.705-5.225-4.132-6.281 1.445-2.33 2.522-4.898 3.23-7.616 0.309,0.043 0.583,0.182 0.903,0.182 3.787,0 6.857-3.07 6.857-6.857s-3.07-6.857-6.857-6.857c-0.32,0-0.594,0.14-0.903,0.182-0.708-2.718-1.784-5.286-3.23-7.616 2.427-1.056 4.132-3.464 4.132-6.281 0-3.787-3.07-6.857-6.857-6.857-2.827,0-5.248,1.715-6.297,4.156-2.337-1.426-4.875-2.558-7.602-3.244 0.043-0.312 0.184-0.589 0.184-0.913 0-3.787-3.07-6.857-6.857-6.857-3.787,0-6.857,3.07-6.857,6.857 0,0.32 0.14,0.595 0.182,0.903-2.717,0.708-5.287,1.781-7.623,3.218-1.058-2.421-3.462-4.121-6.273-4.121-3.787,0-6.857,3.07-6.857,6.857 0,2.812 1.7,5.215 4.121,6.273-1.436,2.336-2.51,4.906-3.218,7.623-0.309-0.042-0.583-0.182-0.904-0.182-3.787,0-6.857,3.07-6.857,6.857s3.07,6.857 6.857,6.857c0.324,0 0.601-0.141 0.913-0.184 0.685,2.726 1.818,5.265 3.244,7.601-2.442,1.05-4.157,3.471-4.157,6.297 0,3.787 3.07,6.857 6.857,6.857 2.816,0 5.225-1.705 6.281-4.132 2.33,1.445 4.898,2.522 7.616,3.229-0.042,0.309-0.182,0.583-0.182,0.903 0,3.787 3.07,6.857 6.857,6.857 3.787,0 6.857-3.07 6.857-6.857 0-0.324-0.141-0.601-0.184-0.912 2.727-0.684 5.265-1.815 7.602-3.241z"/>
    </g>
  </g>
</svg>
