<?xml version='1.0' encoding='iso-8859-1'?>
<svg version="1.1" xmlns="http://www.w3.org/2000/svg" viewBox="0 0 137.145 137.145" xmlns:xlink="http://www.w3.org/1999/xlink" enable-background="new 0 0 137.145 137.145">
  <g>
    <g>
      <path d="m96.001,75.429c0,0 2.14,27.313-27.429,27.429-30.211,0.118-27.429-27.429-27.429-27.429h-13.714c0,0-2.496,41.143 41.143,41.143 42.925,0 41.143-41.143 41.143-41.143h-13.714zm-48,0c0,11.361 9.21,20.572 20.571,20.572s20.572-9.211 20.572-20.572h-13.714v-6.858h13.714v-6.857h-13.714v-6.857h13.714v-6.857h-13.714v-6.857h13.714c0-11.361-9.21-20.571-20.572-20.571s-20.571,9.211-20.571,20.571h13.714v6.857h-13.714v6.857h13.714v6.857h-13.714v6.857h13.714v6.858h-13.714zm61.715-75.429h-82.287c-15.148,0-27.429,12.281-27.429,27.428v82.287c0,15.148 12.28,27.429 27.429,27.429h82.286c15.148,0 27.429-12.281 27.429-27.429v-82.287c0-15.147-12.28-27.428-27.428-27.428zm13.714,102.858c0,11.361-9.21,20.572-20.571,20.572h-68.573c-11.362,0-20.572-9.211-20.572-20.572v-68.572c0-11.361 9.21-20.572 20.572-20.572h68.572c11.361,0 20.571,9.211 20.571,20.572v68.572z"/>
    </g>
  </g>
</svg>
