<?xml version='1.0' encoding='iso-8859-1'?>
<svg version="1.1" xmlns="http://www.w3.org/2000/svg" viewBox="0 0 137.145 137.145" xmlns:xlink="http://www.w3.org/1999/xlink" enable-background="new 0 0 137.145 137.145">
  <g>
    <g>
      <path d="m51.429,44.571l-17.116-17.115-6.858,6.858 17.116,17.115-10.285,10.286 27.459,.03-.03-27.459-10.286,10.285zm58.287-44.571h-82.287c-15.148,0-27.429,12.28-27.429,27.429v82.286c0,15.149 12.28,27.429 27.429,27.429h82.286c15.148,0 27.429-12.28 27.429-27.429v-82.286c0-15.149-12.28-27.429-27.428-27.429zm13.714,102.859c0,11.361-9.21,20.571-20.571,20.571h-68.573c-11.362,0-20.572-9.21-20.572-20.571v-68.573c0-11.361 9.21-20.571 20.572-20.571h68.572c11.361,0 20.571,9.21 20.571,20.571v68.573zm-78.858-17.145l-17.116,17.116 6.858,6.858 17.116-17.116 10.285,10.286 .03-27.459-27.459,.029 10.286,10.286zm58.287-10.285h-27.429v27.429l10.286-10.286 17.116,17.116 6.858-6.858-17.116-17.116 10.285-10.285zm-17.143-30.858l-10.286-10.285-.03,27.459 27.459-.03-10.285-10.286 17.116-17.115-6.858-6.858-17.116,17.115z"/>
    </g>
  </g>
</svg>
