<?xml version='1.0' encoding='iso-8859-1'?>
<svg version="1.1" xmlns="http://www.w3.org/2000/svg" viewBox="0 0 137.144 137.144" xmlns:xlink="http://www.w3.org/1999/xlink" enable-background="new 0 0 137.144 137.144">
  <g>
    <g>
      <path d="m68.573,75.43c7.574,0 13.714-4.605 13.714-10.286 0-5.681-6.14-10.286-13.714-10.286-7.574,0-13.714,4.605-13.714,10.286-0.001,5.681 6.14,10.286 13.714,10.286zm24-6.857c1.893,0 3.428-1.535 3.428-3.428 0-1.894-1.535-3.429-3.428-3.429-1.894,0-3.429,1.535-3.429,3.429 1.42109e-14,1.893 1.535,3.428 3.429,3.428zm17.142-68.573h-82.286c-15.149,0-27.429,12.281-27.429,27.429v82.286c0,15.149 12.28,27.429 27.429,27.429h82.286c15.148,0 27.429-12.28 27.429-27.429v-82.286c0-15.148-12.28-27.429-27.429-27.429zm13.715,102.858c0,11.361-9.21,20.571-20.571,20.571h-68.573c-11.361,0-20.572-9.211-20.572-20.571v-68.572c0-11.361 9.21-20.572 20.572-20.572h68.572c11.361,0 20.571,9.211 20.571,20.572v68.572zm-78.856-34.285c1.894,0 3.429-1.535 3.429-3.428 0-1.894-1.535-3.429-3.429-3.429s-3.429,1.535-3.429,3.429c0,1.893 1.535,3.428 3.429,3.428zm-17.143,20.571h82.286v-48h-82.286v48zm6.857-34.286c3.787,0 6.857-3.07 6.857-6.857h54.858c0,3.787 3.07,6.857 6.857,6.857v20.572c-3.787,0-6.857,3.07-6.857,6.857h-54.858c0-3.787-3.07-6.857-6.857-6.857v-20.572z"/>
    </g>
  </g>
</svg>
