<?xml version='1.0' encoding='iso-8859-1'?>
<svg version="1.1" xmlns="http://www.w3.org/2000/svg" viewBox="0 0 137.144 137.144" xmlns:xlink="http://www.w3.org/1999/xlink" enable-background="new 0 0 137.144 137.144">
  <g>
    <g>
      <path d="m68.95,109.717c0.468,0.001 0.298,0.001 0,0zm33.948-27.933c-0.009,0.111-0.016,0.205-0.04,0.503 1.42109e-14,0 0.023-0.288 0.04-0.503zc0.016-0.197 0.019-0.239 0,0zm-27.469,14.217c-14.457-0.11-26.535-7.568-27.429-27.429-0.884-19.645 14.738-27.965 27.429-27.429 21.291,0.898 27.429,13.715 27.429,13.715s-2.649-26.685-34.286-27.429c-17.176-0.404-29.408,7.821-36,19.5-13.963,24.736 0.757,62.672 36,62.786 0,0 0.187,0 0.378,0.001 3.581-0.022 31.817-1.034 33.908-27.43 0,0.001-8.468,13.859-27.429,13.715zm34.286-96.001h-82.286c-15.149,0-27.429,12.28-27.429,27.429v82.287c0,15.148 12.28,27.428 27.429,27.428h82.286c15.148,0 27.429-12.28 27.429-27.428v-82.287c0-15.149-12.281-27.429-27.429-27.429zm13.714,102.858c0,11.362-9.21,20.572-20.571,20.572h-68.572c-11.361,0-20.572-9.21-20.572-20.572v-68.572c0-11.361 9.21-20.571 20.572-20.571h68.572c11.361,0 20.571,9.21 20.571,20.571v68.572zm-54.479,6.859c-0.117,0-0.154,0-0.378-0.001 0,0 0.135,0.002 0.378,0.001z"/>
    </g>
  </g>
</svg>
