<?xml version='1.0' encoding='iso-8859-1'?>
<svg version="1.1" xmlns="http://www.w3.org/2000/svg" viewBox="0 0 137.144 137.144" xmlns:xlink="http://www.w3.org/1999/xlink" enable-background="new 0 0 137.144 137.144">
  <g>
    <g>
      <path d="m68.572,27.428c-15.148,0-27.429,12.28-27.429,27.429v27.428c0,15.149 12.281,27.429 27.429,27.429 15.149,0 27.429-12.28 27.429-27.429v-27.428c0-15.148-12.281-27.429-27.429-27.429zm6.857,27.429c0,3.787-3.07,6.857-6.857,6.857-3.787,0-6.857-3.071-6.857-6.857v-13.714c0-3.788 3.07-6.858 6.857-6.858 3.787,0 6.857,3.07 6.857,6.858v13.714zm34.286-54.857h-82.286c-15.149,0-27.429,12.28-27.429,27.429v82.286c0,15.149 12.28,27.429 27.429,27.429h82.286c15.148,0 27.429-12.28 27.429-27.429v-82.286c0-15.149-12.28-27.429-27.429-27.429zm13.715,102.858c0,11.361-9.21,20.572-20.571,20.572h-68.573c-11.362,0-20.572-9.21-20.572-20.572v-68.572c0-11.362 9.21-20.572 20.572-20.572h68.572c11.361,0 20.571,9.21 20.571,20.572v68.572z"/>
    </g>
  </g>
</svg>
