<?xml version='1.0' encoding='iso-8859-1'?>
<svg version="1.1" xmlns="http://www.w3.org/2000/svg" viewBox="0 0 137.144 137.144" xmlns:xlink="http://www.w3.org/1999/xlink" enable-background="new 0 0 137.144 137.144">
  <g fill-rule="evenodd">
    <path d="m102.07,48.575c-1.615-13.453-13.997-23.915-29.045-23.915-12.868,0-23.77,7.658-27.679,18.282-1.008-0.17-2.038-0.278-3.095-0.278-10.227,0-18.515,8.29-18.515,18.515 0,7.46 4.421,13.873 10.778,16.806 0.298,0.138 0.599,0.27 0.905,0.393 0.176,0.07 0.356,0.132 0.534,0.196l5.19,31.141h54.858l4.807-28.844c0.06-0.014 0.122-0.025 0.182-0.039 0.293-0.072 0.588-0.138 0.874-0.224 0.303-0.092 0.596-0.206 0.89-0.314 6.414-2.357 11-8.501 11-15.734 0.001-7.49-4.91-13.828-11.684-15.985zm-40.355,54.283h-6.857v-20.572h6.857v20.572zm20.571,0h-6.857v-20.572h6.857v20.572z"/>
    <path d="M109.715,0H27.429C12.28,0,0,12.28,0,27.429v82.286  c0,15.148,12.28,27.429,27.429,27.429h82.286c15.149,0,27.429-12.281,27.429-27.429V27.429C137.144,12.28,124.864,0,109.715,0z   M123.43,102.858c0,11.361-9.21,20.572-20.572,20.572H34.286c-11.361,0-20.571-9.211-20.571-20.572V34.286  c0-11.361,9.21-20.572,20.571-20.572h68.572c11.362,0,20.572,9.211,20.572,20.572V102.858z"/>
  </g>
</svg>
