<?xml version='1.0' encoding='iso-8859-1'?>
<svg version="1.1" xmlns="http://www.w3.org/2000/svg" viewBox="0 0 137.145 137.145" xmlns:xlink="http://www.w3.org/1999/xlink" enable-background="new 0 0 137.145 137.145">
  <g>
    <g>
      <path d="m109.715,0h-82.286c-15.148,0-27.429,12.281-27.429,27.429v82.287c0,15.148 12.28,27.428 27.429,27.428h82.286c15.149,0 27.429-12.28 27.429-27.428v-82.287c0-15.148-12.28-27.429-27.429-27.429zm13.715,102.859c0,11.361-9.21,20.572-20.572,20.572h-68.571c-11.361,0-20.572-9.21-20.572-20.572v-68.572c0-11.362 9.21-20.572 20.572-20.572h68.572c11.362,0 20.572,9.21 20.572,20.572v68.572zm-54.859-75.429c-22.723-7.10543e-15-41.143,18.42-41.143,41.143 0,22.723 18.421,41.143 41.143,41.143 22.723,0 41.144-18.42 41.144-41.143-1.42109e-14-22.722-18.421-41.143-41.144-41.143zm-13.714,20.572c3.787,0 6.857,3.07 6.857,6.857 0,3.787-3.07,6.857-6.857,6.857-3.787,0-6.857-3.07-6.857-6.857 0-3.787 3.07-6.857 6.857-6.857zm34.286,41.143h-41.143v-6.857h41.143v6.857zm-6.857-27.429c-3.787,0-6.857-3.07-6.857-6.857 0-3.787 3.07-6.857 6.857-6.857 3.787,0 6.857,3.07 6.857,6.857 0,3.787-3.07,6.857-6.857,6.857z"/>
    </g>
  </g>
</svg>
