<?xml version='1.0' encoding='iso-8859-1'?>
<svg version="1.1" xmlns="http://www.w3.org/2000/svg" viewBox="0 0 137.145 137.145" xmlns:xlink="http://www.w3.org/1999/xlink" enable-background="new 0 0 137.145 137.145">
  <g>
    <g>
      <path d="m89.144,65.143l-48-24v54.858l48-24.001v24.001h13.715v-54.858h-13.715v24zm20.572-65.143h-82.287c-15.148,0-27.429,12.281-27.429,27.429v82.287c0,15.149 12.28,27.429 27.429,27.429h82.286c15.149,0 27.429-12.28 27.429-27.429v-82.287c0-15.148-12.28-27.429-27.428-27.429zm13.714,102.858c0,11.361-9.21,20.572-20.572,20.572h-68.572c-11.361,0-20.571-9.211-20.571-20.572v-68.572c0-11.361 9.21-20.572 20.571-20.572h68.572c11.362,0 20.572,9.211 20.572,20.572v68.572z"/>
    </g>
  </g>
</svg>
