<?xml version='1.0' encoding='iso-8859-1'?>
<svg version="1.1" xmlns="http://www.w3.org/2000/svg" viewBox="0 0 137.145 137.145" xmlns:xlink="http://www.w3.org/1999/xlink" enable-background="new 0 0 137.145 137.145">
  <g>
    <g>
      <path d="M109.716,0H27.429C12.28,0,0,12.281,0,27.429v82.286c0,15.148,12.28,27.429,27.429,27.429h82.287    c15.149,0,27.429-12.28,27.429-27.429V27.429C137.144,12.281,124.864,0,109.716,0z M123.43,54.859H41.144v6.857h82.286v6.857    H41.144v6.857h82.286v6.857H41.144v6.857h82.286v6.857H41.144v6.857h82.286c0,2.417-0.494,4.703-1.26,6.857H41.144v6.857h76.947    c-3.765,4.18-9.164,6.857-15.232,6.857H34.286c-6.069,0-11.467-2.677-15.233-6.857h8.375v-6.857H14.974    c-0.766-2.154-1.26-4.439-1.26-6.857h13.715v-6.857H13.715v-6.857h13.715v-6.857H13.715V75.43h13.715v-6.857H13.715v-6.857h13.715    v-6.857H13.715V41.144H123.43V54.859z"/>
    </g>
  </g>
</svg>
