<?xml version='1.0' encoding='iso-8859-1'?>
<svg version="1.1" xmlns="http://www.w3.org/2000/svg" viewBox="0 0 137.144 137.144" xmlns:xlink="http://www.w3.org/1999/xlink" enable-background="new 0 0 137.144 137.144">
  <g>
    <g>
      <path d="m102.858,0h-68.572c-18.936,0-34.286,15.351-34.286,34.286v68.572c0,7.667 2.604,14.673 6.856,20.383v0.188h0.155c6.259,8.282 16.093,13.715 27.274,13.715h68.572c11.181,0 21.016-5.433 27.274-13.715h0.154v-0.187c4.253-5.71 6.858-12.717 6.858-20.384v-68.572c0.001-18.935-15.349-34.286-34.285-34.286zm20.572,82.287h-20.572v20.572h-68.572v-20.573h-20.572v-46.628c1.77636e-15-12.119 9.824-21.943 21.943-21.943h65.829c12.119,0 21.943,9.824 21.943,21.943v46.629zm.024-.525c0.009-0.202 0.02-0.454 0.032-0.745-0.011,0.242-0.021,0.49-0.032,0.745zm.324-7.468c0.011-0.252 0.02-0.454 0.026-0.586-0.006,0.124-0.014,0.318-0.026,0.586zm-75.777-19.436h13.715v34.286h13.714v-34.286h13.714l-20.571-27.429-20.572,27.429z"/>
    </g>
  </g>
</svg>
