<?xml version='1.0' encoding='iso-8859-1'?>
<svg version="1.1" xmlns="http://www.w3.org/2000/svg" viewBox="0 0 137.145 137.145" xmlns:xlink="http://www.w3.org/1999/xlink" enable-background="new 0 0 137.145 137.145">
  <g>
    <g>
      <path d="m102.85,45.865c-7.368-11.101-19.955-18.436-34.277-18.436-22.723,0-41.143,18.421-41.143,41.144 0,22.723 18.42,41.143 41.143,41.143 14.262,0 26.816-7.266 34.197-18.289l-27.34-22.854 27.42-22.708zm-34.277,8.993c-3.787,0-6.857-3.07-6.857-6.857 0-3.787 3.07-6.857 6.857-6.857s6.857,3.07 6.857,6.857c1.42109e-14,3.787-3.07,6.857-6.857,6.857zm41.143-54.858h-82.287c-15.148,0-27.429,12.281-27.429,27.429v82.287c0,15.148 12.28,27.429 27.429,27.429h82.286c15.149,0 27.429-12.281 27.429-27.429v-82.287c0.001-15.148-12.28-27.429-27.428-27.429zm13.714,102.859c0,11.361-9.21,20.571-20.571,20.571h-68.572c-11.361,0-20.572-9.21-20.572-20.571v-68.573c0-11.362 9.21-20.572 20.572-20.572h68.572c11.361,0 20.571,9.21 20.571,20.572v68.573zm-13.93-30.63c-0.127,1.151-0.301,2.289-0.497,3.418 0.197-1.105 0.371-2.24 0.497-3.418zm-6.641,19.272c0,0 1.794-2.507 3.548-6.774-1.007,2.355-2.227,4.596-3.637,6.7l.089,.074zm6.144-15.853c-0.115,0.644-0.207,1.319-0.345,1.931 0.143-0.636 0.232-1.284 0.345-1.931zm-6.144-29.79l-.008,.007c0.246,0.37 0.478,0.749 0.705,1.131-0.424-0.723-0.697-1.138-0.697-1.138zm6.857,22.715c-0.01,1.268-0.09,2.483-0.216,3.656 0.133-1.202 0.216-2.418 0.216-3.656zm-2.617-14.031c-0.434-1.191-0.894-2.352-1.432-3.489 0.479,1.04 0.956,2.199 1.432,3.489zm1.559,23.037c-0.568,2.531-1.303,4.737-2.065,6.652 0.879-2.13 1.552-4.361 2.065-6.652zm-2.992-26.526c-0.415-0.898-0.814-1.688-1.179-2.379 0.409,0.783 0.8,1.578 1.179,2.379zm2.859,8.083c-0.371-1.577-0.879-3.094-1.426-4.594 0.521,1.415 1.01,2.932 1.426,4.594zm.473,2.311c-0.149-0.785-0.287-1.567-0.473-2.31 0.18,0.764 0.336,1.529 0.473,2.31zm.718,7.126c0.02-2.509-0.29-4.875-0.718-7.126 0.407,2.324 0.718,4.685 0.718,7.126z"/>
    </g>
  </g>
</svg>
