<?xml version='1.0' encoding='iso-8859-1'?>
<svg version="1.1" xmlns="http://www.w3.org/2000/svg" viewBox="0 0 137.145 137.145" xmlns:xlink="http://www.w3.org/1999/xlink" enable-background="new 0 0 137.145 137.145">
  <g>
    <g>
      <path d="M109.716,0H27.429C12.28,0,0,12.281,0,27.429v82.286c0,15.149,12.28,27.429,27.429,27.429h82.286    c15.148,0,27.429-12.28,27.429-27.429V27.429C137.144,12.281,124.864,0,109.716,0z M123.43,102.859    c0,11.361-9.21,20.572-20.571,20.572H34.286c-11.361,0-20.572-9.21-20.572-20.572V34.286c0-11.361,9.21-20.572,20.572-20.572    h68.572c11.361,0,20.571,9.21,20.571,20.572V102.859z M96.001,27.43H27.429v34.285h68.572V48.001h6.857v13.714L61.716,75.429    v13.715h-6.857v27.429H75.43V89.144h-6.857v-6.857l41.143-13.714V41.144H96.001V27.43z"/>
    </g>
  </g>
</svg>
