<?xml version='1.0' encoding='iso-8859-1'?>
<svg version="1.1" xmlns="http://www.w3.org/2000/svg" viewBox="0 0 137.145 137.145" xmlns:xlink="http://www.w3.org/1999/xlink" enable-background="new 0 0 137.145 137.145">
  <g>
    <g>
      <path d="m97.961,27.429c-2.705,0-4.898,2.302-4.898,5.143v41.143c0,14.202-10.964,25.714-24.49,25.714-13.525,0-24.49-11.513-24.49-25.714v-20.571c0-8.522 6.578-15.429 14.694-15.429 11.532,0 14.694,10.286 14.694,10.286v25.715c0,2.84-2.193,5.143-4.898,5.143s-4.898-2.303-4.898-5.143v-20.572c0-2.841-2.193-5.143-4.898-5.143-2.705,0-4.898,2.303-4.898,5.143v20.571c0,8.521 6.579,15.429 14.694,15.429s14.694-6.908 14.694-15.429v-25.714h0.092c-2.27-11.737-12.734-20.572-24.582-20.572-13.526,0-24.49,11.513-24.49,25.715v20.571c0,18.121 12.794,32.967 29.388,35.482v0.519h9.796v-0.519c16.594-2.515 29.388-17.361 29.388-35.482v-41.143c-0.001-2.841-2.193-5.143-4.898-5.143zm11.754-27.429h-82.286c-15.148,0-27.429,12.281-27.429,27.429v82.287c0,15.148 12.28,27.429 27.429,27.429h82.286c15.149,0 27.429-12.28 27.429-27.429v-82.287c0-15.148-12.28-27.429-27.429-27.429zm13.715,102.858c0,11.361-9.21,20.572-20.571,20.572h-68.573c-11.361,0-20.572-9.211-20.572-20.572v-68.572c0-11.361 9.21-20.572 20.572-20.572h68.572c11.361,0 20.571,9.211 20.571,20.572v68.572z"/>
    </g>
  </g>
</svg>
