<?xml version='1.0' encoding='iso-8859-1'?>
<svg version="1.1" xmlns="http://www.w3.org/2000/svg" viewBox="0 0 137.145 137.145" xmlns:xlink="http://www.w3.org/1999/xlink" enable-background="new 0 0 137.145 137.145">
  <g>
    <g>
      <path d="m32.926,89.629l-5.497,20.125 20.044-5.581 40.229-40.226-14.725-14.366-40.051,40.048zm76.789-89.629h-82.286c-15.148,0-27.429,12.281-27.429,27.428v82.287c0,15.148 12.28,27.429 27.429,27.429h82.286c15.149,0 27.429-12.281 27.429-27.429v-82.287c0-15.147-12.28-27.428-27.429-27.428zm13.715,102.858c0,11.361-9.21,20.572-20.571,20.572h-68.573c-11.361,0-20.572-9.211-20.572-20.572v-68.572c0-11.361 9.21-20.572 20.572-20.572h68.572c11.361,0 20.571,9.211 20.571,20.572v68.572zm-31.272-72.457l-7.886,7.885 14.772,14.32 7.658-7.658c4.018-4.018 4.018-10.53 0-14.547-4.017-4.016-10.531-4.016-14.544,0z"/>
    </g>
  </g>
</svg>
