<?xml version='1.0' encoding='iso-8859-1'?>
<svg version="1.1" xmlns="http://www.w3.org/2000/svg" viewBox="0 0 137.144 137.144" xmlns:xlink="http://www.w3.org/1999/xlink" enable-background="new 0 0 137.144 137.144">
  <g>
    <g>
      <path d="m97.772,34.351l-63.421,63.421 5.02,5.02 63.422-63.421-5.021-5.02zm-36.057,10.221c0-9.468-7.675-17.143-17.143-17.143-9.468,0-17.143,7.675-17.143,17.143 0,9.467 7.675,17.143 17.143,17.143 9.467-0.001 17.143-7.676 17.143-17.143zm-27.429,0c0-5.681 4.605-10.286 10.286-10.286 5.681,0 10.286,4.605 10.286,10.286 0,5.681-4.605,10.286-10.286,10.286-5.681-0.001-10.286-4.606-10.286-10.286zm58.286,30.856c-9.468,0-17.143,7.676-17.143,17.143 0,9.468 7.675,17.143 17.143,17.143 9.468,0 17.143-7.675 17.143-17.143 0-9.467-7.675-17.143-17.143-17.143zm0,27.43c-5.681,0-10.286-4.605-10.286-10.286s4.605-10.286 10.286-10.286c5.681,0 10.286,4.605 10.286,10.286s-4.605,10.286-10.286,10.286zm17.143-102.858h-82.286c-15.149,0-27.429,12.28-27.429,27.429v82.286c0,15.148 12.28,27.429 27.429,27.429h82.286c15.148,0 27.429-12.28 27.429-27.429v-82.286c0-15.149-12.28-27.429-27.429-27.429zm13.715,102.858c0,11.362-9.21,20.572-20.572,20.572h-68.572c-11.361,0-20.571-9.21-20.571-20.572v-68.572c0-11.361 9.21-20.571 20.571-20.571h68.572c11.361,0 20.572,9.21 20.572,20.571v68.572z"/>
    </g>
  </g>
</svg>
