<?xml version='1.0' encoding='iso-8859-1'?>
<svg version="1.1" xmlns="http://www.w3.org/2000/svg" viewBox="0 0 137.144 137.144" xmlns:xlink="http://www.w3.org/1999/xlink" enable-background="new 0 0 137.144 137.144">
  <g>
    <g>
      <path d="M109.715,0H27.429C12.28,0,0,12.28,0,27.429v82.286c0,15.149,12.28,27.429,27.429,27.429h82.286    c15.148,0,27.429-12.28,27.429-27.429V27.429C137.144,12.28,124.864,0,109.715,0z M123.43,102.858    c0,11.361-9.21,20.571-20.571,20.571H34.286c-11.362,0-20.572-9.21-20.572-20.571V34.286c0-11.362,9.21-20.572,20.572-20.572    h68.572c11.361,0,20.571,9.21,20.571,20.572V102.858z M68.572,68.572c-3.787,0-6.857,3.07-6.857,6.857    c0,3.787,3.07,6.857,6.857,6.857c3.787,0,6.857-3.07,6.857-6.857C75.429,71.642,72.359,68.572,68.572,68.572z M82.286,34.286    H54.858L48,48H27.429v54.857h82.286V48H89.143L82.286,34.286z M68.572,96C57.211,96,48,86.79,48,75.429    c0-11.361,9.21-20.572,20.571-20.572s20.572,9.211,20.572,20.572C89.143,86.79,79.933,96,68.572,96z"/>
    </g>
  </g>
</svg>
