<?xml version='1.0' encoding='iso-8859-1'?>
<svg version="1.1" xmlns="http://www.w3.org/2000/svg" viewBox="0 0 137.144 137.144" xmlns:xlink="http://www.w3.org/1999/xlink" enable-background="new 0 0 137.144 137.144">
  <g>
    <g>
      <path d="m27.429,61.714v6.857c0-2.338 0.205-4.626 0.58-6.857h-0.58zm0,13.715h0.58c-0.375-2.231-0.58-4.52-0.58-6.857v6.857zm34.286-48.001v0.58c2.231-0.375 4.52-0.58 6.857-0.58h-6.857zm13.714,0h-6.858c2.338,0 4.626,0.205 6.858,0.58v-0.58zm0,.58v47.421h-47.421c3.266,19.457 20.178,34.286 40.563,34.286 22.723,0 41.144-18.421 41.144-41.143 0-20.386-14.829-37.298-34.286-40.564zm34.286-28.008h-82.286c-15.149,0-27.429,12.28-27.429,27.428v82.287c0,15.149 12.28,27.429 27.429,27.429h82.286c15.148,0 27.429-12.28 27.429-27.429v-82.287c0-15.148-12.28-27.428-27.429-27.428zm13.715,102.858c0,11.362-9.21,20.571-20.571,20.571h-68.573c-11.362,0-20.572-9.21-20.572-20.571v-68.572c0-11.362 9.21-20.572 20.572-20.572h68.572c11.361,0 20.571,9.21 20.571,20.572v68.572zm-61.714-74.85c-17.226,2.891-30.815,16.48-33.707,33.706h33.706v-33.706z"/>
    </g>
  </g>
</svg>
