<?xml version='1.0' encoding='iso-8859-1'?>
<svg version="1.1" xmlns="http://www.w3.org/2000/svg" viewBox="0 0 137.145 137.145" xmlns:xlink="http://www.w3.org/1999/xlink" enable-background="new 0 0 137.145 137.145">
  <g>
    <g>
      <path d="m109.715,0h-82.286c-15.148,0-27.429,12.28-27.429,27.429v82.286c0,15.149 12.28,27.429 27.429,27.429h82.286c15.149,0 27.429-12.28 27.429-27.429v-82.286c0-15.149-12.28-27.429-27.429-27.429zm13.715,102.859c0,11.361-9.21,20.571-20.572,20.571h-68.572c-11.361,0-20.572-9.21-20.572-20.571v-68.573c0-11.361 9.21-20.571 20.572-20.571h68.572c11.361,0 20.572,9.21 20.572,20.571v68.573zm-59.707-68.228l-29.092,29.092c-10.712,10.712-10.712,28.079 0,38.791 10.712,10.712 28.079,10.712 38.79,0l29.093-29.092c10.712-10.712 10.712-28.079 0-38.791-10.712-10.712-28.079-10.712-38.791,0zm4.849,63.034c-8.034,8.034-21.059,8.034-29.093,0-8.034-8.034-8.034-21.059 0-29.092l14.546-14.547c14.852,14.543 6.513,6.514 14.547,14.547 8.033,8.033 6.367,6.361 14.546,14.546l-14.546,14.546z"/>
    </g>
  </g>
</svg>
