<?xml version='1.0' encoding='iso-8859-1'?>
<svg version="1.1" xmlns="http://www.w3.org/2000/svg" viewBox="0 0 137.144 137.144" xmlns:xlink="http://www.w3.org/1999/xlink" enable-background="new 0 0 137.144 137.144">
  <g>
    <g>
      <path d="m61.715,89.144v27.429h13.715v-27.429l13.714-6.857h-41.143l13.714,6.857zm34.327-13.7c-0.409,0.732 0.87,0.034 0,0zm13.673-75.444h-82.286c-15.149,0-27.429,12.28-27.429,27.429v82.286c0,15.149 12.28,27.429 27.429,27.429h82.286c15.149,0 27.429-12.28 27.429-27.429v-82.286c0-15.149-12.28-27.429-27.429-27.429zm13.715,102.858c0,11.361-9.21,20.572-20.571,20.572h-68.573c-11.361,0-20.572-9.21-20.572-20.572v-68.572c0-11.361 9.21-20.571 20.572-20.571h68.572c11.361,0 20.571,9.21 20.571,20.571v68.572zm-54.857-82.286c-18.936-3.55271e-15-34.286,15.35-34.286,34.286 0,7.719 2.551,14.842 6.855,20.573 0.001,0 0-0.001 0.002-0.001 11.675,0.182 42.612,0.156 54.858,0 0.03,0 0.014,0.013 0.041,0.014 0.035-0.063 0-0.065 0.064-0.151 4.243-5.707 6.753-12.778 6.753-20.435 0-18.936-15.351-34.286-34.287-34.286zm10.286,41.143c-5.681,0-10.286-4.604-10.286-10.286 0-5.681 4.605-10.286 10.286-10.286 5.681,0 10.286,4.605 10.286,10.286 0,5.682-4.605,10.286-10.286,10.286zm-37.716,13.716c-1.621-0.023 1.26,1.677 0,0z"/>
    </g>
  </g>
</svg>
