<?xml version='1.0' encoding='iso-8859-1'?>
<svg version="1.1" xmlns="http://www.w3.org/2000/svg" viewBox="0 0 137.144 137.144" xmlns:xlink="http://www.w3.org/1999/xlink" enable-background="new 0 0 137.144 137.144">
  <g>
    <g>
      <path d="m48.335,102.848c-0.086,0.003-0.179,0.005-0.284,0.008 0.058-0.001 0.161-0.004 0.284-0.008zm.51-.015c0.244-0.007 0.354-0.01 0,0zm33.442-54.832c-6.346,3.626-16.948,14.688-24.691,23.282l-2.738-16.424-27.429,6.857c0,0 0.09,9.328 0,20.572-0.057,7.063 5.053,21.026 20.572,20.571 7.378,0 13.714-6.857 13.714-6.857s15.993-31.342 27.429-41.143c12.516-10.728 20.572-6.857 20.572-6.857v-6.857c-1.42109e-14-0.001-14.48-0.544-27.429,6.856zm27.428-48.001h-82.286c-15.149,0-27.429,12.28-27.429,27.429v82.287c0,15.148 12.28,27.428 27.429,27.428h82.286c15.149,0 27.429-12.28 27.429-27.428v-82.287c0-15.149-12.28-27.429-27.429-27.429zm13.714,102.858c0,11.362-9.21,20.572-20.571,20.572h-68.572c-11.361,0-20.572-9.21-20.572-20.572v-68.572c0-11.361 9.21-20.571 20.572-20.571h68.572c11.361,0 20.571,9.21 20.571,20.571v68.572z"/>
    </g>
  </g>
</svg>
