<?xml version='1.0' encoding='iso-8859-1'?>
<svg version="1.1" xmlns="http://www.w3.org/2000/svg" viewBox="0 0 137.144 137.144" xmlns:xlink="http://www.w3.org/1999/xlink" enable-background="new 0 0 137.144 137.144">
  <g>
    <g>
      <path d="M54.858,109.715h20.571V89.144H54.858V109.715z M27.429,54.857H48V34.286H27.429V54.857z M27.429,82.286H48V61.714H27.429    V82.286z M27.429,109.715H48V89.144H27.429V109.715z M54.858,82.286h20.571V61.714H54.858V82.286z M54.858,54.857h20.571V34.286    H54.858V54.857z M109.715,0H27.429C12.28,0,0,12.28,0,27.429v82.286c0,15.149,12.28,27.429,27.429,27.429h82.286    c15.149,0,27.429-12.28,27.429-27.429V27.429C137.144,12.28,124.864,0,109.715,0z M123.43,102.858    c0,11.361-9.21,20.571-20.572,20.571H34.286c-11.361,0-20.572-9.21-20.572-20.571V34.286c0-11.362,9.21-20.572,20.572-20.572    h68.572c11.361,0,20.572,9.21,20.572,20.572V102.858z M89.144,48h20.571V27.428H89.144V48z M82.286,82.286h20.572V61.714H82.286    V82.286z M82.286,109.715h20.572V89.144H82.286V109.715z"/>
    </g>
  </g>
</svg>
