<?xml version='1.0' encoding='iso-8859-1'?>
<svg version="1.1" xmlns="http://www.w3.org/2000/svg" viewBox="0 0 137.145 137.145" xmlns:xlink="http://www.w3.org/1999/xlink" enable-background="new 0 0 137.145 137.145">
  <g>
    <g>
      <path d="m109.716,0h-82.287c-15.148,0-27.429,12.281-27.429,27.429v82.287c0,15.148 12.28,27.429 27.429,27.429h82.286c15.148,0 27.429-12.281 27.429-27.429v-82.287c0-15.148-12.28-27.429-27.428-27.429zm13.714,102.859c0,11.361-9.21,20.572-20.572,20.572h-68.572c-11.361,0-20.571-9.211-20.571-20.572v-68.572c0-11.362 9.21-20.572 20.571-20.572h68.572c11.362,0 20.572,9.21 20.572,20.572v68.572zm-42.442-19.688l.013-.027h-0.051c4.315-8.524 8.122-18.712 8.194-28.285 0.214-28.278-20.572-27.429-20.572-27.429s-21-0.207-20.571,27.429c0.084,5.439 1.362,11.077 3.23,16.499l-.016,.001c0,0 0.049,0.129 0.1,0.262 1.405,4.032 3.138,7.927 4.959,11.533 0.28-0.315 0.254,0.178 0.254,0.178-0.033-0.066-0.07-0.131-0.103-0.197-0.05,0.007-0.1,0.012-0.15,0.019-16.674,2.189-28.846,8.606-28.846,16.276 0,9.468 18.421,17.143 41.143,17.143 22.723,0 41.143-7.676 41.143-17.143 0.001-7.652-12.115-14.055-28.727-16.259zm-12.416-42.027c3.787,0 6.857,3.07 6.857,6.857 0,3.787-3.07,6.857-6.857,6.857-3.787,0-6.857-3.07-6.857-6.857 0-3.787 3.07-6.857 6.857-6.857zm0,69.858c-18.969-1.42109e-14-34.346-5.891-34.346-11.571 0-4.636 10.32-9.491 24.398-11.142l.09,.213 .439-.004c4.835,8.496 9.417,14.362 9.417,14.362s4.701-5.951 9.606-14.569l.252-.003 .006-.012c14.124,1.641 24.482,6.509 24.482,11.155 0.002,5.68-15.375,11.571-34.344,11.571z"/>
    </g>
  </g>
</svg>
