<?xml version='1.0' encoding='iso-8859-1'?>
<svg version="1.1" xmlns="http://www.w3.org/2000/svg" viewBox="0 0 137.144 137.144" xmlns:xlink="http://www.w3.org/1999/xlink" enable-background="new 0 0 137.144 137.144">
  <g>
    <g>
      <path d="m68.75,27.428c-0.016-0.003-0.052-0.008-0.102-0.013 0.163-0.026 0.034-0.024-0.124-0.011-0.104-0.007-0.126-0.005-0.062,0.007-0.046,0.005-0.077,0.009-0.075,0.013 0.061,0.002 0.124,0.002 0.185,0.005 0.059-0.001 0.119-3.55271e-15 0.178-0.001zm40.965-27.428h-82.286c-15.149,0-27.429,12.28-27.429,27.429v82.286c0,15.149 12.28,27.429 27.429,27.429h82.286c15.149,0 27.429-12.28 27.429-27.429v-82.286c0-15.149-12.28-27.429-27.429-27.429zm13.715,102.858c0,11.362-9.21,20.572-20.571,20.572h-68.573c-11.361,0-20.572-9.21-20.572-20.572v-68.572c0-11.362 9.21-20.572 20.572-20.572h68.572c11.361,0 20.571,9.21 20.571,20.572v68.572zm-54.679-75.43c0.023,0.005-0.008,0.007-0.178,3.55271e-15-0.135,0.001-0.182-0.001-0.185-0.005-15.51-0.563-36.449,5.462-34.101,34.29 1.464,15.219 17.038,27.774 34.286,48.001 17.01-20.775 32.372-34.508 34.286-48.001 1.068-30.332-17.552-34.442-34.108-34.285zm20.394,41.145h-13.714v13.714h-13.715v-13.714h-13.714v-13.715h13.714v-13.714h13.715v13.715h13.714v13.714z"/>
    </g>
  </g>
</svg>
