<?xml version='1.0' encoding='iso-8859-1'?>
<svg version="1.1" xmlns="http://www.w3.org/2000/svg" viewBox="0 0 137.145 137.145" xmlns:xlink="http://www.w3.org/1999/xlink" enable-background="new 0 0 137.145 137.145">
  <g>
    <g>
      <path d="M109.716,0H27.429C12.281,0,0,12.281,0,27.429v82.287c0,15.148,12.28,27.429,27.429,27.429h82.286    c15.149,0,27.429-12.281,27.429-27.429V27.429C137.144,12.281,124.864,0,109.716,0z M123.43,102.859    c0,11.361-9.21,20.571-20.571,20.571H34.287c-11.361,0-20.572-9.21-20.572-20.571V34.286c0-11.362,9.21-20.572,20.572-20.572    h68.572c11.361,0,20.571,9.21,20.571,20.572V102.859z M54.858,82.286l13.714,27.429l34.286-82.287L27.43,82.286H54.858z"/>
    </g>
  </g>
</svg>
