<?xml version='1.0' encoding='iso-8859-1'?>
<svg version="1.1" xmlns="http://www.w3.org/2000/svg" viewBox="0 0 137.145 137.145" xmlns:xlink="http://www.w3.org/1999/xlink" enable-background="new 0 0 137.145 137.145">
  <g>
    <g>
      <path d="M34.286,109.715h68.573V27.429H34.286V109.715z M48,61.715c6.1-15.364,20.572,0,20.572,0s14.033-15.364,19.948,0    c5.091,13.222-19.948,27.429-19.948,27.429S42.75,74.937,48,61.715z M109.716,0H27.429C12.281,0,0,12.28,0,27.429v82.286    c0,15.149,12.28,27.429,27.429,27.429h82.286c15.148,0,27.429-12.28,27.429-27.429V27.429C137.144,12.28,124.864,0,109.716,0z     M123.43,102.859c0,11.361-9.21,20.571-20.572,20.571H34.286c-11.361,0-20.572-9.21-20.572-20.571V34.286    c0-11.361,9.21-20.571,20.572-20.571h68.572c11.361,0,20.572,9.21,20.572,20.571V102.859z"/>
    </g>
  </g>
</svg>
