<?xml version='1.0' encoding='iso-8859-1'?>
<svg version="1.1" xmlns="http://www.w3.org/2000/svg" viewBox="0 0 137.144 137.144" xmlns:xlink="http://www.w3.org/1999/xlink" enable-background="new 0 0 137.144 137.144">
  <g>
    <g>
      <path d="m109.715,0h-82.286c-15.149,0-27.429,12.28-27.429,27.429v82.286c0,15.149 12.28,27.429 27.429,27.429h82.286c15.148,0 27.429-12.28 27.429-27.429v-82.286c0-15.149-12.28-27.429-27.429-27.429zm13.715,102.858c0,11.362-9.21,20.572-20.572,20.572h-68.572c-11.361,0-20.572-9.21-20.572-20.572v-68.572c0-11.362 9.21-20.572 20.572-20.572h68.572c11.361,0 20.572,9.21 20.572,20.572v68.572zm-48.001-82.287h-13.714v41.143h13.715v-41.143zm13.714,13.715v13.714c7.11,5.176 8.817,12.694 8.817,21.959 0,15.683-13.158,28.397-29.388,28.397-16.231,0-29.388-12.714-29.388-28.397 0-9.265 1.707-16.783 8.816-21.959v-13.714c-13.869,6.365-20.572,19.847-20.572,35.674 0,21.956 18.421,39.756 41.144,39.756 22.723,0 41.143-17.8 41.143-39.756-0.001-15.827-6.704-29.309-20.572-35.674z"/>
    </g>
  </g>
</svg>
