<?xml version='1.0' encoding='iso-8859-1'?>
<svg version="1.1" xmlns="http://www.w3.org/2000/svg" viewBox="0 0 137.144 137.144" xmlns:xlink="http://www.w3.org/1999/xlink" enable-background="new 0 0 137.144 137.144">
  <g>
    <g>
      <path d="m109.715,0h-82.286c-15.149,0-27.429,12.28-27.429,27.429v82.286c0,15.149 12.28,27.429 27.429,27.429h82.286c15.149,0 27.429-12.28 27.429-27.429v-82.286c0-15.149-12.28-27.429-27.429-27.429zm13.715,102.858c0,11.362-9.21,20.572-20.572,20.572h-68.572c-11.361,0-20.572-9.21-20.572-20.572v-68.572c0-11.362 9.21-20.572 20.572-20.572h68.572c11.361,0 20.572,9.21 20.572,20.572v68.572zm-27.429-48h-54.857v-13.715h-13.715v48h13.714v-13.713h54.858v13.714h13.714v-48h-13.714v13.714zm-54.857,13.714h-6.857v-6.857h6.857v6.857zm48-41.143h-41.143v20.571h41.143v-20.571zm-41.143,82.286h41.143v-27.429h-41.143v27.429z"/>
    </g>
  </g>
</svg>
