<?xml version='1.0' encoding='iso-8859-1'?>
<svg version="1.1" xmlns="http://www.w3.org/2000/svg" viewBox="0 0 137.145 137.145" xmlns:xlink="http://www.w3.org/1999/xlink" enable-background="new 0 0 137.145 137.145">
  <g>
    <g>
      <path d="m58.465,54.043l.004,.003-18.016,.854 13.101,13.1-26.2,34.934 .076-.075 34.858-26.125 13.1,13.1 .64-18.228 .217,.217 13.334-13.334-17.78-17.78-13.334,13.334zm8.889-17.779l26.668,26.668 8.89-8.889-26.669-26.668-8.889,8.889zm42.361-36.264h-82.286c-15.148,0-27.429,12.28-27.429,27.429v82.286c0,15.149 12.28,27.429 27.429,27.429h82.286c15.149,0 27.429-12.28 27.429-27.429v-82.286c0-15.149-12.28-27.429-27.429-27.429zm13.715,102.859c0,11.361-9.21,20.571-20.571,20.571h-68.573c-11.361,0-20.572-9.21-20.572-20.571v-68.573c0-11.361 9.21-20.571 20.572-20.571h68.572c11.361,0 20.571,9.21 20.571,20.571v68.573z"/>
    </g>
  </g>
</svg>
