<?xml version='1.0' encoding='iso-8859-1'?>
<svg version="1.1" xmlns="http://www.w3.org/2000/svg" viewBox="0 0 137.145 137.145" xmlns:xlink="http://www.w3.org/1999/xlink" enable-background="new 0 0 137.145 137.145">
  <g>
    <g>
      <path d="m34.287,61.716v13.714c0-4.374 0.009-5.155 0-13.714zm0,20.572v-6.858c0,4.4-0.029,2.174 0,6.858zm75.429-82.288h-82.287c-15.148,0-27.429,12.281-27.429,27.429v82.287c0,15.148 12.28,27.429 27.429,27.429h82.286c15.149,0 27.429-12.28 27.429-27.429v-82.287c0-15.148-12.28-27.429-27.428-27.429zm13.714,102.858c0,11.361-9.21,20.572-20.571,20.572h-68.573c-11.361,0-20.572-9.211-20.572-20.572v-68.572c0-11.361 9.21-20.572 20.572-20.572h68.572c11.361,0 20.571,9.211 20.571,20.572v68.572zm-23.999-41.142c-1.216,0-2.345,0.304-3.428,0.692v-21.264h-21.264c0.387-1.083 0.692-2.212 0.692-3.428 0-5.681-4.605-10.286-10.286-10.286-5.681,0-10.286,4.605-10.286,10.286 0,1.216 0.305,2.346 0.692,3.428h-21.263v20.572c-0.001-1.233 2.121,0 3.429,0 5.681,0 10.286,4.605 10.286,10.286 0,5.68-4.605,10.286-10.286,10.286-1.28,0-3.421,1.208-3.429,0v20.571h61.715v-21.264c1.083,0.388 2.212,0.693 3.428,0.693 5.681,0 10.286-4.606 10.286-10.286-1.42109e-14-5.681-4.605-10.286-10.286-10.286z"/>
    </g>
  </g>
</svg>
