<?xml version='1.0' encoding='iso-8859-1'?>
<svg version="1.1" xmlns="http://www.w3.org/2000/svg" viewBox="0 0 137.144 137.144" xmlns:xlink="http://www.w3.org/1999/xlink" enable-background="new 0 0 137.144 137.144">
  <g>
    <g>
      <path d="m34.286,48v27.429h13.714c-0.106,12.275-13.714,13.714-13.714,13.714l6.856,6.857c0,0 19.809-2.236 20.572-20.571v-27.429h-27.428zm27.459,26.685c-0.011,0.258-0.018,0.421-0.031,0.744 0,0 0.014-0.331 0.031-0.744zm.075-1.801c-0.003,0.064-0.007,0.17-0.013,0.32 0.006-0.141 0.01-0.251 0.013-0.32zm47.895-72.884h-82.286c-15.149,0-27.429,12.28-27.429,27.429v82.287c0,15.148 12.28,27.428 27.429,27.428h82.286c15.148,0 27.429-12.28 27.429-27.428v-82.287c0-15.149-12.28-27.429-27.429-27.429zm13.715,102.858c0,11.361-9.21,20.572-20.572,20.572h-68.572c-11.361,0-20.571-9.211-20.571-20.572v-68.572c0-11.361 9.21-20.572 20.571-20.572h68.572c11.362,0 20.572,9.211 20.572,20.572v68.572zm-48.001-27.429h13.714c-0.106,12.275-13.714,13.714-13.714,13.714l6.857,6.857c0,0 19.808-2.236 20.572-20.571v-27.429h-27.429v27.429zm27.534-2.545c-0.003,0.064-0.007,0.17-0.013,0.32 0.006-0.141 0.011-0.251 0.013-0.32z"/>
    </g>
  </g>
</svg>
