<?xml version='1.0' encoding='iso-8859-1'?>
<svg version="1.1" xmlns="http://www.w3.org/2000/svg" viewBox="0 0 137.144 137.144" xmlns:xlink="http://www.w3.org/1999/xlink" enable-background="new 0 0 137.144 137.144">
  <g>
    <g>
      <path d="m34.193,63.97c-0.005,0.12-0.009,0.223-0.012,0.286 0.002-0.058 0.006-0.16 0.012-0.286zc0.012-0.297 0.03-0.729 0.048-1.15-0.023,0.548-0.038,0.909-0.048,1.15zm27.522-15.969l-6.857-6.858c0,0-19.809,2.237-20.572,20.572v27.429h27.429v-27.428h-13.714c0.106-12.276 13.714-13.715 13.714-13.715zm13.715,13.715c0,0-0.005,0.127-0.013,0.312 0.003-0.091 0.008-0.189 0.013-0.312zm34.285-61.716h-82.286c-15.149,0-27.429,12.281-27.429,27.429v82.286c0,15.149 12.28,27.429 27.429,27.429h82.286c15.149,0 27.429-12.28 27.429-27.429v-82.286c0-15.148-12.28-27.429-27.429-27.429zm13.715,102.858c0,11.361-9.21,20.571-20.571,20.571h-68.573c-11.362,0-20.572-9.211-20.572-20.571v-68.572c0-11.361 9.21-20.572 20.572-20.572h68.572c11.361,0 20.571,9.211 20.571,20.572v68.572zm-48.058-39.732c-0.029,0.703-0.044,1.055-0.049,1.167 0.007-0.153 0.027-0.645 0.049-1.167zm27.487-15.125l-6.857-6.858c0,0-19.809,2.237-20.572,20.572v27.429h27.429v-27.428h-13.714c0.106-12.276 13.714-13.715 13.714-13.715z"/>
    </g>
  </g>
</svg>
