<?xml version='1.0' encoding='iso-8859-1'?>
<svg version="1.1" xmlns="http://www.w3.org/2000/svg" viewBox="0 0 137.144 137.144" xmlns:xlink="http://www.w3.org/1999/xlink" enable-background="new 0 0 137.144 137.144">
  <g>
    <g>
      <path d="m109.715,0h-82.286c-15.149,0-27.429,12.28-27.429,27.429v82.286c0,15.149 12.28,27.429 27.429,27.429h82.286c15.148,0 27.429-12.28 27.429-27.429v-82.286c0-15.149-12.28-27.429-27.429-27.429zm13.715,102.858c0,11.361-9.21,20.571-20.571,20.571h-68.573c-11.362,0-20.572-9.21-20.572-20.571v-68.572c0-11.362 9.21-20.572 20.572-20.572h68.572c11.361,0 20.571,9.21 20.571,20.572v68.572zm-48-24c0,5.681 4.605,10.286 10.286,10.286 5.681,0 10.286-4.605 10.286-10.286s-4.605-10.286-10.286-10.286c-5.68,0-10.286,4.605-10.286,10.286zm-27.428-51.429v6.857l30.857,20.571h-51.429v48.001h82.287v-48.001h-13.715l-48-27.428zm13.714,61.715h-27.429v-6.858h27.429v6.858zm0-13.715h-27.429v-6.857h27.429v6.857zm41.143,3.429c0,9.468-7.675,17.143-17.143,17.143-9.468,0-17.143-7.675-17.143-17.143 0-9.468 7.675-17.143 17.143-17.143 9.468,0 17.143,7.675 17.143,17.143z"/>
    </g>
  </g>
</svg>
