<?xml version='1.0' encoding='iso-8859-1'?>
<svg version="1.1" xmlns="http://www.w3.org/2000/svg" viewBox="0 0 137.145 137.145" xmlns:xlink="http://www.w3.org/1999/xlink" enable-background="new 0 0 137.145 137.145">
  <g>
    <g>
      <path d="m68.572,41.143c-15.149,0-27.429,12.28-27.429,27.428 0,15.148 12.281,27.43 27.429,27.43 15.148,0 27.429-12.281 27.429-27.43 0-15.148-12.281-27.428-27.429-27.428zm41.143-41.143h-82.286c-15.148,0-27.429,12.281-27.429,27.429v82.287c0,15.149 12.28,27.429 27.429,27.429h82.286c15.149,0 27.429-12.28 27.429-27.429v-82.287c0-15.148-12.28-27.429-27.429-27.429zm13.715,102.858c0,11.361-9.21,20.572-20.572,20.572h-68.572c-11.361,0-20.572-9.211-20.572-20.572v-68.572c0-11.361 9.21-20.572 20.572-20.572h68.572c11.361,0 20.572,9.211 20.572,20.572v68.572z"/>
    </g>
  </g>
</svg>
