<?xml version='1.0' encoding='iso-8859-1'?>
<svg version="1.1" xmlns="http://www.w3.org/2000/svg" viewBox="0 0 137.144 137.144" xmlns:xlink="http://www.w3.org/1999/xlink" enable-background="new 0 0 137.144 137.144">
  <g>
    <g>
      <path d="m109.715,0h-82.286c-15.149,0-27.429,12.28-27.429,27.428v82.287c0,15.149 12.28,27.429 27.429,27.429h82.286c15.148,0 27.429-12.28 27.429-27.429v-82.287c0-15.148-12.28-27.428-27.429-27.428zm13.715,102.858c0,11.362-9.21,20.571-20.571,20.571h-68.573c-11.361,0-20.572-9.21-20.572-20.571v-68.572c0-11.362 9.21-20.572 20.572-20.572h68.572c11.361,0 20.571,9.21 20.571,20.572v68.572zm-54.857-64.924v-10.506l-27.429,20.572 27.429,20.572v-16.714c11.455,0 20.741,9.709 20.741,21.686 0,11.977-9.286,21.687-20.741,21.687-11.349,0-20.403-7.976-20.571-19.802h-13.714c0,19.844 15.308,34.367 34.285,34.367 18.978,0 34.363-16.087 34.363-35.93 0-19.845-15.385-35.932-34.363-35.932z"/>
    </g>
  </g>
</svg>
