<?xml version='1.0' encoding='iso-8859-1'?>
<svg version="1.1" xmlns="http://www.w3.org/2000/svg" viewBox="0 0 137.144 137.144" xmlns:xlink="http://www.w3.org/1999/xlink" enable-background="new 0 0 137.144 137.144">
  <g>
    <g>
      <path d="M34.286,75.428h68.572V61.715H34.286V75.428z M109.715,0H27.429C12.28,0,0,12.281,0,27.429v82.286    c0,15.149,12.28,27.429,27.429,27.429h82.286c15.148,0,27.429-12.28,27.429-27.429V27.429C137.144,12.281,124.864,0,109.715,0z     M123.43,102.858c0,11.361-9.21,20.572-20.572,20.572H34.286c-11.361,0-20.572-9.21-20.572-20.572V34.286    c0-11.361,9.21-20.572,20.572-20.572h68.572c11.361,0,20.572,9.21,20.572,20.572V102.858z"/>
    </g>
  </g>
</svg>
