<?xml version='1.0' encoding='iso-8859-1'?>
<svg version="1.1" xmlns="http://www.w3.org/2000/svg" viewBox="0 0 137.144 137.144" xmlns:xlink="http://www.w3.org/1999/xlink" enable-background="new 0 0 137.144 137.144">
  <g>
    <g>
      <path d="m100.83,92.878c0.742,1.499 1.235,3.345 1.56,5.258 0.222,1.146 0.365,2.315 0.423,3.506 0.032,0.411 0.059,0.818 0.081,1.217h13.679v-13.715h-17.802c0.45,0.7 0.854,1.427 1.236,2.164 0.276,0.501 0.551,1.019 0.823,1.57zm-2.059-3.734c-0.431-0.67-0.903-1.316-1.394-1.949 0.439,0.589 0.889,1.235 1.346,1.949h0.048zm-30.199-61.716c-11.362,3.55271e-15-20.572,10.746-20.572,24 0,13.256 9.21,24.001 20.572,24.001 11.361,0 20.572-10.745 20.572-24.001 0-13.254-9.211-24-20.572-24zm41.143-27.428h-82.286c-15.149,0-27.429,12.28-27.429,27.429v82.286c0,15.149 12.28,27.429 27.429,27.429h82.286c15.149,0 27.429-12.28 27.429-27.429v-82.286c0-15.149-12.28-27.429-27.429-27.429zm13.715,102.858c0,11.361-9.21,20.571-20.571,20.571-6.906,0.02-10.695,0.015-12.902,0h-14.493c-0.012,0-0.022,0-0.034,0h-13.715c-0.526,0-1.012,0-1.462,0h-25.875c-0.031,0-0.06,0-0.092,0h0c-11.361,0-20.572-9.21-20.572-20.571v-68.572c0-11.362 9.21-20.572 20.572-20.572h68.572c11.361,0 20.571,9.21 20.571,20.572v68.572zm-54.857,6.858v-27.43h23.955c-5.37-4.266-12.419-6.857-20.145-6.857h-7.619c-16.832,0-30.477,12.281-30.477,27.429v20.572h0.092c33.219-0.133 11.951-0.008 25.875,0h15.21c14.362-0.156 8.395-0.042 14.493,0h12.902v-13.714h-34.286zm34.287-0c0,0 0.238-3.088 0.035-6.857h-0.035v6.857zm-5.482-22.521c-2.637-3.54-4.805-4.909-4.805-4.909h-0.045c1.828,1.452 3.452,3.104 4.85,4.909zm5.436,14.446c-0.09-1.152-0.225-2.341-0.423-3.506-0.465-2.398-1.274-4.687-2.383-6.828-0.429-0.779-0.858-1.499-1.284-2.164h-23.293v13.715h27.429v-0.001c-1.42109e-14-0.408-0.026-0.811-0.046-1.216z"/>
    </g>
  </g>
</svg>
