<?xml version='1.0' encoding='iso-8859-1'?>
<svg version="1.1" xmlns="http://www.w3.org/2000/svg" viewBox="0 0 137.144 137.144" xmlns:xlink="http://www.w3.org/1999/xlink" enable-background="new 0 0 137.144 137.144">
  <g>
    <g>
      <path d="M61.715,48.001h-6.857V27.429h-6.857v20.572h-6.857V27.429h-6.857v34.286h12.191l-5.333,48h20.571l-5.333-48h12.191    V27.429h-6.857V48.001z M109.715,0H27.429C12.28,0,0,12.281,0,27.429v82.286c0,15.149,12.28,27.429,27.429,27.429h82.286    c15.148,0,27.429-12.28,27.429-27.429V27.429C137.144,12.281,124.864,0,109.715,0z M123.43,102.858    c0,11.361-9.21,20.571-20.572,20.571H34.286c-11.361,0-20.572-9.211-20.572-20.571V34.286c0-11.361,9.21-20.572,20.572-20.572    h68.572c11.361,0,20.572,9.211,20.572,20.572V102.858z M82.404,34.295c-0.027,0.614-0.116-0.008-0.116-0.008v75.429h13.714V75.43    c0,0,7.344-12.862,6.857-27.429C101.985,21.813,82.846,24.25,82.404,34.295z"/>
    </g>
  </g>
</svg>
