<?xml version='1.0' encoding='iso-8859-1'?>
<svg version="1.1" xmlns="http://www.w3.org/2000/svg" viewBox="0 0 137.144 137.144" xmlns:xlink="http://www.w3.org/1999/xlink" enable-background="new 0 0 137.144 137.144">
  <g>
    <g>
      <path d="M99.43,34.285L68.572,68.572l30.858,34.286h10.286L84.001,68.572l25.715-34.286H99.43z M68.572,34.285H58.286    L27.429,68.572l30.857,34.286h10.286L42.858,68.572L68.572,34.285z M109.715,0H27.429C12.28,0,0,12.28,0,27.428v82.287    c0,15.149,12.28,27.429,27.429,27.429h82.286c15.148,0,27.429-12.28,27.429-27.429V27.428C137.144,12.28,124.864,0,109.715,0z     M123.43,102.858c0,11.361-9.21,20.571-20.571,20.571H34.286c-11.362,0-20.572-9.211-20.572-20.571V34.286    c0-11.361,9.21-20.572,20.572-20.572h68.572c11.361,0,20.571,9.21,20.571,20.572V102.858z"/>
    </g>
  </g>
</svg>
