<?xml version='1.0' encoding='iso-8859-1'?>
<svg version="1.1" xmlns="http://www.w3.org/2000/svg" viewBox="0 0 137.144 137.144" xmlns:xlink="http://www.w3.org/1999/xlink" enable-background="new 0 0 137.144 137.144">
  <g>
    <g>
      <path d="m96,102.857v-68.571c0-3.787 0.145,2.786 0-6.857h-54.857c0.07,6.429 0,3.07 0,6.857v68.572c0,3.787-0.358-6.857 0,6.857l27.428-27.43 .001,.001 27.429,27.429c0.358-14.571-0.001-3.07-0.001-6.858zm-14.727-27.404l-12.702-7.037-12.7,7.037 2.426-14.903-10.275-10.553 14.199-2.176 6.349-13.559 6.351,13.559 14.201,2.176-10.276,10.553 2.427,14.903zm28.442-75.453h-82.286c-15.149,0-27.429,12.281-27.429,27.429v82.287c0,15.149 12.28,27.429 27.429,27.429h82.286c15.149,0 27.429-12.28 27.429-27.429v-82.287c0-15.148-12.28-27.429-27.429-27.429zm13.715,102.858c0,11.361-9.21,20.571-20.572,20.571h-68.572c-11.361,0-20.572-9.21-20.572-20.571v-68.572c0-11.362 9.21-20.572 20.572-20.572h68.572c11.361,0 20.572,9.21 20.572,20.572v68.572z"/>
    </g>
  </g>
</svg>
