<?xml version='1.0' encoding='iso-8859-1'?>
<svg version="1.1" xmlns="http://www.w3.org/2000/svg" viewBox="0 0 137.144 137.144" xmlns:xlink="http://www.w3.org/1999/xlink" enable-background="new 0 0 137.144 137.144">
  <g>
    <g>
      <path d="m44.572,54.858c1.894,0 3.429-1.535 3.429-3.429 0-1.893-1.535-3.428-3.429-3.428-1.893,0-3.429,1.535-3.429,3.428 0,1.894 1.535,3.429 3.429,3.429zm24-6.857c-18.936,0-34.286,15.35-34.286,34.286 0,18.936 15.351,34.286 34.286,34.286 18.936,0 34.286-15.35 34.286-34.286 0-18.936-15.35-34.286-34.286-34.286zm0,61.714c-15.148,0-27.429-12.281-27.429-27.429 0-15.148 12.28-27.429 27.429-27.429 15.149,0 27.429,12.281 27.429,27.429 0,15.149-12.281,27.429-27.429,27.429zm6.857-89.143h-13.714l-6.857,6.857 13.714,20.572 13.714-20.572-6.857-6.857zm34.286-20.572h-82.286c-15.149,0-27.429,12.28-27.429,27.429v82.286c0,15.148 12.28,27.429 27.429,27.429h82.286c15.148,0 27.429-12.281 27.429-27.429v-82.286c0-15.149-12.28-27.429-27.429-27.429zm13.715,102.858c0,11.361-9.21,20.572-20.572,20.572h-68.572c-11.361,0-20.571-9.211-20.571-20.572v-68.572c0-11.361 9.21-20.572 20.571-20.572h68.572c11.361,0 20.572,9.211 20.572,20.572v68.572zm-30.858-48c1.894,0 3.429-1.535 3.429-3.429 0-1.893-1.535-3.428-3.429-3.428-1.893,0-3.428,1.535-3.428,3.428 0,1.894 1.535,3.429 3.428,3.429z"/>
    </g>
  </g>
</svg>
