<?xml version='1.0' encoding='iso-8859-1'?>
<svg version="1.1" xmlns="http://www.w3.org/2000/svg" viewBox="0 0 137.144 137.144" xmlns:xlink="http://www.w3.org/1999/xlink" enable-background="new 0 0 137.144 137.144">
  <g>
    <g>
      <path d="m109.715,0h-82.286c-15.149,0-27.429,12.28-27.429,27.429v82.286c0,15.149 12.28,27.429 27.429,27.429h82.286c15.149,0 27.429-12.28 27.429-27.429v-82.286c0-15.149-12.28-27.429-27.429-27.429zm13.715,102.858c0,11.361-9.21,20.572-20.572,20.572h-68.572c-11.361,0-20.572-9.21-20.572-20.572v-68.572c0-11.361 9.21-20.571 20.572-20.571h68.572c11.361,0 20.572,9.21 20.572,20.571v68.572zm-34.286-27.428c0.031-18.705 0-27.429 0-27.429s-1.477-8.334-6.857-13.714c-4.881-4.881-13.714-6.858-13.714-6.858s-9.377,2.52-13.714,6.858c-5.747,5.747-6.857,13.714-6.857,13.714s0.199,12.192 0,27.429c-0.269,20.468-20.572,34.286-20.572,34.286h82.286c-1.42109e-14-1.42109e-14-20.601-16.651-20.572-34.286zm-20.572-6.858c-7.574,0-13.714-6.139-13.714-13.714 0-7.574 6.14-13.715 13.714-13.715 7.574,0 13.714,6.141 13.714,13.715 0.001,7.575-6.139,13.714-13.714,13.714zm0-20.571c-3.787,0-6.857,3.07-6.857,6.857 0,3.787 3.07,6.857 6.857,6.857 3.787,0 6.857-3.07 6.857-6.857 0.001-3.787-3.07-6.857-6.857-6.857z"/>
    </g>
  </g>
</svg>
