<?xml version='1.0' encoding='iso-8859-1'?>
<svg version="1.1" xmlns="http://www.w3.org/2000/svg" viewBox="0 0 137.144 137.144" xmlns:xlink="http://www.w3.org/1999/xlink" enable-background="new 0 0 137.144 137.144">
  <g>
    <g>
      <path d="m66.725,70.419c-4.772-4.771-10.436-8.557-16.993-11.36-6.558-2.801-13.438-4.202-20.641-4.202-0.494,0-0.893,0.156-1.201,0.462-0.309,0.309-0.462,0.708-0.462,1.201v11.636c0,0.493 0.153,0.893 0.462,1.2 0.307,0.309 0.707,0.461 1.201,0.461 10.589,0 19.609,3.726 27.06,11.175 7.449,7.45 11.175,16.47 11.175,27.059 0,0.494 0.152,0.894 0.462,1.2 0.307,0.309 0.707,0.462 1.201,0.462h11.636c0.492,0 0.891-0.153 1.2-0.462 0.308-0.307 0.462-0.707 0.462-1.2 0-7.204-1.401-14.084-4.202-20.641-2.803-6.555-6.589-12.22-11.36-16.991zm-25.582,11.867c-3.794,0-7.027,1.338-9.702,4.013-2.676,2.676-4.013,5.909-4.013,9.701 0,3.794 1.337,7.027 4.013,9.702 2.674,2.677 5.907,4.013 9.702,4.013 3.792,0 7.025-1.336 9.701-4.013 2.675-2.675 4.013-5.908 4.013-9.702 0-3.723-1.355-6.941-4.063-9.651-2.709-2.707-5.927-4.063-9.651-4.063zm68.572-82.286h-82.286c-15.149,0-27.429,12.28-27.429,27.429v82.287c0,15.148 12.28,27.429 27.429,27.429h82.286c15.149,0 27.429-12.28 27.429-27.429v-82.287c0-15.149-12.28-27.429-27.429-27.429zm13.715,102.858c0,11.361-9.21,20.572-20.571,20.572h-68.573c-11.361,0-20.572-9.211-20.572-20.572v-68.572c0-11.362 9.21-20.572 20.572-20.572h68.572c11.361,0 20.571,9.21 20.571,20.572v68.572zm-53.857-64.62c-12.35-7.205-25.826-10.81-40.429-10.81-0.509,0-0.921,0.159-1.238,0.476-0.318,0.319-0.476,0.731-0.476,1.239v11.999c0,0.51 0.158,0.921 0.476,1.238 0.317,0.319 0.729,0.477 1.238,0.477 8.825,0 17.27,1.714 25.334,5.143 8.062,3.429 15,8.048 20.809,13.857 5.81,5.81 10.429,12.747 13.857,20.81 3.429,8.064 5.143,16.509 5.143,25.334 0,0.509 0.158,0.92 0.476,1.238 0.317,0.318 0.729,0.476 1.238,0.476h12c0.508,0 0.92-0.158 1.238-0.476 0.318-0.317 0.476-0.729 0.476-1.238 0-14.604-3.604-28.08-10.809-40.429-7.206-12.348-16.984-22.127-29.333-29.334z"/>
    </g>
  </g>
</svg>
