<?xml version='1.0' encoding='iso-8859-1'?>
<svg version="1.1" xmlns="http://www.w3.org/2000/svg" viewBox="0 0 137.145 137.145" xmlns:xlink="http://www.w3.org/1999/xlink" enable-background="new 0 0 137.145 137.145">
  <g>
    <g>
      <path d="m109.715,0h-82.286c-15.148,0-27.429,12.281-27.429,27.429v82.287c0,15.148 12.28,27.428 27.429,27.428h82.286c15.149,0 27.429-12.28 27.429-27.428v-82.287c0-15.148-12.28-27.429-27.429-27.429zm13.715,102.859c0,11.361-9.21,20.572-20.572,20.572h-68.572c-11.361,0-20.572-9.21-20.572-20.572v-68.572c0-11.362 9.21-20.572 20.572-20.572h68.572c11.362,0 20.572,9.21 20.572,20.572v68.572zm-54.857-75.429c-22.723-7.10543e-15-41.143,18.42-41.143,41.143 0,22.723 18.421,41.143 41.143,41.143 22.723,0 41.143-18.42 41.143-41.143 0-22.722-18.42-41.143-41.143-41.143zm-13.715,20.572c3.787,0 6.857,3.07 6.857,6.857 0,3.787-3.07,6.857-6.857,6.857-3.787,0-6.857-3.07-6.857-6.857 0-3.787 3.07-6.857 6.857-6.857zm28.501,44.786c0,0-2.308-10.548-14.786-10.5-13.005,0.05-15,10.286-15,10.286l-5.571-3.429c0,0 2.79-13.895 20.571-13.715 17.566,0.178 20.572,13.715 20.572,13.715l-5.786,3.643zm-1.072-31.072c-3.787,0-6.857-3.07-6.857-6.857 0-3.787 3.07-6.857 6.857-6.857 3.787,0 6.857,3.07 6.857,6.857 0,3.787-3.07,6.857-6.857,6.857z"/>
    </g>
  </g>
</svg>
