<?xml version='1.0' encoding='iso-8859-1'?>
<svg version="1.1" xmlns="http://www.w3.org/2000/svg" viewBox="0 0 137.145 137.145" xmlns:xlink="http://www.w3.org/1999/xlink" enable-background="new 0 0 137.145 137.145">
  <g>
    <g>
      <path d="m82.501,27.346l-48.299,47.743c0,0 19.818,19.001 43.469-4.775 22.593-22.712 4.83-42.968 4.83-42.968zm-20.755,9.57c0,0-7.432-7.153-16.301,1.798-8.473,8.55-1.811,16.176-1.811,16.176l18.112-17.974zm-6.889,72.799h41.143l-20.571-34.286-20.572,34.286zm54.858-109.715h-82.286c-15.148,0-27.429,12.28-27.429,27.429v82.286c0,15.149 12.28,27.429 27.429,27.429h82.286c15.149,0 27.429-12.28 27.429-27.429v-82.286c0-15.149-12.28-27.429-27.429-27.429zm13.715,102.859c0,11.361-9.21,20.572-20.571,20.572h-68.573c-11.361,0-20.571-9.211-20.571-20.572v-68.573c0-11.361 9.21-20.572 20.571-20.572h68.572c11.362,0 20.571,9.211 20.571,20.572v68.573z"/>
    </g>
  </g>
</svg>
