<?xml version='1.0' encoding='iso-8859-1'?>
<svg version="1.1" xmlns="http://www.w3.org/2000/svg" viewBox="0 0 137.144 137.144" xmlns:xlink="http://www.w3.org/1999/xlink" enable-background="new 0 0 137.144 137.144">
  <g>
    <g>
      <path d="m68.572,116.573l6.857-13.714v-6.858l-13.714,6.858 6.857,13.714zm-6.857-54.858l13.714-6.857v-6.857h-13.714v13.714zm0-41.143h6.857c-2.617,0.005-4.852-0.437-6.857-3.55271e-15zm0,68.572l13.714-6.857v-13.715l-13.714,6.858v13.714zm48-89.144h-82.286c-15.149,0-27.429,12.28-27.429,27.429v82.286c0,15.148 12.28,27.429 27.429,27.429h82.286c15.149,0 27.429-12.281 27.429-27.429v-82.286c0-15.149-12.28-27.429-27.429-27.429zm13.715,102.858c0,11.361-9.21,20.572-20.572,20.572h-68.572c-11.361,0-20.572-9.211-20.572-20.572v-68.572c0-11.361 9.21-20.572 20.572-20.572h68.572c11.361,0 20.572,9.211 20.572,20.572v68.572zm-54.858-82.286h6.857c-2.005-0.432-4.241-0.006-6.857-3.55271e-15zm6.857,0v13.714h-13.714v-13.714c-16.448,3.579-13.715,20.571-13.715,20.571h41.143c0.001,0 2.673-17.038-13.714-20.571z"/>
    </g>
  </g>
</svg>
