<?xml version='1.0' encoding='iso-8859-1'?>
<svg version="1.1" xmlns="http://www.w3.org/2000/svg" viewBox="0 0 137.145 137.145" xmlns:xlink="http://www.w3.org/1999/xlink" enable-background="new 0 0 137.145 137.145">
  <g>
    <g>
      <path d="m68.573,27.429c-22.723,0-41.143,18.421-41.143,41.144 0,22.723 18.42,41.143 41.143,41.143 22.723,0 41.143-18.42 41.143-41.143 0-22.723-18.421-41.144-41.143-41.144zm-20.572,54.857l-13.714-13.713 13.714-13.714v27.427zm20.572,20.573l-13.715-13.715h27.429l-13.714,13.715zm-6.858-34.286c0-3.787 3.07-6.857 6.857-6.857 3.787,0 6.857,3.07 6.857,6.857 0,3.787-3.07,6.857-6.857,6.857-3.786,1.42109e-14-6.857-3.07-6.857-6.857zm-6.857-20.572l13.714-13.715 13.714,13.715h-27.428zm34.286,34.285v-27.428l13.715,13.714-13.715,13.714zm20.572-82.286h-82.287c-15.148,0-27.429,12.281-27.429,27.429v82.287c0,15.148 12.28,27.429 27.429,27.429h82.286c15.149,0 27.429-12.281 27.429-27.429v-82.287c0-15.148-12.28-27.429-27.428-27.429zm13.714,102.859c0,11.361-9.21,20.571-20.571,20.571h-68.572c-11.362,0-20.572-9.21-20.572-20.571v-68.573c0-11.362 9.21-20.572 20.572-20.572h68.572c11.361,0 20.571,9.21 20.571,20.572v68.573z"/>
    </g>
  </g>
</svg>
