<?xml version='1.0' encoding='iso-8859-1'?>
<svg version="1.1" xmlns="http://www.w3.org/2000/svg" viewBox="0 0 137.145 137.145" xmlns:xlink="http://www.w3.org/1999/xlink" enable-background="new 0 0 137.145 137.145">
  <g>
    <g>
      <path d="m75.429,27.429c-18.935,0-34.286,15.35-34.286,34.286 0,7.227 2.261,13.912 6.079,19.441l-19.793,14.845 13.714,13.714 14.845-19.794c5.529,3.819 12.213,6.08 19.44,6.08 18.936,0 34.287-15.351 34.287-34.287 0.001-18.935-15.35-34.285-34.286-34.285zm0,54.858c-11.361,0-20.572-9.211-20.572-20.572 0-11.361 9.21-20.571 20.572-20.571 11.361,0 20.572,9.21 20.572,20.571 0,11.361-9.21,20.572-20.572,20.572zm34.287-82.287h-82.287c-15.148,0-27.429,12.281-27.429,27.429v82.287c0,15.149 12.28,27.429 27.429,27.429h82.286c15.148,0 27.429-12.28 27.429-27.429v-82.287c0-15.148-12.28-27.429-27.428-27.429zm13.714,102.858c0,11.361-9.21,20.572-20.571,20.572h-68.573c-11.361,0-20.571-9.211-20.571-20.572v-68.572c0-11.361 9.21-20.572 20.571-20.572h68.572c11.361,0 20.571,9.211 20.571,20.572v68.572z"/>
    </g>
  </g>
</svg>
