<?xml version='1.0' encoding='iso-8859-1'?>
<svg version="1.1" xmlns="http://www.w3.org/2000/svg" viewBox="0 0 137.145 137.145" xmlns:xlink="http://www.w3.org/1999/xlink" enable-background="new 0 0 137.145 137.145">
  <g>
    <g>
      <path d="m41.143,34.286h13.714v-6.857h-13.714v6.857zm-13.714,6.857h6.857v-13.714h-6.857v13.714zm34.286,68.572h13.714v-6.857h-13.714v6.857zm-20.572,0h13.714v-6.857h-13.714v6.857zm-13.714-6.857h6.857v-13.714h-6.857v13.714zm-0-41.143h6.857v-13.715h-6.857v13.715zm-0,20.571h6.857v-13.714h-6.857v13.714zm75.429-13.714h6.857v-13.714h-6.857v13.714zm0-20.572h6.857v-13.714h-6.857v13.714zm6.857-48h-82.286c-15.149,0-27.429,12.28-27.429,27.429v82.287c0,15.148 12.28,27.429 27.429,27.429h82.286c15.149,0 27.429-12.281 27.429-27.429v-82.287c0-15.149-12.28-27.429-27.429-27.429zm13.715,102.858c0,11.361-9.21,20.572-20.572,20.572h-68.572c-11.361,0-20.571-9.211-20.571-20.572v-68.572c0-11.362 9.21-20.572 20.571-20.572h68.572c11.362,0 20.572,9.21 20.572,20.572v68.572zm-20.572-13.714h6.857v-13.714h-6.857v13.714zm-20.572,20.571h13.714v-6.857h-13.714v6.857zm20.572,0h6.857v-13.714h-6.857v13.714zm-41.143-75.429h13.714v-6.857h-13.714v6.857zm20.571,0h13.714v-6.857h-13.714v6.857z"/>
    </g>
  </g>
</svg>
