<?xml version='1.0' encoding='iso-8859-1'?>
<svg version="1.1" xmlns="http://www.w3.org/2000/svg" viewBox="0 0 137.145 137.145" xmlns:xlink="http://www.w3.org/1999/xlink" enable-background="new 0 0 137.145 137.145">
  <g>
    <g>
      <path d="m102.764,34.322l-.541,.202c0.087,0.052 0.152,0.022 0.222,0.01l.273-.164c0.014-0.018 0.035-0.031 0.046-0.048zm-41.049,75.394c-0.635-0.159 0,0.739 0,0zm-27.429-34.287c0-0.58-0.476,0.317 0,0zm68.478-41.107l.094-.036c-0.037-0.025-0.019-0.033-0.04-0.053-0.017,0.033-0.028,0.048-0.054,0.089zm6.951-34.322h-82.286c-15.148,0-27.429,12.281-27.429,27.429v82.286c0,15.149 12.28,27.429 27.429,27.429h82.286c15.149,0 27.429-12.28 27.429-27.429v-82.286c0-15.148-12.28-27.429-27.429-27.429zm13.715,102.859c0,11.362-9.21,20.572-20.571,20.572h-68.573c-11.361,0-20.572-9.21-20.572-20.572v-68.572c0-11.361 9.21-20.572 20.572-20.572h68.572c11.361,0 20.571,9.211 20.571,20.572v68.572zm-20.984-68.325l-68.16,40.895c0,0 9.786,5.168 20.143,9.215l41.572-43.5-34.286,48v20.572l8.683-18.001 25.604,11.144 6.857-68.572-.139,.083c-0.069,0.092-0.16,0.143-0.274,0.164zm.373-.301c0.059-0.114 0.082-0.178 0.04,0.053 0.487-0.243-0.281-0.293-0.04-0.053z"/>
    </g>
  </g>
</svg>
