<?xml version='1.0' encoding='iso-8859-1'?>
<svg version="1.1" xmlns="http://www.w3.org/2000/svg" viewBox="0 0 137.144 137.144" xmlns:xlink="http://www.w3.org/1999/xlink" enable-background="new 0 0 137.144 137.144">
  <g>
    <g>
      <path d="m109.715,0h-82.286c-15.149,0-27.429,12.281-27.429,27.429v82.286c0,15.149 12.28,27.429 27.429,27.429h82.286c15.148,0 27.429-12.28 27.429-27.429v-82.286c0-15.148-12.28-27.429-27.429-27.429zm13.715,105.144c0,10.099-8.187,18.286-18.286,18.286h-73.144c-10.099,0-18.286-8.187-18.286-18.286v-73.144c0-10.099 8.187-18.285 18.286-18.285h73.143c10.099,0 18.286,8.187 18.286,18.285v73.144zm-31.308-50.425l10.392-10.391-9.698-9.698-10.391,10.392c-2.165-1.276-4.501-2.263-6.995-2.909v-14.684h-13.715v14.684c-2.493,0.646-4.83,1.633-6.995,2.909l-10.391-10.392-9.697,9.698 10.392,10.392c-1.277,2.165-2.263,4.502-2.909,6.995h-14.686v13.714h14.685c0.646,2.494 1.633,4.83 2.909,6.995l-10.392,10.392 9.697,9.698 10.393-10.393c2.165,1.277 4.501,2.264 6.995,2.91v14.684h13.714v-14.684c2.494-0.646 4.83-1.633 6.995-2.91l10.392,10.392 9.698-9.698-10.393-10.391c1.277-2.165 2.264-4.502 2.909-6.995h14.684v-13.714h-14.683c-0.646-2.494-1.633-4.83-2.91-6.996zm-23.549,27.567c-7.574,0-13.715-6.14-13.715-13.715 0-7.574 6.14-13.714 13.715-13.714 7.574,0 13.714,6.14 13.714,13.714 0,7.576-6.14,13.715-13.714,13.715z"/>
    </g>
  </g>
</svg>
