<?xml version='1.0' encoding='iso-8859-1'?>
<svg version="1.1" xmlns="http://www.w3.org/2000/svg" viewBox="0 0 137.144 137.144" xmlns:xlink="http://www.w3.org/1999/xlink" enable-background="new 0 0 137.144 137.144">
  <g>
    <g>
      <path d="m41.143,41.835v-14.407h-6.857v14.407c-3.976,1.422-6.857,5.129-6.857,9.594 0,4.465 2.882,8.171 6.857,9.594v41.835h6.857v-41.835c3.976-1.422 6.857-5.129 6.857-9.594 0.001-4.465-2.881-8.171-6.857-9.594zm27.429,13.715v-28.122h-6.857v28.122c-3.976,1.422-6.857,5.129-6.857,9.594 0,4.465 2.882,8.171 6.857,9.594v28.121h6.857v-28.122c3.976-1.422 6.857-5.129 6.857-9.594 0-4.464-2.881-8.17-6.857-9.593zm41.143-55.55h-82.286c-15.149,0-27.429,12.28-27.429,27.429v82.286c0,15.149 12.28,27.429 27.429,27.429h82.286c15.148,0 27.429-12.28 27.429-27.429v-82.286c0-15.149-12.28-27.429-27.429-27.429zm13.715,102.858c0,11.362-9.21,20.572-20.571,20.572h-68.573c-11.361,0-20.572-9.21-20.572-20.572v-68.572c0-11.362 9.21-20.572 20.572-20.572h68.572c11.361,0 20.571,9.21 20.571,20.572v68.572zm-20.571-33.594v-41.836h-6.857v41.836c-3.975,1.423-6.857,5.129-6.857,9.594 0,4.465 2.882,8.171 6.857,9.594v14.406h6.857v-14.407c3.975-1.422 6.857-5.129 6.857-9.594 0.001-4.464-2.881-8.17-6.857-9.593z"/>
    </g>
  </g>
</svg>
