<?xml version='1.0' encoding='iso-8859-1'?>
<svg version="1.1" xmlns="http://www.w3.org/2000/svg" viewBox="0 0 137.144 137.144" xmlns:xlink="http://www.w3.org/1999/xlink" enable-background="new 0 0 137.144 137.144">
  <g>
    <g>
      <path d="m109.715,0h-82.286c-15.149,0-27.429,12.28-27.429,27.429v82.286c0,15.149 12.28,27.429 27.429,27.429h82.286c15.148,0 27.429-12.28 27.429-27.429v-82.286c0-15.149-12.281-27.429-27.429-27.429zm13.714,102.858c0,11.361-9.21,20.572-20.572,20.572h-68.571c-11.362,0-20.572-9.21-20.572-20.572v-68.572c0-11.361 9.21-20.571 20.572-20.571h68.572c11.361,0 20.572,9.21 20.572,20.571v68.572zm-37.715-48c9.468,0 17.143-7.675 17.143-17.143 0-9.467-7.675-17.143-17.143-17.143-8.401,0-15.36,6.052-16.829,14.028l-.314-.314-27.429,20.572 .493,.494c-1.264-0.297-2.567-0.494-3.922-0.494-9.468,0-17.143,7.675-17.143,17.143s7.675,17.143 17.143,17.143c3.334,0 6.42-0.992 9.053-2.639l21.804,16.354 .314-.314c1.468,7.976 8.428,14.028 16.829,14.028 9.468,0 17.143-7.675 17.143-17.143s-7.675-17.143-17.143-17.143c-6.844,0-12.705,4.039-15.453,9.839l-17.093-12.821c1.053-2.223 1.69-4.681 1.69-7.304 0-4.601-1.836-8.759-4.787-11.838l20.192-15.144c2.747,5.8 8.608,9.839 15.452,9.839zm0-27.429c5.681,0 10.286,4.605 10.286,10.286 0,5.681-4.605,10.286-10.286,10.286-5.681,0-10.286-4.605-10.286-10.286 0-5.681 4.606-10.286 10.286-10.286zm0,61.715c5.681,0 10.286,4.605 10.286,10.286 0,5.681-4.605,10.286-10.286,10.286-5.681,0-10.286-4.605-10.286-10.286 0-5.681 4.606-10.286 10.286-10.286zm-39.005-12.423l-4.275,4.276c-1.432,0.755-2.989,1.291-4.72,1.291-5.681,0-10.286-4.605-10.286-10.286 0-5.681 4.605-10.286 10.286-10.286 5.681,0 10.286,4.605 10.286,10.286-7.10543e-15,1.73-0.536,3.287-1.291,4.719z"/>
    </g>
  </g>
</svg>
