<?xml version='1.0' encoding='iso-8859-1'?>
<svg version="1.1" xmlns="http://www.w3.org/2000/svg" viewBox="0 0 137.145 137.145" xmlns:xlink="http://www.w3.org/1999/xlink" enable-background="new 0 0 137.145 137.145">
  <g>
    <g>
      <path d="m99.43,41.143c-5.681,0-10.286,4.605-10.286,10.286 0,2.84 1.151,5.411 3.013,7.273l-10.184,10.184c-1.013-0.186-2.048-0.314-3.115-0.314s-2.102,0.128-3.115,0.314l-10.344-10.344c1.898-1.818 3.173-4.256 3.173-7.113 0-5.681-4.605-10.286-10.286-10.286-5.68,0-10.286,4.605-10.286,10.286 0,2.84 1.151,5.411 3.013,7.273l-10.446,10.446c-0.924-0.272-1.841-0.576-2.853-0.576-5.681,0-10.286,4.605-10.286,10.286 0,5.681 4.605,10.286 10.286,10.286 5.681,0 10.286-4.606 10.286-10.286 0-1.012-0.304-1.929-0.576-2.853l10.862-10.862 8.45,8.45c-3.102,3.103-5.021,7.388-5.021,12.122 0,9.468 7.675,17.143 17.143,17.143 9.468,0 17.143-7.676 17.143-17.143 0-4.734-1.919-9.019-5.021-12.122l11.878-11.878-.576-.576c4.262-1.256 7.433-5.041 7.433-9.71 0-5.681-4.605-10.286-10.285-10.286zm10.285-41.143h-82.286c-15.148,0-27.429,12.281-27.429,27.428v82.287c0,15.148 12.28,27.429 27.429,27.429h82.286c15.149,0 27.429-12.281 27.429-27.429v-82.287c0-15.147-12.28-27.428-27.429-27.428zm13.715,102.858c0,11.361-9.21,20.572-20.571,20.572h-68.572c-11.362,0-20.572-9.211-20.572-20.572v-68.572c0-11.361 9.21-20.572 20.572-20.572h68.572c11.361,0 20.571,9.211 20.571,20.572v68.572z"/>
    </g>
  </g>
</svg>
