<?xml version='1.0' encoding='iso-8859-1'?>
<svg version="1.1" xmlns="http://www.w3.org/2000/svg" viewBox="0 0 137.144 137.144" xmlns:xlink="http://www.w3.org/1999/xlink" enable-background="new 0 0 137.144 137.144">
  <g>
    <g>
      <path d="m102.859,48.001c-3.734,0-6.742,2.994-6.827,6.707l-16.031-4.07-8.427-17.114c2.263-1.12 3.856-3.398 3.856-6.095 0-3.787-3.07-6.857-6.857-6.857-3.787,0-6.857,3.07-6.857,6.857 0,2.696 1.593,4.974 3.856,6.095l-8.428,17.114-16.143,4.927c0.026-0.244 0.143-0.456 0.143-0.706 0-3.787-3.07-6.857-6.857-6.857s-6.857,3.07-6.857,6.857c0,3.787 3.07,6.857 6.857,6.857 1.228,0 2.32-0.41 3.317-0.976l13.844,13.235-8.022,22.488c-0.721-0.258-1.472-0.461-2.282-0.461-3.787,0-6.857,3.07-6.857,6.857 0,3.788 3.07,6.858 6.857,6.858 3.787,0 6.857-3.07 6.857-6.858 0-1.543-0.605-2.897-1.466-4.043l22.037-16.527 22.038,16.526c-0.861,1.146-1.466,2.5-1.466,4.043 0,3.788 3.07,6.858 6.857,6.858 3.787,0 6.857-3.07 6.857-6.858 0-3.787-3.07-6.857-6.857-6.857-0.81,0-1.561,0.203-2.282,0.461l-8.023-22.488 13.309-13.596c1.113,0.779 2.392,1.338 3.854,1.338 3.787,0 6.857-3.07 6.857-6.857-1.42109e-14-3.788-3.07-6.858-6.857-6.858zm6.856-48.001h-82.286c-15.149,0-27.429,12.28-27.429,27.429v82.287c0,15.148 12.28,27.428 27.429,27.428h82.286c15.149,0 27.429-12.28 27.429-27.428v-82.287c0-15.149-12.28-27.429-27.429-27.429zm13.715,102.858c0,11.362-9.211,20.572-20.571,20.572h-68.573c-11.361,0-20.572-9.21-20.572-20.572v-68.572c0-11.361 9.211-20.571 20.572-20.571h68.572c11.361,0 20.571,9.21 20.571,20.571v68.572z"/>
    </g>
  </g>
</svg>
