<?xml version='1.0' encoding='iso-8859-1'?>
<svg version="1.1" xmlns="http://www.w3.org/2000/svg" viewBox="0 0 137.144 137.144" xmlns:xlink="http://www.w3.org/1999/xlink" enable-background="new 0 0 137.144 137.144">
  <g>
    <g>
      <path d="m34.287,68.572c-3.474-14.711 2.786-23.786 2.786-23.786s2.41,3.675 17.786,3.214c8.566-0.257 13.714-6.857 13.714-6.857v-13.714c-0.006,0.013-7.077,13.714-20.571,13.714-8.572,0-13.714-6.857-13.714-6.857s-6.987,6.565-6.857,27.429c0.224,35.941 41.13,47.996 41.143,48v-6.857c-0.002,0-28.626-10.309-34.287-34.286zm34.285,41.143l0,0zm0-82.287v3.55271e-15l0,0zl0,0 0,0zm0,82.287l0,0zm20.572-68.572c-12.638,0-20.565-13.703-20.572-13.714v82.286c0.013-0.005 40.92-15.486 41.143-41.143 0.182-20.864-6.857-34.286-6.857-34.286s-5.143,6.857-13.714,6.857zm20.571-41.143h-82.286c-15.149,0-27.429,12.28-27.429,27.428v82.287c0,15.149 12.28,27.429 27.429,27.429h82.286c15.149,0 27.429-12.28 27.429-27.429v-82.287c0-15.148-12.28-27.428-27.429-27.428zm13.715,102.858c0,11.361-9.21,20.571-20.571,20.571h-68.573c-11.361,0-20.572-9.211-20.572-20.571v-68.572c0-11.361 9.21-20.572 20.572-20.572h68.572c11.361,0 20.571,9.21 20.571,20.572v68.572z"/>
    </g>
  </g>
</svg>
