<?xml version='1.0' encoding='iso-8859-1'?>
<svg version="1.1" xmlns="http://www.w3.org/2000/svg" viewBox="0 0 137.144 137.144" xmlns:xlink="http://www.w3.org/1999/xlink" enable-background="new 0 0 137.144 137.144">
  <g>
    <g>
      <path d="m82.287,27.429h-6.857l13.714,27.429h-41.144l13.715-27.429h-6.857l-13.714,27.429h-13.715v13.714h82.286v-13.714h-13.714l-13.714-27.429zm-41.143,82.286h54.858l6.857-34.285h-68.573l6.858,34.285zm48-27.429h6.858v6.857h-6.858v-6.857zm0,20.572h-6.857v-6.857h6.857v6.857zm-13.715-20.572h6.857v6.857h-6.857v-6.857zm0,20.572h-6.857v-6.857h6.857v6.857zm-13.714-20.572h6.857v6.857h-6.857v-6.857zm0,20.572h-6.857v-6.857h6.857v6.857zm-13.715-20.572h6.857v6.857h-6.857v-6.857zm-6.856,13.715h6.856v6.857h-6.857v-6.857zm68.572-96.001h-82.286c-15.149,0-27.429,12.28-27.429,27.429v82.286c0,15.149 12.28,27.429 27.429,27.429h82.286c15.149,0 27.429-12.28 27.429-27.429v-82.286c0-15.149-12.28-27.429-27.429-27.429zm13.714,102.858c0,11.362-9.21,20.572-20.571,20.572h-68.572c-11.361,0-20.572-9.21-20.572-20.572v-68.572c0-11.362 9.21-20.572 20.572-20.572h68.572c11.361,0 20.571,9.21 20.571,20.572v68.572z"/>
    </g>
  </g>
</svg>
