<?xml version='1.0' encoding='iso-8859-1'?>
<svg version="1.1" xmlns="http://www.w3.org/2000/svg" viewBox="0 0 137.144 137.144" xmlns:xlink="http://www.w3.org/1999/xlink" enable-background="new 0 0 137.144 137.144">
  <g>
    <g>
      <path d="M48.001,54.857h-6.857l10.072,13.715H20.572v6.857h30.643L41.144,89.143h6.857l13.714-17.359h-0.105L48.001,54.857z     M96.002,54.857h-6.857L75.43,72.216h0.105l13.609,16.927h6.857L85.93,75.429h30.643v-6.857H85.93L96.002,54.857z M109.716,0    H27.429C12.281,0,0,12.281,0,27.429v82.287c0,15.149,12.281,27.429,27.429,27.429h82.286c15.149,0,27.428-12.28,27.428-27.429    V27.429C137.144,12.281,124.864,0,109.716,0z M123.43,102.858c0,11.361-9.21,20.572-20.572,20.572H34.286    c-11.361,0-20.572-9.21-20.572-20.572V34.286c0-11.361,9.211-20.571,20.572-20.571h68.572c11.361,0,20.572,9.21,20.572,20.571    V102.858z"/>
    </g>
  </g>
</svg>
