<?xml version='1.0' encoding='iso-8859-1'?>
<svg version="1.1" xmlns="http://www.w3.org/2000/svg" viewBox="0 0 137.144 137.144" xmlns:xlink="http://www.w3.org/1999/xlink" enable-background="new 0 0 137.144 137.144">
  <g>
    <g>
      <path d="m68.573,48.208l-33.942-13.577 13.576,33.941-13.576,33.942 33.941-13.576 33.942,13.576-13.576-33.942 13.576-33.941-33.941,13.577zm4.848,25.213c-2.678,2.677-7.02,2.677-9.698,0-2.678-2.677-2.678-7.02 0-9.698 2.678-2.678 7.02-2.678 9.698,0 2.678,2.679 2.678,7.021 0,9.698zm36.294-73.421h-82.286c-15.149,0-27.429,12.28-27.429,27.428v82.287c0,15.149 12.28,27.429 27.429,27.429h82.286c15.148,0 27.429-12.28 27.429-27.429v-82.287c0-15.148-12.28-27.428-27.429-27.428zm13.715,102.859c0,11.361-9.21,20.571-20.571,20.571h-68.573c-11.362,0-20.572-9.21-20.572-20.571v-68.573c0-11.361 9.21-20.572 20.572-20.572h68.572c11.361,0 20.571,9.211 20.571,20.572v68.573z"/>
    </g>
  </g>
</svg>
