<?xml version='1.0' encoding='iso-8859-1'?>
<svg version="1.1" xmlns="http://www.w3.org/2000/svg" viewBox="0 0 137.144 137.144" xmlns:xlink="http://www.w3.org/1999/xlink" enable-background="new 0 0 137.144 137.144">
  <g>
    <g>
      <path d="m82.287,109.716h13.714v-34.286h-13.714v34.286zm-41.144,0h13.714v-34.286h-13.714v34.286zm68.572-109.716h-82.286c-15.149,0-27.429,12.28-27.429,27.429v82.286c0,15.149 12.28,27.429 27.429,27.429h82.286c15.149,0 27.429-12.28 27.429-27.429v-82.286c0-15.149-12.28-27.429-27.429-27.429zm13.714,102.858c0,11.361-9.21,20.572-20.571,20.572h-68.572c-11.362,0-20.572-9.21-20.572-20.572v-68.572c0-11.361 9.21-20.571 20.572-20.571h68.572c11.361,0 20.571,9.21 20.571,20.571v68.572zm-96-68.572h13.714l13.714,27.428h-13.714l-13.714-27.428v34.285h82.287v-6.857h-13.715l-13.714-27.428h13.714l13.714,27.428v-34.285h-82.286v6.857zm41.143,0l13.714,27.428h-13.714l-13.714-27.428h13.714z"/>
    </g>
  </g>
</svg>
