<?xml version='1.0' encoding='iso-8859-1'?>
<svg version="1.1" xmlns="http://www.w3.org/2000/svg" viewBox="0 0 137.144 137.144" xmlns:xlink="http://www.w3.org/1999/xlink" enable-background="new 0 0 137.144 137.144">
  <g>
    <g>
      <path d="m106.226,68.572c0-10.412-3.683-19.301-11.047-26.667-7.366-7.365-16.255-11.048-26.667-11.048-1.905,0-3.969,0.159-6.191,0.476-3.81-2.603-8.033-3.905-12.667-3.905-6.159,0-11.414,2.176-15.762,6.524-4.35,4.35-6.524,9.605-6.524,15.762 0,4.635 1.301,8.857 3.905,12.667-0.318,2.223-0.476,4.285-0.476,6.19 0,10.413 3.682,19.302 11.048,26.667 7.365,7.366 16.253,11.048 26.667,11.048 1.905,0 3.967-0.158 6.19-0.476 3.81,2.604 8.032,3.904 12.667,3.904 6.158,0 11.412-2.174 15.762-6.523 4.348-4.348 6.524-9.603 6.524-15.762 0-4.634-1.302-8.857-3.905-12.668 0.316-2.22 0.476-4.284 0.476-6.189zm-22.048,21.286c-4.159,2.952-9.128,4.428-14.905,4.428-6.223,0-11.557-1.205-16-3.619-4.445-2.413-6.667-5.301-6.667-8.667 0-1.587 0.476-2.936 1.429-4.048 0.952-1.111 2.317-1.667 4.095-1.667 1.269,0 2.491,0.445 3.667,1.333 1.174,0.89 2.19,1.858 3.048,2.905 0.857,1.048 2.143,2.016 3.857,2.905 1.714,0.89 3.715,1.333 6,1.333 2.413,0 4.349-0.477 5.81-1.429 1.46-0.952 2.19-2.127 2.19-3.524 0-1.205-0.381-2.158-1.143-2.857-0.762-0.698-3.016-1.524-6.762-2.476l-8.095-1.905c-4.509-1.142-7.985-2.776-10.429-4.904-2.445-2.127-3.667-5.317-3.667-9.572 0-3.492 1.079-6.429 3.239-8.81 2.158-2.382 4.714-4.048 7.667-5 2.952-0.953 6.143-1.429 9.572-1.429 5.46,0 10.317,0.969 14.571,2.905 4.253,1.937 6.381,4.428 6.381,7.476 0,1.652-0.524,3.064-1.571,4.238-1.048,1.175-2.428,1.762-4.143,1.762-1.143,0-2.223-0.334-3.238-1-1.016-0.667-1.874-1.381-2.571-2.143-0.699-0.762-1.778-1.477-3.238-2.143-1.461-0.667-3.176-1.001-5.143-1.001-5.271,0-7.905,1.429-7.905,4.286 0,1.017 0.365,1.843 1.095,2.476 0.729,0.635 1.507,1.095 2.333,1.381 0.824,0.285 2.127,0.619 3.905,1l5.714,1.238c11.429,2.604 17.143,7.462 17.143,14.572-0.001,5.02-2.081,9.004-6.239,11.956zm25.537-89.858h-82.286c-15.149,0-27.429,12.28-27.429,27.429v82.287c0,15.148 12.28,27.429 27.429,27.429h82.286c15.149,0 27.429-12.28 27.429-27.429v-82.287c0-15.149-12.28-27.429-27.429-27.429zm13.715,102.858c0,11.361-9.21,20.572-20.572,20.572h-68.572c-11.361,0-20.572-9.211-20.572-20.572v-68.572c0-11.362 9.21-20.572 20.572-20.572h68.572c11.361,0 20.572,9.21 20.572,20.572v68.572z"/>
    </g>
  </g>
</svg>
