<?xml version='1.0' encoding='iso-8859-1'?>
<svg version="1.1" xmlns="http://www.w3.org/2000/svg" viewBox="0 0 137.144 137.144" xmlns:xlink="http://www.w3.org/1999/xlink" enable-background="new 0 0 137.144 137.144">
  <g>
    <g>
      <path d="m95.898,48.093l13.821-11.056-9.612-9.612-11.048,13.81c-4.375-3.293-9.546-5.582-15.207-6.465l1.577-14.198h-13.715l1.578,14.198c-5.661,0.883-10.833,3.173-15.208,6.465l-11.048-13.811-9.612,9.612 13.821,11.056c-3.273,4.377-5.548,9.549-6.428,15.205l-14.246-1.583v13.714l14.246-1.582c0.88,5.655 3.154,10.827 6.428,15.205l-13.821,11.056 9.612,9.612 11.048-13.811c4.375,3.293 9.547,5.582 15.208,6.466l-1.578,14.198h13.714l-1.577-14.198c5.661-0.883 10.833-3.173 15.207-6.466l11.049,13.811 9.612-9.612-13.821-11.056c3.273-4.377 5.548-9.55 6.427-15.205l14.246,1.582v-13.714l-14.246,1.583c-0.879-5.655-3.153-10.827-6.427-15.204zm-22.801-6.539c4.342,0.726 8.328,2.476 11.717,4.987l-8.546,10.683c-1.398-0.95-2.986-1.63-4.688-2.011l1.517-13.659zm-26.546,10.784l10.672,8.538c-0.95,1.397-1.629,2.986-2.011,4.688l-13.613-1.513c0.723-4.336 2.459-8.322 4.952-11.713zm0,32.468c-2.494-3.391-4.23-7.378-4.953-11.713l13.613-1.513c0.382,1.702 1.062,3.291 2.011,4.688l-10.671,8.538zm17.495,10.783c-4.342-0.725-8.328-2.476-11.717-4.987l8.546-10.682c1.398,0.949 2.987,1.629 4.689,2.011l-1.518,13.658zm-3.171-38.366l-8.546-10.683c3.388-2.51 7.375-4.261 11.717-4.987l1.518,13.658c-1.703,0.383-3.291,1.062-4.689,2.012zm12.222,38.366l-1.517-13.658c1.702-0.382 3.291-1.062 4.688-2.011l8.546,10.682c-3.389,2.511-7.375,4.262-11.717,4.987zm17.495-10.783l-10.672-8.538c0.95-1.397 1.629-2.986 2.012-4.688l13.613,1.513c-0.723,4.335-2.46,8.322-4.953,11.713zm-8.66-19.243c-0.382-1.702-1.062-3.291-2.012-4.688l10.672-8.538c2.494,3.391 4.23,7.378 4.953,11.713l-13.613,1.513zm27.783-65.563h-82.286c-15.149,0-27.429,12.28-27.429,27.429v82.286c0,15.148 12.28,27.429 27.429,27.429h82.286c15.148,0 27.429-12.28 27.429-27.429v-82.286c0-15.149-12.28-27.429-27.429-27.429zm13.715,102.858c0,11.362-9.21,20.572-20.572,20.572h-68.572c-11.361,0-20.571-9.21-20.571-20.572v-68.572c0-11.361 9.21-20.571 20.571-20.571h68.572c11.361,0 20.572,9.21 20.572,20.571v68.572z"/>
    </g>
  </g>
</svg>
