<?xml version='1.0' encoding='iso-8859-1'?>
<svg version="1.1" xmlns="http://www.w3.org/2000/svg" viewBox="0 0 137.144 137.144" xmlns:xlink="http://www.w3.org/1999/xlink" enable-background="new 0 0 137.144 137.144">
  <g>
    <g>
      <path d="m96.001,82.287h-6.857v6.857h-6.857v6.857h6.857v6.857h6.857v-6.857h6.857v-6.857h-6.857v-6.857zm-20.571,13.714h-6.857v6.857h-6.857v6.858h6.857v6.857h6.857v-6.857h6.857v-6.858h-6.857v-6.857zm-6.681-20.574c-0.066,0.001-0.109,0.001-0.177,0.003-0.69,0.01-0.1,0.002 0.177-0.003zm-20.748,6.86h-6.857v6.857h-6.857v6.857h6.857v6.857h6.857v-6.857h6.857v-6.857h-6.857v-6.857zm61.714-82.287h-82.286c-15.149,0-27.429,12.28-27.429,27.429v82.287c0,15.148 12.28,27.428 27.429,27.428h82.286c15.148,0 27.429-12.28 27.429-27.428v-82.287c0-15.149-12.281-27.429-27.429-27.429zm13.714,102.858c0,11.362-9.21,20.572-20.571,20.572h-68.572c-11.361,0-20.572-9.21-20.572-20.572v-68.572c0-11.361 9.21-20.571 20.572-20.571h68.572c11.361,0 20.571,9.21 20.571,20.571v68.572zm-82.285-54.857c0.003,0 0.006-0.006 0.009-0.006-1.387,0.019-3.175,0.047-0.009,0.006zm54.857,6.857c0.495,0.851-0.882,0.023 0,0-4.353-7.479-8.587-7.175-13.714-6.857-1.924-4.28-8.385-13.604-20.571-13.714-15.692-0.142-18.3,13.644-20.563,13.708 1.072-0.015 1.909-0.026-0.009,0.006-12.952,0.214-13.714,13.715-13.714,13.715s-1.579,13.714 13.714,13.714c7.211,0 12.751,0.216 27.429,0 0.313-0.005 0.347-0.005 0.278-0.004 5.477-0.082 4.279,0.057 20.294,0.004 20.782-0.069 20.571-6.857 20.571-6.857 0.24-8.772-5.99-13.92-13.715-13.715z"/>
    </g>
  </g>
</svg>
