<?xml version='1.0' encoding='iso-8859-1'?>
<svg version="1.1" xmlns="http://www.w3.org/2000/svg" viewBox="0 0 137.144 137.144" xmlns:xlink="http://www.w3.org/1999/xlink" enable-background="new 0 0 137.144 137.144">
  <g>
    <g>
      <path d="m34.286,68.572c0-0.174 0.052-0.356 0.06-0.532-7.10543e-15-0.088-0.013-0.022-0.06,0.532zm.011,.327c0.006-0.113-0.02-0.212-0.01-0.327-0.01,0.411-0.003,0.439 0.01,0.327zm68.551,.003c0.013,0.11 0.02,0.08 0.01-0.329 0.01,0.115-0.016,0.215-0.01,0.329zm6.867-68.902h-82.286c-15.149,0-27.429,12.28-27.429,27.428v82.287c0,15.149 12.28,27.429 27.429,27.429h82.286c15.148,0 27.429-12.28 27.429-27.429v-82.287c0-15.148-12.28-27.428-27.429-27.428zm13.715,102.859c0,11.361-9.21,20.571-20.571,20.571h-68.573c-11.361,0-20.572-9.21-20.572-20.571v-68.573c0-11.361 9.21-20.572 20.572-20.572h68.572c11.361,0 20.571,9.211 20.571,20.572v68.573zm-20.625-34.659c0.007,0.117 0.055,0.259 0.055,0.373-0.061-0.726-0.064-0.62-0.055-0.373zm-13.66-20.199c-10.787-8.964-20.571-20.571-20.571-20.571s-11.073,12.571-20.572,20.571c-7.178,6.045-13.334,13.514-13.654,20.039 0.002,0.136-0.029,0.678-0.05,0.859-0.49,8.3 6.625,13.388 17.133,13.388 3.286,0 6.938-1.527 10.202-3.805-0.026,5.488-0.026,12.24 0.083,17.519 0.179,8.71-6.857,13.714-6.857,13.714h27.429c0,0-6.81-6.459-6.857-13.714-0.04-6.071-0.041-12.561-0.032-17.725 3.291,2.386 6.943,4.011 10.318,4.011 10.506,0 17.62-5.087 17.132-13.386-0.016-0.143-0.035-0.471-0.044-0.702-0.296-5.471-7.352-14.957-13.66-20.198z"/>
    </g>
  </g>
</svg>
