<?xml version='1.0' encoding='iso-8859-1'?>
<svg version="1.1" xmlns="http://www.w3.org/2000/svg" viewBox="0 0 137.144 137.144" xmlns:xlink="http://www.w3.org/1999/xlink" enable-background="new 0 0 137.144 137.144">
  <g>
    <g>
      <path d="m34.286,109.715h68.572v-82.287h-68.572v82.287zm34.286-75.429c3.788,0 6.858,3.07 6.858,6.857 0,3.788-3.07,6.857-6.858,6.857-3.787,0-6.857-3.07-6.857-6.857 0-3.787 3.07-6.857 6.857-6.857zm0,27.428c11.361,0 20.572,9.21 20.572,20.572 0,11.362-9.21,20.572-20.572,20.572-11.361,0-20.571-9.21-20.571-20.572-7.10543e-15-11.361 9.21-20.572 20.571-20.572zm0,27.429c3.788,0 6.858-3.07 6.858-6.857 0-3.787-3.07-6.857-6.858-6.857-3.787,0-6.857,3.071-6.857,6.857 0,3.788 3.07,6.857 6.857,6.857zm41.143-89.143h-82.286c-15.149,0-27.429,12.28-27.429,27.428v82.287c0,15.149 12.28,27.429 27.429,27.429h82.286c15.148,0 27.429-12.28 27.429-27.429v-82.287c0-15.148-12.28-27.428-27.429-27.428zm13.715,102.858c0,11.362-9.21,20.571-20.571,20.571h-68.573c-11.362,0-20.572-9.21-20.572-20.571v-68.572c0-11.362 9.21-20.572 20.572-20.572h68.572c11.361,0 20.571,9.21 20.571,20.572v68.572z"/>
    </g>
  </g>
</svg>
