<?xml version='1.0' encoding='iso-8859-1'?>
<svg version="1.1" xmlns="http://www.w3.org/2000/svg" viewBox="0 0 137.145 137.145" xmlns:xlink="http://www.w3.org/1999/xlink" enable-background="new 0 0 137.145 137.145">
  <g>
    <g>
      <path d="m27.429,89.144h13.714v20.572l20.572-20.572h48v-61.715h-82.286v61.715zm13.714-48.001h54.858v6.858h-54.858v-6.858zm0,13.714h54.858v6.857h-54.858v-6.857zm0,13.715h41.143v6.857h-41.143v-6.857zm68.573-68.572h-82.287c-15.148,0-27.429,12.281-27.429,27.429v82.287c0,15.148 12.28,27.429 27.429,27.429h82.286c15.149,0 27.429-12.281 27.429-27.429v-82.287c0-15.148-12.28-27.429-27.428-27.429zm13.714,102.859c0,11.361-9.21,20.572-20.571,20.572h-68.573c-11.361,0-20.571-9.211-20.571-20.572v-68.572c0-11.361 9.21-20.572 20.571-20.572h68.572c11.361,0 20.571,9.211 20.571,20.572v68.572z"/>
    </g>
  </g>
</svg>
