<?xml version='1.0' encoding='iso-8859-1'?>
<svg version="1.1" xmlns="http://www.w3.org/2000/svg" viewBox="0 0 137.145 137.145" xmlns:xlink="http://www.w3.org/1999/xlink" enable-background="new 0 0 137.145 137.145">
  <g>
    <g>
      <path d="m41.144,20.573v6.857h20.571l-20.571-6.857zm41.143,0h-13.715v13.715h13.714v-13.715zm-41.142,13.714v6.857l20.571-6.857h-20.571zm13.714,27.429h41.143l-20.571-20.572-20.572,20.572zm0,54.857h41.143v-48h-41.143v48zm27.429-41.143h6.857v34.286h-6.857v-34.286zm27.429-75.43h-82.287c-15.149,0-27.429,12.281-27.429,27.429v82.286c0,15.148 12.28,27.429 27.429,27.429h82.287c15.149,0 27.429-12.28 27.429-27.429v-82.286c-0.001-15.148-12.281-27.429-27.429-27.429zm13.714,102.859c0,11.361-9.21,20.572-20.572,20.572h-68.572c-11.361,0-20.571-9.21-20.571-20.572v-68.572c0-11.362 9.21-20.572 20.571-20.572h68.572c11.362,0 20.572,9.21 20.572,20.572v68.572z"/>
    </g>
  </g>
</svg>
