<?xml version='1.0' encoding='iso-8859-1'?>
<svg version="1.1" xmlns="http://www.w3.org/2000/svg" viewBox="0 0 137.145 137.145" xmlns:xlink="http://www.w3.org/1999/xlink" enable-background="new 0 0 137.145 137.145">
  <g>
    <g>
      <path d="M82.286,54.858H68.572v13.715H54.857v13.714H41.143v13.714H27.428v13.714h27.429l6.857-6.857l13.714-13.715l13.714-13.715    l20.572-20.571h6.857V41.144H82.286V54.858z M27.428,68.573l17.143-17.143l10.286,10.285l6.857-34.285l-34.286,6.857    l10.286,10.286L20.571,61.715L27.428,68.573z M109.716,0H27.429C12.281,0,0,12.28,0,27.429v82.286    c0,15.149,12.28,27.429,27.429,27.429h82.287c15.148,0,27.429-12.28,27.429-27.429V27.429C137.144,12.28,124.864,0,109.716,0z     M123.43,102.859c0,11.361-9.21,20.572-20.572,20.572H34.286c-11.361,0-20.572-9.21-20.572-20.572V34.286    c0-11.361,9.21-20.572,20.572-20.572h68.572c11.361,0,20.572,9.21,20.572,20.572V102.859z"/>
    </g>
  </g>
</svg>
