<?xml version='1.0' encoding='iso-8859-1'?>
<svg version="1.1" xmlns="http://www.w3.org/2000/svg" viewBox="0 0 137.144 137.144" xmlns:xlink="http://www.w3.org/1999/xlink" enable-background="new 0 0 137.144 137.144">
  <g>
    <g>
      <path d="M96.001,82.286H82.286V68.572H68.572V54.857H54.858V41.143H20.571v13.714h6.857L48,75.429l13.714,13.715l13.714,13.715    l6.857,6.857h27.429V96H96.001V82.286z M109.716,0H27.429C12.28,0,0,12.281,0,27.429v82.286c0,15.149,12.28,27.429,27.429,27.429    h82.287c15.148,0,27.429-12.28,27.429-27.429V27.429C137.144,12.281,124.864,0,109.716,0z M123.43,102.858    c0,11.362-9.21,20.572-20.572,20.572H34.286c-11.361,0-20.572-9.21-20.572-20.572V34.286c0-11.361,9.21-20.571,20.572-20.571    h68.572c11.362,0,20.572,9.21,20.572,20.571V102.858z M92.572,37.714L75.429,20.571l-6.857,6.858l17.143,17.143L75.429,54.857    l34.286,6.857l-6.857-34.285L92.572,37.714z"/>
    </g>
  </g>
</svg>
