<?xml version='1.0' encoding='iso-8859-1'?>
<svg version="1.1" xmlns="http://www.w3.org/2000/svg" viewBox="0 0 137.145 137.145" xmlns:xlink="http://www.w3.org/1999/xlink" enable-background="new 0 0 137.145 137.145">
  <g>
    <g>
      <path d="m109.716,0h-82.287c-15.148,0-27.429,12.281-27.429,27.429v82.287c0,15.148 12.28,27.429 27.429,27.429h82.286c15.149,0 27.429-12.281 27.429-27.429v-82.287c0-15.148-12.28-27.429-27.428-27.429zm13.714,102.859c0,11.361-9.21,20.571-20.572,20.571h-68.571c-11.361,0-20.572-9.21-20.572-20.571v-68.573c0-11.362 9.21-20.572 20.572-20.572h68.572c11.361,0 20.572,9.21 20.572,20.572v68.573zm-34.287-54.858h-41.143v41.143h41.143v-41.143zm6.858-13.715h-13.715v-6.857h-6.857v6.857h-13.715v-6.857h-6.857v6.857h-13.714v-6.857h-13.714v13.714h6.857v13.714h-6.857v6.857h6.857v13.715h-6.857v6.857h6.857v13.715h-6.857v13.715h13.714v-6.857h13.714v6.857h6.857v-6.857h13.715v6.857h6.857v-6.857h13.714v6.857h13.714v-13.715h-6.857v-13.715h6.857v-6.857h-6.857v-13.715h6.857v-6.857h-6.857v-13.714h6.857v-13.714h-13.713v6.857zm0,61.716h-54.858v-54.858h54.858v54.858z"/>
    </g>
  </g>
</svg>
