<?xml version='1.0' encoding='iso-8859-1'?>
<svg version="1.1" xmlns="http://www.w3.org/2000/svg" viewBox="0 0 137.144 137.144" xmlns:xlink="http://www.w3.org/1999/xlink" enable-background="new 0 0 137.144 137.144">
  <g>
    <g>
      <path d="M109.715,0H27.429C12.28,0,0,12.28,0,27.429v82.286c0,15.149,12.28,27.429,27.429,27.429h82.286    c15.149,0,27.429-12.28,27.429-27.429V27.429C137.144,12.28,124.864,0,109.715,0z M123.43,102.858    c0,11.362-9.21,20.572-20.571,20.572H34.286c-8.944,0-16.478-5.742-19.312-13.714h-1.26v-6.857c0,2.417,0.494,4.703,1.26,6.857    h53.598V96.001H13.714V75.429h89.144V61.714H13.714V41.143h68.572V27.429H14.974c-0.766,2.155-1.26,4.439-1.26,6.857v-6.857h1.26    c2.834-7.972,10.368-13.715,19.312-13.715h68.572c11.361,0,20.571,9.21,20.571,20.572V102.858z"/>
    </g>
  </g>
</svg>
