<?xml version='1.0' encoding='iso-8859-1'?>
<svg version="1.1" xmlns="http://www.w3.org/2000/svg" viewBox="0 0 137.144 137.144" xmlns:xlink="http://www.w3.org/1999/xlink" enable-background="new 0 0 137.144 137.144">
  <g>
    <g>
      <path d="M41.143,54.857H27.429v67.313c2.153,0.765,4.437,1.259,6.853,1.259h6.861V54.857z M61.715,123.429h13.715V34.286H61.715    V123.429z M96,68.572v54.857h6.862c2.416,0,4.7-0.494,6.853-1.259V68.572H96z M109.715,0H27.429C12.28,0,0,12.28,0,27.429v82.286    c0,15.149,12.28,27.429,27.429,27.429h82.286c15.148,0,27.429-12.28,27.429-27.429V27.429C137.144,12.28,124.864,0,109.715,0z     M123.43,102.858c0,8.945-5.743,16.479-13.714,19.312v1.259h-6.853c-0.001,0-0.003,0-0.004,0H34.286c-0.002,0-0.003,0-0.004,0    h-6.853v-1.259c-7.972-2.834-13.714-10.368-13.714-19.312V34.286c0-11.362,9.21-20.572,20.572-20.572h68.572    c11.361,0,20.571,9.21,20.571,20.572V102.858z"/>
    </g>
  </g>
</svg>
