<?xml version='1.0' encoding='iso-8859-1'?>
<svg version="1.1" xmlns="http://www.w3.org/2000/svg" viewBox="0 0 137.145 137.145" xmlns:xlink="http://www.w3.org/1999/xlink" enable-background="new 0 0 137.145 137.145">
  <g>
    <g>
      <path d="m96.001,68.573c0,0-0.001-0.065-0.003-0.158 0.001,0.054 0.002,0.098 0.003,0.158zm-61.703-.73c0.002-0.115 0.003-0.145 0,0zm-.007,.428c0.004-0.215 0.006-0.347 0.007-0.428-0.001,0.103-0.004,0.27-0.007,0.428zm-.003,.16c0.001-0.053 0.001-0.086 0.003-0.16-0.001,0.063-0.002,0.112-0.003,0.16zm-.002,.142c0,0 0.001-0.061 0.002-0.142-7.10543e-15,0.034-0.001,0.073-0.002,0.142zm61.705-.605c-0.003-0.18-0.004-0.268-0.005-0.302 0.001,0.045 0.003,0.163 0.005,0.302zm13.724-67.968h-82.286c-15.148,0-27.429,12.281-27.429,27.429v82.286c0,15.148 12.28,27.429 27.429,27.429h82.286c15.149,0 27.429-12.28 27.429-27.429v-82.286c0-15.148-12.28-27.429-27.429-27.429zm13.715,102.858c0,11.361-9.21,20.572-20.572,20.572h-68.572c-11.361,0-20.571-9.21-20.571-20.572v-68.572c0-11.361 9.21-20.572 20.571-20.572h68.572c11.362,0 20.572,9.21 20.572,20.572v68.572zm-20.572-20.571c-3.305,0-6.061,5.847-6.71,13.627-0.03,0.049-0.128,0.026-0.147,0.087 0,0-14.689,13.657-27.429,13.714-15.452,0.07-34.334-10.705-6.857-27.428h27.429c0,0 13.714-1.848 13.714-13.714v-27.429c0,0 0.563-13.714-13.714-13.714h-0.692c-1.422-3.975-5.129-6.857-9.594-6.857-5.681,0-10.286,4.605-10.286,10.285 0,5.681 4.605,10.286 10.286,10.286 4.461,0 8.163-2.878 9.589-6.848 0.001-0.003 0.004-0.006 0.005-0.01h0.692c7.437-0.103 6.857,6.857 6.857,6.857v27.429c0.103,6.181-6.857,6.857-6.857,6.857h-48c0,0-6.96-0.676-6.857-6.857v-27.428c0,0-0.58-6.96 6.857-6.857h0.692c0.001,0.003 0.004,0.006 0.005,0.01 1.425,3.97 5.128,6.848 9.589,6.848 5.681,0 10.286-4.606 10.286-10.286 0-5.68-4.605-10.285-10.286-10.285-4.465,0-8.171,2.882-9.594,6.857h-0.692c-14.277,0-13.714,13.714-13.714,13.714v27.429c0,11.867 13.714,13.714 13.714,13.714h9.361c-5.049,4.411-9.807,11.097-9.361,20.571 0.562,11.978 14.059,14.709 27.429,13.714 17.549-1.304 27.429-13.714 27.429-13.714-0.755-0.012-1.141-0.018-1.357-0.022 0.434,0.007 1.357,0.022 1.357,0.022 0.046,0.001 0.092,0.001 0.138,0.001 0.636,7.824 3.402,13.713 6.719,13.713 3.317,0 6.083-5.888 6.719-13.712 0.041-0.001 0.138-0.002 0.138-0.002s-0.112-0.081-0.134-0.098c0.085-1.079 0.134-2.189 0.134-3.331-1.42109e-14-9.468-3.07-17.143-6.858-17.143z"/>
    </g>
  </g>
</svg>
