<?xml version='1.0' encoding='iso-8859-1'?>
<svg version="1.1" xmlns="http://www.w3.org/2000/svg" viewBox="0 0 137.144 137.144" xmlns:xlink="http://www.w3.org/1999/xlink" enable-background="new 0 0 137.144 137.144">
  <g>
    <g>
      <path d="m41.144,41.144c0.003,0 0.006-0.006 0.009-0.006-1.386,0.02-3.174,0.048-0.009,0.006zm34.286,34.286h-13.715l-13.714,20.571h13.714l-6.857,20.571 27.429-27.428h-16l9.143-13.714zm-6.681-6.86c-0.066,0.001-0.108,0.001-0.177,0.002-0.69,0.011-0.1,0.002 0.177-0.002zm27.252-20.569c0.496,0.851-0.882,0.024 0,0-4.352-7.478-8.587-7.175-13.714-6.857-1.924-4.28-8.385-13.605-20.571-13.715-15.692-0.141-18.3,13.644-20.563,13.709 1.072-0.015 1.909-0.026-0.009,0.006-12.952,0.214-13.714,13.715-13.714,13.715s-1.578,13.714 13.714,13.714c7.211,0 12.751,0.216 27.429,0 0.421-0.007 0.339-0.005 0.177-0.002 5.597-0.086 4.279,0.055 20.395,0.002 20.782-0.069 20.571-6.857 20.571-6.857 0.24-8.773-5.99-13.921-13.715-13.715zm13.714-48.001h-82.286c-15.149,0-27.429,12.28-27.429,27.429v82.287c0,15.148 12.28,27.428 27.429,27.428h82.286c15.148,0 27.429-12.28 27.429-27.428v-82.287c0-15.149-12.28-27.429-27.429-27.429zm13.714,102.858c0,11.362-9.21,20.572-20.571,20.572h-68.572c-11.361,0-20.572-9.21-20.572-20.572v-68.572c0-11.361 9.21-20.571 20.572-20.571h68.572c11.361,0 20.571,9.21 20.571,20.571v68.572z"/>
    </g>
  </g>
</svg>
