<?xml version='1.0' encoding='iso-8859-1'?>
<svg version="1.1" xmlns="http://www.w3.org/2000/svg" viewBox="0 0 137.144 137.144" xmlns:xlink="http://www.w3.org/1999/xlink" enable-background="new 0 0 137.144 137.144">
  <g>
    <g>
      <path d="m81.164,61.686l11.409-11.409 11.409,11.409 5.704-5.705-11.408-11.408 11.409-11.409-5.704-5.705-11.41,11.409-11.409-11.409-5.704,5.705 11.409,11.409-11.409,11.409 5.704,5.704zm-25.183,13.774l-11.408,11.409-11.409-11.409-5.704,5.704 11.409,11.409-11.409,11.409 5.704,5.704 11.409-11.409 11.409,11.409 5.704-5.704-11.409-11.409 11.409-11.409-5.705-5.704zm53.734-75.46h-82.286c-15.149,0-27.429,12.28-27.429,27.429v82.286c0,15.149 12.28,27.429 27.429,27.429h82.286c15.149,0 27.429-12.28 27.429-27.429v-82.286c0-15.149-12.28-27.429-27.429-27.429zm13.715,102.859c0,11.36-9.211,20.571-20.571,20.571h-68.573c-11.361,0-20.572-9.211-20.572-20.571v-68.573c0-11.361 9.211-20.572 20.572-20.572h68.572c11.361,0 20.571,9.211 20.571,20.572v68.573zm-30.856-27.429c-9.468,0-17.143,7.675-17.143,17.143s7.675,17.143 17.143,17.143c9.468,0 17.143-7.675 17.143-17.143s-7.675-17.143-17.143-17.143zm0,27.302c-5.611,0-10.159-4.548-10.159-10.159 0-5.61 4.548-10.159 10.159-10.159 5.61,0 10.159,4.548 10.159,10.159 0,5.61-4.549,10.159-10.159,10.159zm-48.001-75.302c-9.468-7.10543e-15-17.143,7.675-17.143,17.143 0,9.468 7.675,17.143 17.143,17.143 9.468,0 17.143-7.675 17.143-17.143 0.001-9.468-7.675-17.143-17.143-17.143zm0,27.302c-5.611,0-10.159-4.549-10.159-10.159 0-5.611 4.548-10.158 10.159-10.158 5.611,0 10.159,4.548 10.159,10.158 0,5.609-4.548,10.159-10.159,10.159z"/>
    </g>
  </g>
</svg>
