<?xml version='1.0' encoding='iso-8859-1'?>
<svg version="1.1" xmlns="http://www.w3.org/2000/svg" viewBox="0 0 137.145 137.145" xmlns:xlink="http://www.w3.org/1999/xlink" enable-background="new 0 0 137.145 137.145">
  <g>
    <g>
      <path d="m89.144,75.43h-54.857v6.857h54.858v-6.857zm-54.858,20.572h54.858v-6.857h-54.858v6.857zm-6.858,13.714h68.572v-6.857h-68.572v6.857zm6.858-68.572h54.858v-6.857h6.857v-6.858h-68.573v6.858h6.857v6.857zm54.858,13.715v6.857c0,0 13.88,1.159 13.714,13.714-0.168,12.725 0,27.429 0,27.429h6.857c0,0 0.148-17.085 0-27.429-0.289-20.171-20.571-20.571-20.571-20.571zm20.572-54.859h-82.287c-15.148,0-27.429,12.281-27.429,27.429v82.287c0,15.148 12.28,27.429 27.429,27.429h82.286c15.148,0 27.429-12.281 27.429-27.429v-82.287c0-15.148-12.28-27.429-27.428-27.429zm13.714,102.859c0,11.361-9.21,20.572-20.572,20.572h-68.572c-11.361,0-20.571-9.211-20.571-20.572v-68.572c0-11.362 9.21-20.572 20.571-20.572h68.572c11.361,0 20.572,9.21 20.572,20.572v68.572zm-89.143-54.858v6.857h54.858v-6.857h-54.858zm0,20.572h54.858v-6.857h-54.858v6.857z"/>
    </g>
  </g>
</svg>
