<?xml version='1.0' encoding='iso-8859-1'?>
<svg version="1.1" xmlns="http://www.w3.org/2000/svg" viewBox="0 0 137.145 137.145" xmlns:xlink="http://www.w3.org/1999/xlink" enable-background="new 0 0 137.145 137.145">
  <g>
    <g>
      <path d="m109.716,0h-82.287c-15.148,0-27.429,12.281-27.429,27.429v82.287c0,15.149 12.28,27.429 27.429,27.429h82.286c15.148,0 27.429-12.28 27.429-27.429v-82.287c0-15.148-12.28-27.429-27.428-27.429zm13.714,102.858c0,11.361-9.21,20.572-20.572,20.572h-68.572c-11.361,0-20.571-9.211-20.571-20.572v-68.572c0-11.361 9.21-20.572 20.571-20.572h68.572c11.361,0 20.572,9.211 20.572,20.572v68.572zm-89.144,0h6.857-6.857zm61.715,0h6.857-6.857zm0-54.857c0-11.362-12.28-20.572-27.429-20.572-15.149,0-27.429,9.21-27.429,20.572v6.857h-13.714v48h6.857v-48h6.857v48h54.857v-48h6.857v48h6.857v-48h-13.713v-6.857zm-27.429,6.857c-7.555,0 0.428,0.144-13.714,0l.036-6.857c0-3.787 6.124-6.857 13.679-6.857 7.555,0 13.679,3.07 13.679,6.857l.036,6.857c-11.144-0.07-6.161,0-13.716,0z"/>
    </g>
  </g>
</svg>
