<?xml version='1.0' encoding='iso-8859-1'?>
<svg version="1.1" xmlns="http://www.w3.org/2000/svg" viewBox="0 0 137.144 137.144" xmlns:xlink="http://www.w3.org/1999/xlink" enable-background="new 0 0 137.144 137.144">
  <g>
    <g>
      <path d="m48.024,43.469l-9.127-9.263-4.563,4.632 9.127,9.263 4.563-4.632zm-13.818,54.778l4.632,4.563 9.263-9.127-4.632-4.564-9.263,9.128zm6.938-36.532l-20.572,6.857 20.572,6.857v-13.714zm61.795-22.817l-4.632-4.564-9.263,9.127 4.632,4.564 9.263-9.127zm-34.367-18.326l-6.857,20.572h13.714l-6.857-20.572zm27.429,54.858l20.572-6.857-20.572-6.857v13.714zm-6.881,18.245l9.127,9.263 4.564-4.632-9.127-9.264-4.564,4.633zm-20.548,22.898l6.857-20.571h-13.714l6.857,20.571zm41.143-116.573h-82.286c-15.149,0-27.429,12.28-27.429,27.429v82.287c0,15.148 12.28,27.428 27.429,27.428h82.286c15.148,0 27.429-12.28 27.429-27.428v-82.287c0-15.149-12.281-27.429-27.429-27.429zm13.714,102.858c0,11.362-9.21,20.572-20.571,20.572h-68.572c-11.361,0-20.572-9.21-20.572-20.572v-68.572c0-11.361 9.21-20.571 20.572-20.571h68.572c11.361,0 20.571,9.21 20.571,20.571v68.572zm-54.857-54.857c-11.361,0-20.572,9.21-20.572,20.572 0,11.361 9.21,20.572 20.572,20.572 11.362,0 20.571-9.211 20.571-20.572 0.001-11.362-9.209-20.572-20.571-20.572z"/>
    </g>
  </g>
</svg>
