<?xml version='1.0' encoding='iso-8859-1'?>
<svg version="1.1" xmlns="http://www.w3.org/2000/svg" viewBox="0 0 137.144 137.144" xmlns:xlink="http://www.w3.org/1999/xlink" enable-background="new 0 0 137.144 137.144">
  <g>
    <g>
      <path d="m109.715,0h-82.286c-15.149,0-27.429,12.28-27.429,27.429v82.286c0,15.148 12.28,27.429 27.429,27.429h82.286c15.148,0 27.429-12.281 27.429-27.429v-82.286c0-15.149-12.28-27.429-27.429-27.429zm13.715,102.858c0,11.361-9.21,20.572-20.572,20.572h-68.572c-11.361,0-20.571-9.211-20.571-20.572v-68.572c0-11.361 9.21-20.572 20.571-20.572h68.572c11.362,0 20.572,9.211 20.572,20.572v68.572zm-27.429-54.857c-5.425-6.781-13.714-6.857-13.714-6.857h-6.857c0,0 9.036,2.822 13.714,6.857 4.493,3.876 8.004,12.939 10.353,20.779-3.312-0.407-6.982-0.207-10.353-0.207-1.358,0-2.465-0.045-3.365,0.009-0.023,0-0.041-0.009-0.064-0.009-3.21,0-5.961,1.04-7.847,2.576-2.167-1.367-5.171-2.548-9.296-2.576-4.331-0.029-7.351,1.08-9.467,2.407-1.886-1.446-4.576-2.407-7.676-2.407-0.088,0-0.161,0.032-0.249,0.033-0.901-0.073-1.952-0.033-3.18-0.033-3.37,0-7.041-0.2-10.352,0.207 2.349-7.84 5.859-16.903 10.352-20.779 4.678-4.036 13.714-6.857 13.714-6.857h-6.857c0,0-8.29,0.077-13.714,6.857-4.504,5.63-8.354,16.1-10.82,23.999-1.972,2.034-3.179,5.152-2.895,10.287 0.418,7.563 4.032,13.5 13.714,13.714 6.956,0.154 14.761-6.937 18.43-13.714 0,0 4.499-6.857 8.998-6.857s8.998,6.857 8.998,6.857c3.669,6.777 11.475,13.869 18.431,13.714 9.682-0.214 13.296-6.151 13.714-13.714 0.284-5.135-0.923-8.253-2.895-10.287-2.464-7.899-6.313-18.37-10.817-23.999z"/>
    </g>
  </g>
</svg>
