<?xml version='1.0' encoding='iso-8859-1'?>
<svg version="1.1" xmlns="http://www.w3.org/2000/svg" viewBox="0 0 137.145 137.145" xmlns:xlink="http://www.w3.org/1999/xlink" enable-background="new 0 0 137.145 137.145">
  <g>
    <g>
      <path d="m109.715,0h-82.286c-15.149,0-27.429,12.28-27.429,27.429v82.286c0,15.149 12.28,27.429 27.429,27.429h82.286c15.148,0 27.429-12.28 27.429-27.429v-82.286c0-15.149-12.28-27.429-27.429-27.429zm13.715,102.859c0,11.361-9.21,20.571-20.571,20.571h-68.573c-11.362,0-20.572-9.21-20.572-20.571v-68.573c0-11.361 9.21-20.571 20.572-20.571h68.572c11.361,0 20.571,9.21 20.571,20.571v68.573zm-41.142-27.43c3.787,0 6.857-3.07 6.857-6.857s-3.07-6.857-6.857-6.857c-3.788,0-6.857,3.07-6.857,6.857s3.069,6.857 6.857,6.857zm-54.858,34.286h82.287v-82.286h-82.287v82.286zm72-6.857c-1.894,0-3.428-1.536-3.428-3.429 0-1.893 1.535-3.428 3.428-3.428 1.894,0 3.429,1.535 3.429,3.428 0,1.894-1.535,3.429-3.429,3.429zm0-68.572c1.894,0 3.429,1.535 3.429,3.429 0,1.894-1.535,3.429-3.429,3.429-1.894,0-3.428-1.535-3.428-3.429 0-1.894 1.534-3.429 3.428-3.429zm-44.572,20.571h27.429c7.574,0 13.714,6.141 13.714,13.715 0,7.575-6.14,13.715-13.714,13.715h-27.429c-7.574,0-13.715-6.14-13.715-13.715 0.001-7.574 6.141-13.715 13.715-13.715zm-17.143-20.571c1.894,0 3.428,1.535 3.428,3.429 0,1.894-1.535,3.429-3.428,3.429-1.893,0-3.429-1.535-3.429-3.429 0.001-1.894 1.536-3.429 3.429-3.429zm0,61.715c1.894,0 3.428,1.535 3.428,3.428 0,1.894-1.535,3.429-3.428,3.429-1.893,0-3.429-1.536-3.429-3.429 0.001-1.893 1.536-3.428 3.429-3.428z"/>
    </g>
  </g>
</svg>
