<?xml version='1.0' encoding='iso-8859-1'?>
<svg version="1.1" xmlns="http://www.w3.org/2000/svg" viewBox="0 0 137.145 137.145" xmlns:xlink="http://www.w3.org/1999/xlink" enable-background="new 0 0 137.145 137.145">
  <g>
    <g>
      <path d="m109.716,0h-82.287c-15.148,0-27.429,12.281-27.429,27.429v82.287c0,15.148 12.28,27.429 27.429,27.429h82.286c15.149,0 27.429-12.281 27.429-27.429v-82.287c0-15.148-12.28-27.429-27.428-27.429zm13.714,102.859c0,11.361-9.21,20.572-20.572,20.572h-68.572c-11.362,0-20.572-9.211-20.572-20.572v-68.572c0-11.362 9.21-20.572 20.572-20.572h68.572c11.361,0 20.572,9.21 20.572,20.572v68.572zm-96.001-13.714l-6.857,13.714c0,0-0.034,6.657 6.857,6.857 7.388,0.214 6.857-6.857 6.857-6.857l-6.857-13.714zm48-40.847v-0.989c2.893-1.035 5.13-3.273 6.165-6.165h14.406v-6.857h-14.405c-1.035-2.892-3.272-5.13-6.165-6.165v-0.693h-6.857v0.693c-2.892,1.035-5.13,3.272-6.165,6.165h-14.407v6.857h14.407c1.035,2.892 3.273,5.13 6.165,6.165v0.989c-8.901,1.101-16.163,6.339-19.099,13.409-0.514,0.003-0.88,0.005-1.473,0.009-26.588,0.166-27.429,20.571-27.429,20.571h13.714c0,0-0.917-6.956 13.714-6.857 0.588,0.004 0.935-0.037 1.449-0.058 3.287,8.001 12.092,13.772 22.552,13.772 10.434,0 19.225-5.743 22.531-13.714h22.041v-13.714h-22.041c-2.934-7.075-10.198-12.317-19.103-13.418z"/>
    </g>
  </g>
</svg>
