<?xml version='1.0' encoding='iso-8859-1'?>
<svg version="1.1" xmlns="http://www.w3.org/2000/svg" viewBox="0 0 137.144 137.144" xmlns:xlink="http://www.w3.org/1999/xlink" enable-background="new 0 0 137.144 137.144">
  <g>
    <g>
      <path d="m68.572,48c-11.362,0-20.571,9.21-20.571,20.572 0,11.361 9.21,20.571 20.571,20.571 11.361,0 20.571-9.21 20.571-20.571 0.001-11.362-9.21-20.572-20.571-20.572zm0,27.43c-3.787,0-6.857-3.07-6.857-6.857 0-3.787 3.07-6.857 6.857-6.857s6.857,3.07 6.857,6.857c0,3.786-3.07,6.857-6.857,6.857zm0-54.858c-26.509-3.55271e-15-48,21.491-48,48.001 0,26.51 21.491,48 48,48 26.51,0 48.001-21.49 48.001-48-0.001-26.511-21.491-48.001-48.001-48.001zm0,82.286c-18.936,0-34.286-15.35-34.286-34.285 0-18.936 15.35-34.287 34.286-34.287s34.286,15.35 34.286,34.287c0,18.935-15.35,34.285-34.286,34.285zm41.143-102.858h-82.286c-15.149,0-27.429,12.28-27.429,27.429v82.286c0,15.149 12.28,27.429 27.429,27.429h82.286c15.149,0 27.429-12.28 27.429-27.429v-82.286c0-15.149-12.28-27.429-27.429-27.429zm13.715,102.858c0,11.362-9.21,20.572-20.571,20.572h-68.573c-11.361,0-20.572-9.21-20.572-20.572v-68.572c0-11.362 9.21-20.572 20.572-20.572h68.572c11.361,0 20.571,9.21 20.571,20.572v68.572z"/>
    </g>
  </g>
</svg>
