<?xml version='1.0' encoding='iso-8859-1'?>
<svg version="1.1" xmlns="http://www.w3.org/2000/svg" viewBox="0 0 137.144 137.144" xmlns:xlink="http://www.w3.org/1999/xlink" enable-background="new 0 0 137.144 137.144">
  <g>
    <g>
      <path d="m109.715,0h-82.286c-15.149,0-27.429,12.28-27.429,27.428v82.287c0,15.149 12.28,27.429 27.429,27.429h82.286c15.149,0 27.429-12.28 27.429-27.429v-82.287c0-15.148-12.28-27.428-27.429-27.428zm13.715,102.858c0,11.361-9.21,20.571-20.571,20.571h-68.573c-11.361,0-20.572-9.211-20.572-20.571v-68.572c0-11.361 9.21-20.572 20.572-20.572h68.572c11.361,0 20.571,9.21 20.571,20.572v68.572zm-34.285-75.43h-6.857l-17.143,22.858-17.144-22.858h-6.857l20.571,27.429h-34.285v54.858h82.286v-54.858h-41.143l20.572-27.429zm10.286,41.144c1.893,0 3.428,1.535 3.428,3.429 0,1.893-1.535,3.428-3.428,3.428-1.893,0-3.429-1.535-3.429-3.428 0-1.894 1.535-3.429 3.429-3.429zm-3.429,13.714h6.857v13.714h-6.857v-13.714zm-6.857-20.571v41.144h-54.858v-41.144h54.858z"/>
    </g>
  </g>
</svg>
