<?xml version='1.0' encoding='iso-8859-1'?>
<svg version="1.1" xmlns="http://www.w3.org/2000/svg" viewBox="0 0 137.144 137.144" xmlns:xlink="http://www.w3.org/1999/xlink" enable-background="new 0 0 137.144 137.144">
  <g>
    <g>
      <path d="m102.857,100.547c-5.727-7.897-13.956-19.846-20.571-31.975-5.827-10.684-9.807-21.745-11.923-28.325l11.923-5.961v-6.857l-13.714,6.857-13.714-6.857v6.857l11.921,5.961c-2.119,6.584-6.103,17.659-11.921,28.325-6.622,12.14-14.847,24.083-20.572,31.977v-18.263h-6.857v27.429h82.286v-27.429h-6.857v18.261zm-48.001,2.311l13.714-34.286 13.714,34.286h-27.428zm54.858-102.858h-82.286c-15.149,0-27.429,12.28-27.429,27.429v82.286c0,15.148 12.28,27.429 27.429,27.429h82.286c15.149,0 27.429-12.28 27.429-27.429v-82.286c0-15.149-12.281-27.429-27.429-27.429zm13.714,102.858c0,11.362-9.21,20.572-20.572,20.572h-68.571c-11.361,0-20.571-9.21-20.571-20.572v-68.572c0-11.361 9.21-20.571 20.571-20.571h68.572c11.362,0 20.572,9.21 20.572,20.571v68.572z"/>
    </g>
  </g>
</svg>
