<?xml version='1.0' encoding='iso-8859-1'?>
<svg version="1.1" xmlns="http://www.w3.org/2000/svg" viewBox="0 0 137.144 137.144" xmlns:xlink="http://www.w3.org/1999/xlink" enable-background="new 0 0 137.144 137.144">
  <g>
    <g>
      <path d="m102.858,82.286c0,0-12.398-9.128-20.572-20.572-5.461-7.646-9.35-16.157-11.563-21.647l11.563-5.782v-6.857l-13.714,6.857-13.714-6.857v6.857l11.526,5.763c-2.283,5.596-6.26,14.294-11.526,21.666-8.61,12.054-20.572,20.572-20.572,20.572v-13.714h-6.857v41.143h20.571v-26.872c4.804-4.517 10.829-10.424 13.714-14.271 5.117-6.823 6.857-13.714 6.857-13.714s1.819,6.997 6.857,13.714c2.922,3.896 8.927,9.783 13.714,14.281v26.862h20.572v-41.143h-6.857v13.714zm6.858-82.286h-82.286c-15.149,0-27.429,12.28-27.429,27.429v82.286c0,15.148 12.28,27.429 27.429,27.429h82.286c15.148,0 27.429-12.28 27.429-27.429v-82.286c0-15.149-12.28-27.429-27.429-27.429zm13.715,102.858c0,11.362-9.21,20.572-20.572,20.572h-68.572c-11.361,0-20.572-9.21-20.572-20.572v-68.572c0-11.361 9.21-20.571 20.572-20.571h68.572c11.362,0 20.572,9.21 20.572,20.571v68.572z"/>
    </g>
  </g>
</svg>
