<?xml version='1.0' encoding='iso-8859-1'?>
<svg version="1.1" xmlns="http://www.w3.org/2000/svg" viewBox="0 0 137.144 137.144" xmlns:xlink="http://www.w3.org/1999/xlink" enable-background="new 0 0 137.144 137.144">
  <g>
    <g>
      <path d="M109.715,0H27.429C12.28,0,0,12.28,0,27.429v82.286c0,15.148,12.28,27.429,27.429,27.429h82.286    c15.149,0,27.429-12.28,27.429-27.429V27.429C137.144,12.28,124.864,0,109.715,0z M123.429,102.858    c0,11.362-9.21,20.572-20.572,20.572H34.286c-11.361,0-20.572-9.21-20.572-20.572V34.286c0-11.361,9.21-20.571,20.572-20.571    h68.572c11.361,0,20.572,9.21,20.572,20.571V102.858z M58.286,27.429L20.571,48H96L58.286,27.429z M102.858,89.143H82.286v20.572    h6.857V96h13.714v13.714h6.857V68.572h-6.857V89.143z M75.429,54.857H41.143l13.714,6.857v41.143H41.143v6.857h34.286v-6.857    H61.714V61.714L75.429,54.857z"/>
    </g>
  </g>
</svg>
