<?xml version='1.0' encoding='iso-8859-1'?>
<svg version="1.1" xmlns="http://www.w3.org/2000/svg" viewBox="0 0 137.144 137.144" xmlns:xlink="http://www.w3.org/1999/xlink" enable-background="new 0 0 137.144 137.144">
  <g>
    <g>
      <path d="m34.19,54.651h2.388c0.859-5.567 2.92-9.801 6.18-12.81 2.309-2.155 6.02-3.233 11.137-3.233l7.821-.001v51.68c0.429,3.575 0.13,0.083 0,4.911-0.029,3.513-3.174,3.183-4.169,3.722-1.314,0.764-3.936,0.948-6.154,0.948h-3.37v3.07h40.934v-2.873h-2.941c-2.173,0-6.037-0.163-7.304-0.881-1.268-0.718-3.377-2.75-3.281-3.79 0.212-2.34-0.214-1.442 0-5.107l.09-51.678h7.847c3.576,0 6.066,0.315 7.47,0.943 2.535,1.258 4.538,2.919 6.01,4.984 1.47,2.066 2.795,5.384 3.973,10.098l2.04,.01v-20.358h-68.575l-.096,20.365zm75.525-54.651h-82.286c-15.149,0-27.429,12.28-27.429,27.428v82.287c0,15.149 12.28,27.429 27.429,27.429h82.286c15.148,0 27.429-12.28 27.429-27.429v-82.287c0-15.148-12.28-27.428-27.429-27.428zm13.715,102.858c0,11.361-9.21,20.571-20.572,20.571h-68.572c-11.361,0-20.572-9.211-20.572-20.571v-68.572c0-11.361 9.21-20.572 20.572-20.572h68.572c11.361,0 20.572,9.21 20.572,20.572v68.572z"/>
    </g>
  </g>
</svg>
