<?xml version='1.0' encoding='iso-8859-1'?>
<svg version="1.1" xmlns="http://www.w3.org/2000/svg" viewBox="0 0 137.144 137.144" xmlns:xlink="http://www.w3.org/1999/xlink" enable-background="new 0 0 137.144 137.144">
  <g>
    <g>
      <path d="m82.287,65.52v-31.233c0-7.574-6.14-13.715-13.714-13.715-7.574,0-13.714,6.14-13.714,13.715v31.233c-8.164,4.751-13.714,13.498-13.714,23.625 0,15.148 12.28,27.428 27.429,27.428 15.149,0 27.429-12.28 27.429-27.428-0.002-10.127-5.552-18.874-13.716-23.625zm-6.857-17.519c-10.929-0.07-3.07,0-6.857,0-3.787,0 3.429,0.144-6.857,0v-13.714c0-3.787 3.07-6.857 6.857-6.857 3.787,0 6.857,3.071 6.857,6.857v13.714zm34.285-48.001h-82.286c-15.149,0-27.429,12.28-27.429,27.429v82.287c0,15.148 12.28,27.429 27.429,27.429h82.286c15.149,0 27.429-12.28 27.429-27.429v-82.287c0-15.149-12.28-27.429-27.429-27.429zm13.715,102.858c0,11.362-9.21,20.571-20.571,20.571h-68.573c-11.361,0-20.572-9.21-20.572-20.571v-68.572c0-11.361 9.21-20.572 20.572-20.572h68.572c11.361,0 20.571,9.21 20.571,20.572v68.572z"/>
    </g>
  </g>
</svg>
