<?xml version='1.0' encoding='iso-8859-1'?>
<svg version="1.1" xmlns="http://www.w3.org/2000/svg" viewBox="0 0 137.144 137.144" xmlns:xlink="http://www.w3.org/1999/xlink" enable-background="new 0 0 137.144 137.144">
  <g>
    <g>
      <path d="m109.715,0h-82.286c-15.149,0-27.429,12.28-27.429,27.429v82.287c0,15.148 12.28,27.429 27.429,27.429h82.286c15.148,0 27.429-12.281 27.429-27.429v-82.287c0-15.149-12.28-27.429-27.429-27.429zm13.715,102.858c0,11.361-9.21,20.572-20.571,20.572h-68.573c-11.362,0-20.572-9.211-20.572-20.572v-68.573c0-11.361 9.21-20.571 20.572-20.571h68.572c11.361,0 20.571,9.211 20.571,20.571v68.573zm-48-75.43h6.857v-6.857h-27.428v6.857h6.857v6.858h6.857 6.857v-6.858zm-6.857,6.858c-22.723,0-41.144,18.42-41.144,41.143 0,22.723 18.42,41.143 41.144,41.143 22.723,0 41.143-18.42 41.143-41.143 0-22.724-18.42-41.143-41.143-41.143zm0,68.572c-15.149,0-27.429-12.28-27.429-27.429 0-15.148 12.281-27.429 27.429-27.429 7.487,0 14.259,3.016 19.208,7.88l-26.065,19.549 6.857,6.857 19.549-26.066c4.863,4.949 7.88,11.721 7.88,19.209 0,15.149-12.28,27.429-27.429,27.429z"/>
    </g>
  </g>
</svg>
