<?xml version='1.0' encoding='iso-8859-1'?>
<svg version="1.1" xmlns="http://www.w3.org/2000/svg" viewBox="0 0 137.144 137.144" xmlns:xlink="http://www.w3.org/1999/xlink" enable-background="new 0 0 137.144 137.144">
  <g>
    <g>
      <path d="M109.715,0H27.429C12.28,0,0,12.281,0,27.429v82.286c0,15.149,12.28,27.429,27.429,27.429h82.286    c15.149,0,27.429-12.28,27.429-27.429V27.429C137.144,12.281,124.864,0,109.715,0z M123.43,102.858    c0,11.361-9.21,20.572-20.572,20.572H34.286c-11.361,0-20.571-9.21-20.571-20.572V34.286c0-11.361,9.21-20.572,20.571-20.572    h68.572c11.361,0,20.572,9.21,20.572,20.572V102.858z M34.286,109.716h68.572v-6.857H34.286V109.716z M89.144,41.144H75.429    V27.429H61.715v13.714H48.001V27.429H34.286v27.429h68.572V27.429H89.144V41.144z M48.001,61.715v34.286h41.143V61.715H48.001z"/>
    </g>
  </g>
</svg>
