<?xml version='1.0' encoding='iso-8859-1'?>
<svg version="1.1" xmlns="http://www.w3.org/2000/svg" viewBox="0 0 137.144 137.144" xmlns:xlink="http://www.w3.org/1999/xlink" enable-background="new 0 0 137.144 137.144">
  <g>
    <g>
      <path d="m95.823,68.572h-68.395v6.857h68.394c0,0 7.256,1.717 7.053,9.858-0.213,8.571-7.052,10.713-7.052,10.713h-54.716c0,0-6.726-0.003-6.839-3.428-0.107-3.219 6.839-3.429 6.839-3.429h47.876v-6.857h-47.876c0,0-13.574,0.213-13.679,10.286-0.105,10.071 13.679,10.286 13.679,10.286h54.715c0,0 14.011-3.215 13.892-17.143-0.131-15.43-13.891-17.143-13.891-17.143zm-68.609-24c-0.119,13.928 13.929,17.142 13.929,17.142h54.858c0,0 13.819-0.215 13.714-10.286-0.105-10.073-13.714-10.286-13.714-10.286h-48.001v6.858h48c0,0 6.965,0.209 6.857,3.428-0.114,3.425-6.857,3.429-6.857,3.429h-54.857c0,0-6.857-2.143-7.072-10.714-0.203-8.141 7.072-9.858 7.072-9.858h68.572v-6.857h-68.572c0,0.001-13.797,1.714-13.929,17.144zm82.501-44.572h-82.286c-15.149,0-27.429,12.28-27.429,27.429v82.286c0,15.149 12.28,27.429 27.429,27.429h82.286c15.149,0 27.429-12.28 27.429-27.429v-82.286c0-15.149-12.28-27.429-27.429-27.429zm13.715,102.858c0,11.362-9.211,20.572-20.572,20.572h-68.572c-11.361,0-20.571-9.21-20.571-20.572v-68.572c0-11.361 9.211-20.571 20.571-20.571h68.572c11.361,0 20.572,9.21 20.572,20.571v68.572z"/>
    </g>
  </g>
</svg>
