<?xml version='1.0' encoding='iso-8859-1'?>
<svg version="1.1" xmlns="http://www.w3.org/2000/svg" viewBox="0 0 137.145 137.145" xmlns:xlink="http://www.w3.org/1999/xlink" enable-background="new 0 0 137.145 137.145">
  <g>
    <g>
      <path d="m109.716,0h-82.287c-15.148,0-27.429,12.281-27.429,27.429v82.287c0,15.148 12.28,27.429 27.429,27.429h82.286c15.149,0 27.429-12.281 27.429-27.429v-82.287c0-15.148-12.28-27.429-27.428-27.429zm13.714,102.859c0,11.361-9.21,20.571-20.571,20.571h-68.572c-11.361,0-20.572-9.21-20.572-20.571v-68.573c0-11.362 9.21-20.572 20.572-20.572h68.572c11.361,0 20.571,9.21 20.571,20.572v68.573zm-54.858-75.43c-22.723-3.55271e-15-41.143,18.421-41.143,41.144 0,22.723 18.421,41.143 41.143,41.143 22.723,0 41.144-18.42 41.144-41.143-1.42109e-14-22.723-18.421-41.144-41.144-41.144zm20.5,68.476l-20.5-27.333-20.5,27.333c-8.324-6.255-13.786-16.118-13.786-27.333h34.286l-17.577-29.295c5.155-3.101 11.123-4.991 17.577-4.991 6.454,0 12.422,1.89 17.577,4.991l-17.577,29.296h34.286c0.001,11.214-5.462,21.077-13.786,27.332z"/>
    </g>
  </g>
</svg>
