<?xml version='1.0' encoding='iso-8859-1'?>
<svg version="1.1" xmlns="http://www.w3.org/2000/svg" viewBox="0 0 137.144 137.144" xmlns:xlink="http://www.w3.org/1999/xlink" enable-background="new 0 0 137.144 137.144">
  <g>
    <g>
      <path d="m109.715,0h-82.286c-15.149,0-27.429,12.28-27.429,27.429v82.286c0,15.149 12.28,27.429 27.429,27.429h82.286c15.149,0 27.429-12.28 27.429-27.429v-82.286c0-15.149-12.28-27.429-27.429-27.429zm13.715,102.858c0,11.361-9.21,20.572-20.571,20.572h-68.573c-11.361,0-20.572-9.21-20.572-20.572v-68.572c0-11.361 9.21-20.571 20.572-20.571h68.572c11.361,0 20.571,9.21 20.571,20.571v68.572zm-82.285-54.857v-13.714h-13.715l13.715,13.714zm0,54.858v-13.715h-13.715l13.715,13.715zm0-27.429v-13.715h-13.715l13.715,13.715zm54.857,0l13.714-13.715h-13.714v13.715zm0-27.429l13.714-13.714h-13.714v13.714zm-48,61.715h41.143v-82.287h-41.143v82.287zm20.571-75.429c3.787,7.10543e-15 6.857,3.07 6.857,6.857 0,3.788-3.07,6.857-6.857,6.857-3.787,0-6.857-3.07-6.857-6.857 0-3.788 3.07-6.857 6.857-6.857zm0,27.428c3.787,0 6.857,3.07 6.857,6.857 0,3.788-3.07,6.858-6.857,6.858-3.787,0-6.857-3.07-6.857-6.858 0-3.787 3.07-6.857 6.857-6.857zm0,27.429c3.787,0 6.857,3.07 6.857,6.857 0,3.787-3.07,6.857-6.857,6.857-3.787,0-6.857-3.07-6.857-6.857 0-3.787 3.07-6.857 6.857-6.857zm27.429,13.715l13.714-13.715h-13.714v13.715z"/>
    </g>
  </g>
</svg>
