<?xml version='1.0' encoding='iso-8859-1'?>
<svg version="1.1" xmlns="http://www.w3.org/2000/svg" viewBox="0 0 137.144 137.144" xmlns:xlink="http://www.w3.org/1999/xlink" enable-background="new 0 0 137.144 137.144">
  <g>
    <g>
      <path d="m82.287,54.857l.03-27.458-27.459,.03 10.285,10.286-37.687,37.687 6.858,6.858 37.687-37.688 10.286,10.285zm27.428-54.857h-82.286c-15.149,0-27.429,12.28-27.429,27.428v82.287c0,15.149 12.28,27.429 27.429,27.429h82.286c15.148,0 27.429-12.28 27.429-27.429v-82.287c0-15.148-12.28-27.428-27.429-27.428zm13.715,102.858c0,11.361-9.21,20.571-20.571,20.571h-68.573c-11.362,0-20.572-9.211-20.572-20.571v-68.572c0-11.361 9.21-20.572 20.572-20.572h68.572c11.361,0 20.571,9.21 20.571,20.572v68.572zm-58.286-10.286l-10.285-10.286v27.428h27.429l-10.286-10.285 37.688-37.687-6.858-6.859-37.688,37.689z"/>
    </g>
  </g>
</svg>
