<?xml version='1.0' encoding='iso-8859-1'?>
<svg version="1.1" xmlns="http://www.w3.org/2000/svg" viewBox="0 0 137.144 137.144" xmlns:xlink="http://www.w3.org/1999/xlink" enable-background="new 0 0 137.144 137.144">
  <g>
    <g>
      <path d="M68.572,20.571c-11.361,0-27.429,27.888-27.429,41.143c0,11.838,12.814,18.934,23.648,20.317l-3.076,27.683h6.857h6.857    l-3.076-27.683C83.186,80.649,96,73.552,96,61.714C96,48.459,79.933,20.571,68.572,20.571z M48,113.144    c0,1.893,9.21,3.428,20.572,3.428c11.361,0,20.571-1.535,20.571-3.428c0-1.894-9.21-3.429-20.571-3.429    C57.21,109.715,48,111.25,48,113.144z M109.715,0H27.429C12.28,0,0,12.28,0,27.429v82.286c0,15.148,12.28,27.429,27.429,27.429    h82.286c15.148,0,27.429-12.28,27.429-27.429V27.429C137.144,12.28,124.864,0,109.715,0z M123.43,102.858    c0,11.362-9.21,20.572-20.572,20.572H34.286c-11.361,0-20.571-9.21-20.571-20.572V34.286c0-11.361,9.21-20.571,20.571-20.571    h68.572c11.361,0,20.572,9.21,20.572,20.571V102.858z"/>
    </g>
  </g>
</svg>
