<?xml version='1.0' encoding='iso-8859-1'?>
<svg version="1.1" xmlns="http://www.w3.org/2000/svg" viewBox="0 0 137.144 137.144" xmlns:xlink="http://www.w3.org/1999/xlink" enable-background="new 0 0 137.144 137.144">
  <g>
    <g>
      <path d="m75.429,27.429l-14.861,.061c-0.854,7.238-2.839,12.571-5.955,16-3.117,3.428-7.628,6.095-13.534,8l.063,10.225h13.714v27.429c0,6.921 0.494,12.142 4.234,15.538 3.74,3.397 9.547,5.095 17.421,5.095 3.674,0 7.2-0.412 10.581-1.238 3.379-0.824 5.576-1.491 6.594-2 1.017-0.508 1.787-0.92 2.313-1.239v-12.666l-1.969,.857c-1.247,0.572-2.903,1.143-4.97,1.714-2.067,0.571-3.891,0.76-5.462,0.857-6.881,0.428-8.17-4.749-8.17-13.776v-20.571h20.572v-13.715h-20.571v-20.571zm34.286-27.429h-82.286c-15.149,0-27.429,12.28-27.429,27.429v82.287c0,15.148 12.28,27.429 27.429,27.429h82.286c15.149,0 27.429-12.28 27.429-27.429v-82.287c0-15.149-12.28-27.429-27.429-27.429zm13.715,102.858c0,11.361-9.21,20.572-20.571,20.572h-68.573c-11.361,0-20.572-9.211-20.572-20.572v-68.572c0-11.362 9.21-20.572 20.572-20.572h68.572c11.361,0 20.571,9.21 20.571,20.572v68.572z"/>
    </g>
  </g>
</svg>
