<?xml version='1.0' encoding='iso-8859-1'?>
<svg version="1.1" xmlns="http://www.w3.org/2000/svg" viewBox="0 0 137.145 137.145" xmlns:xlink="http://www.w3.org/1999/xlink" enable-background="new 0 0 137.145 137.145">
  <g>
    <g>
      <path d="m68.573,109.715c-5.282,0-6.857-6.857-6.857-6.857v-6.858h-6.857v6.858c0,0-0.177,13.929 13.714,13.714 4.68-0.072 6.857-6.857 6.857-6.857v-34.286h-6.857v34.286zm41.142-109.715h-82.286c-15.148,0-27.429,12.281-27.429,27.429v82.286c0,15.149 12.28,27.429 27.429,27.429h82.286c15.149,0 27.429-12.28 27.429-27.429v-82.286c0-15.148-12.28-27.429-27.429-27.429zm13.715,102.859c0,11.361-9.21,20.572-20.571,20.572h-68.573c-11.361,0-20.572-9.21-20.572-20.572v-68.573c0-11.361 9.21-20.572 20.572-20.572h68.572c11.361,0 20.571,9.21 20.571,20.572v68.573zm-27.428-61.715c-7.521-4.822-15.224-6.342-20.572-6.788v-6.926h-6.857v6.857c0,0-15.438-0.824-27.429,6.857-14.702,9.418-20.572,34.285-20.572,34.285s13.441-6.857 20.572-6.857c6.56,0 13.714,6.857 13.714,6.857s7.003-6.857 13.714-6.857c6.997,0 13.714,6.857 13.714,6.857s6.426-6.857 13.714-6.857c9.546,0 20.571,6.857 20.571,6.857s-3.842-23.561-20.569-34.285z"/>
    </g>
  </g>
</svg>
