<?xml version='1.0' encoding='iso-8859-1'?>
<svg version="1.1" xmlns="http://www.w3.org/2000/svg" viewBox="0 0 137.145 137.145" xmlns:xlink="http://www.w3.org/1999/xlink" enable-background="new 0 0 137.145 137.145">
  <g>
    <g>
      <path d="m82.282,47.995c0.001,0.002 0.003,0.004 0.004,0.006 0.388-0.035 0.192-0.022-0.004-0.006zm27.434-47.995h-82.287c-15.148,0-27.429,12.281-27.429,27.429v82.287c0,15.149 12.28,27.429 27.429,27.429h82.286c15.148,0 27.429-12.28 27.429-27.429v-82.287c0-15.148-12.28-27.429-27.428-27.429zm13.714,102.858c0,11.361-9.21,20.572-20.571,20.572h-68.573c-11.361,0-20.571-9.211-20.571-20.572v-68.572c0-11.361 9.21-20.572 20.571-20.572h68.572c11.361,0 20.571,9.211 20.571,20.572v68.572zm-41.143-54.857c-0.399,0.028-0.201,0.01-0.004-0.006-5.26-8.054-14.54-13.709-25.139-13.709-16.411,0-29.715,12.829-29.715,28.653v4.409c0,15.07 12.105,27.287 27.429,28.431v0.223h6.858v-13.716h-13.714l20.571-27.429 20.572,27.429h-13.715v13.715h11.429v-0.223c12.798-1.13 22.857-11.387 22.857-24.023 0-13.39-9.257-25.04-27.429-23.754z"/>
    </g>
  </g>
</svg>
