<?xml version='1.0' encoding='iso-8859-1'?>
<svg version="1.1" xmlns="http://www.w3.org/2000/svg" viewBox="0 0 137.144 137.144" xmlns:xlink="http://www.w3.org/1999/xlink" enable-background="new 0 0 137.144 137.144">
  <g>
    <g>
      <path d="m97.644,34.36c-1.843,0-3.826,0.367-5.952,1.098-2.128,0.733-4.271,1.846-6.429,3.342-2.159,1.497-4.143,3.577-5.953,6.237-1.809,2.661-3.128,5.686-3.952,9.079 3.428-1.596 6-1.829 7.715-0.698 1.714,1.131 2.571,3.16 2.571,6.086 0,2.262-0.857,5.287-2.571,9.078-1.714,3.792-3.62,7.119-5.715,9.978-2.096,2.861-3.714,4.291-4.857,4.291-2.667,0-5.143-7.782-7.429-23.347-0.128-0.798-0.302-2.178-0.524-4.141-0.223-1.961-0.429-3.557-0.619-4.789-0.191-1.23-0.476-2.776-0.857-4.64-0.381-1.861-0.843-3.375-1.381-4.54-0.54-1.163-1.191-2.345-1.952-3.542s-1.714-2.078-2.857-2.643c-1.143-0.565-2.414-0.849-3.81-0.849-1.904,0-4.128,0.748-6.667,2.245-2.54,1.497-4.809,3.16-6.809,4.989-2,1.83-4.064,3.926-6.19,6.286-2.128,2.362-3.557,4.025-4.286,4.989-0.73,0.964-1.318,1.713-1.762,2.245l3.429,4.39c3.491-2.528 5.905-3.742 7.238-3.643 1.334,0.1 2.349,1.314 3.048,3.643l10.285,34.122c0.572,1.93 1.143,3.576 1.714,4.939 0.572,1.364 1.429,3.027 2.572,4.988 1.143,1.963 2.602,3.492 4.381,4.59 1.777,1.098 3.777,1.646 6,1.646 2.729,0 6.555-2.111 11.476-6.335 4.92-4.223 9.746-9.33 14.477-15.316 4.729-5.987 8.857-12.655 12.381-20.004 3.523-7.349 5.285-13.752 5.285-19.207 0-4.323-1.128-7.833-3.381-10.526-2.255-2.693-5.128-4.041-8.619-4.041zm12.071-34.36h-82.286c-15.149,0-27.429,12.28-27.429,27.429v82.287c0,15.148 12.28,27.429 27.429,27.429h82.286c15.148,0 27.429-12.28 27.429-27.429v-82.287c0-15.149-12.28-27.429-27.429-27.429zm13.715,102.858c0,11.361-9.21,20.572-20.571,20.572h-68.573c-11.362,0-20.572-9.211-20.572-20.572v-68.572c0-11.362 9.21-20.572 20.572-20.572h68.572c11.361,0 20.571,9.21 20.571,20.572v68.572z"/>
    </g>
  </g>
</svg>
