<?xml version='1.0' encoding='iso-8859-1'?>
<svg version="1.1" xmlns="http://www.w3.org/2000/svg" viewBox="0 0 137.144 137.144" xmlns:xlink="http://www.w3.org/1999/xlink" enable-background="new 0 0 137.144 137.144">
  <g>
    <g>
      <path d="M75.429,75.429h6.857V61.714h-6.857V75.429z M27.428,54.857v27.429h13.715l27.429,20.572V34.286L41.143,54.857H27.428z     M89.143,82.286h6.858V54.857h-6.858V82.286z M109.715,0H27.429C12.28,0,0,12.28,0,27.428v82.287    c0,15.149,12.28,27.429,27.429,27.429h82.286c15.149,0,27.429-12.28,27.429-27.429V27.428C137.144,12.28,124.864,0,109.715,0z     M123.43,102.858c0,11.362-9.21,20.571-20.571,20.571H34.286c-11.361,0-20.572-9.21-20.572-20.571V34.286    c0-11.362,9.21-20.572,20.572-20.572h68.572c11.361,0,20.571,9.21,20.571,20.572V102.858z M102.858,89.143h6.857V48h-6.857V89.143    z"/>
    </g>
  </g>
</svg>
