<?xml version='1.0' encoding='iso-8859-1'?>
<svg version="1.1" xmlns="http://www.w3.org/2000/svg" viewBox="0 0 137.144 137.144" xmlns:xlink="http://www.w3.org/1999/xlink" enable-background="new 0 0 137.144 137.144">
  <g>
    <g>
      <path d="m82.287,68.572h20.571v-13.714h-75.429v54.858h75.429v-13.715h-20.571v-27.429zm27.428-68.572h-82.286c-15.149,0-27.429,12.28-27.429,27.429v82.286c0,15.149 12.28,27.429 27.429,27.429h82.286c15.149,0 27.429-12.28 27.429-27.429v-82.286c0-15.149-12.28-27.429-27.429-27.429zm13.714,102.858c0,11.361-9.21,20.572-20.571,20.572h-68.572c-11.361,0-20.571-9.21-20.571-20.572v-68.572c0-11.361 9.21-20.571 20.571-20.571h68.572c11.361,0 20.571,9.21 20.571,20.571v68.572zm-39-66.215l3.643,11.358h7.929l-6.857-20.572-54.858,20.572h20.571l29.572-11.358zm4.715,52.501h20.572v-13.714h-20.572v13.714z"/>
    </g>
  </g>
</svg>
