<?xml version='1.0' encoding='iso-8859-1'?>
<svg version="1.1" xmlns="http://www.w3.org/2000/svg" viewBox="0 0 137.144 137.144" xmlns:xlink="http://www.w3.org/1999/xlink" enable-background="new 0 0 137.144 137.144">
  <g>
    <g>
      <path d="m68.572,27.429c-22.723,0-41.144,18.42-41.144,41.143s18.421,41.143 41.144,41.143c22.723,0 41.143-18.42 41.143-41.143s-18.42-41.143-41.143-41.143zm6.857,68.572h-13.714v-13.715h13.715v13.715zm-.001-20.572h-13.714v-34.286h13.715v34.286zm34.285-75.429h-82.286c-15.149,0-27.429,12.28-27.429,27.429v82.286c0,15.149 12.28,27.429 27.429,27.429h82.286c15.149,0 27.429-12.28 27.429-27.429v-82.286c0-15.149-12.28-27.429-27.429-27.429zm13.715,102.858c0,11.362-9.21,20.572-20.571,20.572h-68.573c-11.361,0-20.572-9.21-20.572-20.572v-68.572c0-11.362 9.21-20.572 20.572-20.572h68.572c11.361,0 20.571,9.21 20.571,20.572v68.572z"/>
    </g>
  </g>
</svg>
