<?xml version='1.0' encoding='iso-8859-1'?>
<svg version="1.1" xmlns="http://www.w3.org/2000/svg" viewBox="0 0 137.144 137.144" xmlns:xlink="http://www.w3.org/1999/xlink" enable-background="new 0 0 137.144 137.144">
  <g>
    <g>
      <path d="m109.715,0h-82.286c-15.149,0-27.429,12.28-27.429,27.429v82.286c0,15.149 12.28,27.429 27.429,27.429h82.286c15.149,0 27.429-12.28 27.429-27.429v-82.286c0-15.149-12.28-27.429-27.429-27.429zm13.715,102.858c0,11.361-9.21,20.572-20.572,20.572h-68.572c-11.361,0-20.572-9.21-20.572-20.572v-68.572c0-11.361 9.21-20.571 20.572-20.571h68.572c11.361,0 20.572,9.21 20.572,20.571v68.572zm-89.144-54.857h68.572v-20.572h-68.572v20.572zm24.001-13.714c1.894,0 3.428,1.535 3.428,3.428 0,1.894-1.535,3.429-3.428,3.429-1.894,0-3.429-1.535-3.429-3.429 0-1.894 1.535-3.428 3.429-3.428zm-13.715,0c1.893,0 3.428,1.535 3.428,3.428 0,1.894-1.535,3.429-3.428,3.429-1.894,0-3.429-1.535-3.429-3.429 0.001-1.894 1.535-3.428 3.429-3.428zm24,61.714c7.574,0 13.714-6.141 13.714-13.715 0-7.574-6.14-13.715-13.714-13.715-7.574,0-13.714,6.141-13.714,13.715-7.10543e-15,7.575 6.14,13.715 13.714,13.715zm0-20.571c3.787,0 6.857,3.07 6.857,6.857 0,3.787-3.07,6.857-6.857,6.857-3.787,0-6.857-3.07-6.857-6.857 0-3.787 3.07-6.857 6.857-6.857zm-34.286,34.286h68.572v-54.858h-68.572v54.858zm34.286-48.001c11.362,0 20.572,9.211 20.572,20.572s-9.21,20.572-20.572,20.572c-11.361-1.42109e-14-20.572-9.211-20.572-20.572s9.211-20.572 20.572-20.572z"/>
    </g>
  </g>
</svg>
