<?xml version='1.0' encoding='iso-8859-1'?>
<svg version="1.1" xmlns="http://www.w3.org/2000/svg" viewBox="0 0 137.145 137.145" xmlns:xlink="http://www.w3.org/1999/xlink" enable-background="new 0 0 137.145 137.145">
  <g>
    <g>
      <path d="m68.573,102.859c-14.921-0.009-20.571-6.857-20.571-6.857l-6.857,13.715h54.858l-6.857-13.715c-0.002,0-5.081,6.866-20.573,6.857zm0-48.001c-3.787,0-6.857,3.07-6.857,6.857 0,3.787 3.07,6.857 6.857,6.857 3.787,0 6.857-3.071 6.857-6.857 1.42109e-14-3.786-3.07-6.857-6.857-6.857zm41.143-54.858h-82.287c-15.148,0-27.429,12.281-27.429,27.429v82.287c0,15.148 12.28,27.429 27.429,27.429h82.286c15.148,0 27.429-12.28 27.429-27.429v-82.287c0-15.148-12.28-27.429-27.428-27.429zm13.714,102.858c0,11.361-9.21,20.572-20.572,20.572h-68.572c-11.361,0-20.572-9.211-20.572-20.572v-68.572c0-11.361 9.21-20.572 20.572-20.572h68.572c11.361,0 20.572,9.211 20.572,20.572v68.572zm-54.857-75.429c-18.936-3.55271e-15-34.286,15.351-34.286,34.286s15.35,34.286 34.286,34.286c18.936,0 34.286-15.35 34.286-34.286s-15.35-34.286-34.286-34.286zm0,54.859c-11.361,0-20.571-9.211-20.571-20.572 0-11.362 9.21-20.572 20.571-20.572 11.361,0 20.572,9.21 20.572,20.572-0.001,11.361-9.211,20.572-20.572,20.572z"/>
    </g>
  </g>
</svg>
