<?xml version='1.0' encoding='iso-8859-1'?>
<svg version="1.1" xmlns="http://www.w3.org/2000/svg" viewBox="0 0 137.145 137.145" xmlns:xlink="http://www.w3.org/1999/xlink" enable-background="new 0 0 137.145 137.145">
  <g>
    <g>
      <path d="m68.572,54.859h-20.571l-20.572,54.857h82.286l-20.571-54.857h-20.572zm41.144-54.859h-82.287c-15.149,0-27.429,12.281-27.429,27.429v82.286c0,15.148 12.28,27.429 27.429,27.429h82.287c15.148,0 27.429-12.28 27.429-27.429v-82.286c-0.001-15.148-12.281-27.429-27.429-27.429zm13.714,102.859c0,11.362-9.21,20.572-20.572,20.572h-68.572c-11.361,0-20.572-9.21-20.572-20.572v-68.572c0-11.361 9.21-20.572 20.572-20.572h68.572c11.362,0 20.572,9.211 20.572,20.572v68.572zm-41.143-61.715c0-7.574-6.14-13.715-13.714-13.715-7.574,0-13.714,6.141-13.714,13.715 0,7.574 6.14,13.715 13.714,13.715 7.574,7.10543e-15 13.714-6.14 13.714-13.715zm-13.715,6.858c-3.787,0-6.857-3.07-6.857-6.857s3.07-6.857 6.857-6.857c3.787,0 6.857,3.07 6.857,6.857s-3.07,6.857-6.857,6.857z"/>
    </g>
  </g>
</svg>
