<?xml version='1.0' encoding='iso-8859-1'?>
<svg version="1.1" xmlns="http://www.w3.org/2000/svg" viewBox="0 0 137.144 137.144" xmlns:xlink="http://www.w3.org/1999/xlink" enable-background="new 0 0 137.144 137.144">
  <g>
    <g>
      <path d="m68.572,75.428c-13.359,0.051-19.286,9.001-19.286,9.001l5.571,4.714c0,0 4.507-6.643 13.714-6.857 10.49-0.245 13.929,6.857 13.929,6.857l5.572-5.143c0,0-6.504-8.62-19.5-8.572zm0,20.572c-3.787,0-6.857,3.07-6.857,6.857 0,3.787 3.07,6.857 6.857,6.857s6.857-3.07 6.857-6.857c0-3.787-3.07-6.857-6.857-6.857zm41.143-96h-82.286c-15.149,0-27.429,12.28-27.429,27.429v82.286c0,15.148 12.28,27.429 27.429,27.429h82.286c15.149,0 27.429-12.28 27.429-27.429v-82.286c0-15.149-12.28-27.429-27.429-27.429zm13.715,102.858c0,11.362-9.21,20.572-20.572,20.572h-68.572c-11.361,0-20.571-9.21-20.571-20.572v-68.572c0-11.361 9.21-20.571 20.571-20.571h68.572c11.361,0 20.572,9.21 20.572,20.571v68.572zm-54.858-48.001c-20.642,0.214-32.786,16.071-32.786,16.071l5.357,4.5c0,0 12.007-13.928 27.429-13.714 15.206,0.212 27.428,13.714 27.428,13.714l4.929-4.928c0,0-14.644-15.827-32.357-15.643zm0-20.571c-29.856,0.007-45.215,19.072-45.215,19.072l5.357,5.786c0,0 14.368-17.933 39.858-18 25.926-0.069 39.858,17.786 39.858,17.786l4.929-5.572c-0.001-0.001-13.358-19.079-44.787-19.072z"/>
    </g>
  </g>
</svg>
