<?xml version='1.0' encoding='iso-8859-1'?>
<svg version="1.1" xmlns="http://www.w3.org/2000/svg" viewBox="0 0 137.145 137.145" xmlns:xlink="http://www.w3.org/1999/xlink" enable-background="new 0 0 137.145 137.145">
  <g>
    <g>
      <path d="m41.143,68.573c0,17.641 13.714,27.429 13.714,27.429v-6.857c0,0-6.857-8.008-6.857-20.572 0-13.992 6.857-20.572 6.857-20.572v-6.857c0.001,7.10543e-15-13.714,9.074-13.714,27.429zm27.43-6.857c-3.787,0-6.857,3.071-6.857,6.857 0,3.787 3.07,6.857 6.857,6.857 3.787,0 6.857-3.07 6.857-6.857 1.42109e-14-3.787-3.07-6.857-6.857-6.857zm-34.287,6.857c-0.224-23.848 13.714-34.286 13.714-34.286v-6.857c0,0-20.5,13.574-20.572,41.144-0.071,27.499 20.572,41.143 20.572,41.143v-6.857c0.001-0.001-13.499-11.437-13.714-34.287zm48.001-27.429v6.857c0,0 6.857,6.579 6.857,20.572 0,12.564-6.857,20.572-6.857,20.572v6.857c0,0 13.714-9.788 13.714-27.429 0-18.355-13.714-27.429-13.714-27.429zm27.428-41.144h-82.286c-15.149,0-27.429,12.281-27.429,27.429v82.286c0,15.148 12.28,27.429 27.429,27.429h82.286c15.148,0 27.429-12.28 27.429-27.429v-82.286c0-15.148-12.28-27.429-27.429-27.429zm13.715,102.859c0,11.361-9.21,20.572-20.572,20.572h-68.572c-11.362,0-20.572-9.21-20.572-20.572v-68.572c0-11.362 9.21-20.572 20.572-20.572h68.572c11.361,0 20.572,9.21 20.572,20.572v68.572zm-34.286-75.429v6.857c0,0 13.938,10.438 13.714,34.286-0.214,22.85-13.714,34.286-13.714,34.286v6.857c0,0 20.643-13.644 20.572-41.143-0.071-27.569-20.572-41.143-20.572-41.143z"/>
    </g>
  </g>
</svg>
