<?xml version='1.0' encoding='iso-8859-1'?>
<svg version="1.1" xmlns="http://www.w3.org/2000/svg" viewBox="0 0 137.145 137.145" xmlns:xlink="http://www.w3.org/1999/xlink" enable-background="new 0 0 137.145 137.145">
  <g>
    <g>
      <path d="m27.429,61.715h27.429v-25.144l-27.429,4.572v20.572zm41.143-27.429v68.572l-13.714-2.357v-25.071h-27.429v20.571l82.286,13.715v-34.286h-41.142v-13.715h41.143v-34.287l-41.206,6.868 .062-.01zm-13.714,2.285l13.652-2.275-13.652,2.133v0.142zm54.858-36.571h-82.287c-15.149,0-27.429,12.281-27.429,27.428v82.287c0,15.148 12.28,27.429 27.429,27.429h82.286c15.148,0 27.429-12.281 27.429-27.429v-82.287c0-15.147-12.28-27.428-27.428-27.428zm13.714,102.858c0,11.361-9.21,20.572-20.571,20.572h-68.573c-11.361,0-20.572-9.211-20.572-20.572v-68.572c0-11.361 9.21-20.572 20.572-20.572h68.572c11.361,0 20.571,9.211 20.571,20.572v68.572z"/>
    </g>
  </g>
</svg>
