<?xml version='1.0' encoding='iso-8859-1'?>
<svg version="1.1" xmlns="http://www.w3.org/2000/svg" viewBox="0 0 137.144 137.144" xmlns:xlink="http://www.w3.org/1999/xlink" enable-background="new 0 0 137.144 137.144">
  <g>
    <g>
      <path d="m109.715,0h-82.286c-15.149,0-27.429,12.28-27.429,27.429v82.286c0,15.149 12.28,27.428 27.429,27.428h82.286c15.149,0 27.429-12.28 27.429-27.428v-82.286c0-15.149-12.28-27.429-27.429-27.429zm13.715,102.858c0,11.362-9.21,20.572-20.571,20.572h-68.573c-11.362,0-20.572-9.21-20.572-20.572v-68.572c0-11.361 9.21-20.571 20.572-20.571h68.572c11.361,0 20.571,9.21 20.571,20.571v68.572zm-38.585-50.456c-10.509-9.909 11.71-23.274 11.71-23.274s-17.364-6.752-27.982,5.158c-10.132,11.365-1.294,23.935-1.294,23.935l-17.565,17.456 .847,.842c-6.128-2.291-13.297-1.022-18.228,3.878-6.719,6.677-6.719,17.503 0,24.18 6.719,6.678 17.614,6.678 24.333,0 4.931-4.9 6.208-12.025 3.902-18.114l.857,.851 17.565-17.455c0,0 14.63,7.137 23.87-1.285 11.141-10.156 5.406-27.808 5.406-27.808s-13.114,21.356-23.421,11.636zm-33.061,47.322c-4.032,4.006-10.568,4.006-14.6,0-4.032-4.007-4.032-10.503 0-14.509 4.032-4.006 10.568-4.006 14.6,0 4.032,4.006 4.032,10.502 0,14.509z"/>
    </g>
  </g>
</svg>
