<?xml version='1.0' encoding='iso-8859-1'?>
<svg version="1.1" xmlns="http://www.w3.org/2000/svg" viewBox="0 0 137.144 137.144" xmlns:xlink="http://www.w3.org/1999/xlink" enable-background="new 0 0 137.144 137.144">
  <g>
    <g>
      <path d="m109.716,0h-82.287c-15.149,0-27.429,12.281-27.429,27.429v82.286c0,15.149 12.28,27.429 27.429,27.429h82.287c15.148,0 27.429-12.28 27.429-27.429v-82.286c-0.001-15.148-12.281-27.429-27.429-27.429zm13.714,102.858c0,11.361-9.21,20.572-20.572,20.572h-68.572c-11.361,0-20.572-9.21-20.572-20.572v-68.572c0-11.361 9.21-20.572 20.572-20.572h68.572c11.361,0 20.572,9.21 20.572,20.572v68.572zm-47.469-50.561c-0.035-0.13-0.047-0.311-0.079-0.45-0.155-0.156-0.252-0.254-0.415-0.418l-44.49,39.832c-2.867,2.919-5.243,11.278-1.465,14.823l1.823,1.874c2.866,2.919 9.82,2.338 14.965-2.925l39.441-43.318c-0.168-0.169-0.275-0.275-0.436-0.438-0.088-0.02-0.204-0.024-0.289-0.047l-9.055-8.933zm-34.83,50.488c-3.738,0-6.767-3.061-6.767-6.835 0-3.774 3.029-6.833 6.767-6.833 3.737,0 6.767,3.06 6.767,6.833 0,3.775-3.03,6.835-6.767,6.835zm55.91-55.235c-0.71,0.7-1.86,0.7-2.569,0l-5.138-5.068c-0.71-0.7-0.71-1.834 0-2.534l9.811-11.804c-5.26-1.651-15.021-0.485-19.194,3.632-3.878,3.825-5.24,14.868-4.07,20.071 1.081,1.09 2.714,2.743 3.405,3.44-0.956-0.97-1.187-1.229 6.019,5.99 5.191,1.2 16.087-0.591 20.002-4.453 4.173-4.116 5.356-13.78 3.682-18.97l-11.948,9.696z"/>
    </g>
  </g>
</svg>
