<?xml version='1.0' encoding='iso-8859-1'?>
<svg version="1.1" xmlns="http://www.w3.org/2000/svg" viewBox="0 0 137.144 137.144" xmlns:xlink="http://www.w3.org/1999/xlink" enable-background="new 0 0 137.144 137.144">
  <g>
    <g>
      <path d="m93.69,91.58c-3.929,2.166-7.41,4.751-10.606,4.751-4.095,0-6.09-3.253-19.11-22.742 9.908-8.661 15.722-14.409 23.261-25.321 6.466-4.329 8.668-8.155 8.668-11.656 0-2.998-2.202-6.995-5.477-6.995-1.558,0-2.788,1.493-4.422,4.078-12.039-4.664-17.688-6.246-23.911-6.246-5.814,0-10.566,5.163-10.566,11.16 0,3.414 1.395,5.329 3.524,5.995 2.787-1.665 5.077-2.333 6.555-2.333 3.846,0 9.821,1.751 17.192,4.001-3.684,5.415-13.265,15.407-20.143,20.902-2.621-2.246-4.257-3.078-6.634-3.078-7.613,0-10.89,8.994-10.89,14.575 0,5.662 1.312,7.246 3.357,7.246 2.296,0 6.062-1.999 8.434-4.169 12.53,24.074 16.051,27.986 24.647,27.986 9.338,0 18.416-7.076 18.416-13.492-0.001-2.165-1.145-4.079-2.295-4.662zm16.025-91.58h-82.286c-15.149,0-27.429,12.28-27.429,27.429v82.287c0,15.148 12.28,27.429 27.429,27.429h82.286c15.148,0 27.429-12.28 27.429-27.429v-82.287c0-15.149-12.28-27.429-27.429-27.429zm13.715,102.858c0,11.361-9.21,20.572-20.571,20.572h-68.573c-11.362,0-20.572-9.211-20.572-20.572v-68.572c0-11.362 9.21-20.572 20.572-20.572h68.572c11.361,0 20.571,9.21 20.571,20.572v68.572z"/>
    </g>
  </g>
</svg>
