<?xml version='1.0' encoding='iso-8859-1'?>
<svg version="1.1" xmlns="http://www.w3.org/2000/svg" viewBox="0 0 137.145 137.145" xmlns:xlink="http://www.w3.org/1999/xlink" enable-background="new 0 0 137.145 137.145">
  <g>
    <g>
      <path d="m109.716,0h-82.287c-15.148,0-27.429,12.281-27.429,27.429v82.287c0,15.148 12.28,27.429 27.429,27.429h82.286c15.149,0 27.429-12.281 27.429-27.429v-82.287c0-15.148-12.28-27.429-27.428-27.429zm13.714,102.859c0,11.361-9.21,20.571-20.571,20.571h-68.572c-11.361,0-20.572-9.21-20.572-20.571v-68.573c0-11.362 9.21-20.572 20.572-20.572h68.572c11.361,0 20.571,9.21 20.571,20.572v68.573zm-48-68.573h-6.857v6.857h6.857v6.857h-6.857v6.857h6.857v6.857h-6.857v6.857h6.857v20.572h-13.714v-27.428h6.857v-6.857h-6.857v-6.857h6.857v-6.857h-6.857v-6.857h6.857v-6.858h-34.286v82.287h68.572v-82.287h-27.429v6.857z"/>
    </g>
  </g>
</svg>
